<mxfile host="app.diagrams.net" modified="2024-06-18T11:29:22.585Z" agent="Mozilla/5.0 (Windows NT 10.0; Win64; x64) AppleWebKit/537.36 (KHTML, like Gecko) Chrome/121.0.0.0 Safari/537.36" etag="oPnw9Rwm30XIC22Y_l2r" version="24.5.5" type="device">
  <diagram id="-xXPhpVsSfGEatTcjYKG" name="Pagina-1">
    <mxGraphModel dx="1691" dy="873" grid="1" gridSize="10" guides="1" tooltips="1" connect="1" arrows="1" fold="1" page="1" pageScale="1" pageWidth="827" pageHeight="1169" math="0" shadow="0">
      <root>
        <mxCell id="0" />
        <mxCell id="1" parent="0" />
        <mxCell id="K_Xv337eBhNjlKm5L6lM-1" value="" style="shape=image;verticalLabelPosition=bottom;labelBackgroundColor=default;verticalAlign=top;aspect=fixed;imageAspect=0;image=data:image/jpeg,/9j/4AAQSkZJRgABAQAAAQABAAD/2wBDAAgGBgcGBQgHBwcJCQgKDBQNDAsLDBkSEw8UHRofHh0aHBwgJC4nICIsIxwcKDcpLDAxNDQ0Hyc5PTgyPC4zNDL/2wBDAQkJCQwLDBgNDRgyIRwhMjIyMjIyMjIyMjIyMjIyMjIyMjIyMjIyMjIyMjIyMjIyMjIyMjIyMjIyMjIyMjIyMjL/wAARCAGQAZADASIAAhEBAxEB/8QAHwAAAQUBAQEBAQEAAAAAAAAAAAECAwQFBgcICQoL/8QAtRAAAgEDAwIEAwUFBAQAAAF9AQIDAAQRBRIhMUEGE1FhByJxFDKBkaEII0KxwRVS0fAkM2JyggkKFhcYGRolJicoKSo0NTY3ODk6Q0RFRkdISUpTVFVWV1hZWmNkZWZnaGlqc3R1dnd4eXqDhIWGh4iJipKTlJWWl5iZmqKjpKWmp6ipqrKztLW2t7i5usLDxMXGx8jJytLT1NXW19jZ2uHi4+Tl5ufo6erx8vP09fb3+Pn6/8QAHwEAAwEBAQEBAQEBAQAAAAAAAAECAwQFBgcICQoL/8QAtREAAgECBAQDBAcFBAQAAQJ3AAECAxEEBSExBhJBUQdhcRMiMoEIFEKRobHBCSMzUvAVYnLRChYkNOEl8RcYGRomJygpKjU2Nzg5OkNERUZHSElKU1RVVldYWVpjZGVmZ2hpanN0dXZ3eHl6goOEhYaHiImKkpOUlZaXmJmaoqOkpaanqKmqsrO0tba3uLm6wsPExcbHyMnK0tPU1dbX2Nna4uPk5ebn6Onq8vP09fb3+Pn6/9oADAMBAAIRAxEAPwD3+iiigAooooAKKKKACiiigAooooAKKKKACiiigAooooAKKKKACiiigAooooAKKKKACiiigAooooAKKKKACiiigAooooAKKKKACiiigAooooAKKKKACiiigAooooAKKKKACiiigAooooAKKKKACiiigAooooAKKKKACiiigAooooAKKKKACiiigApM4OMUtc/rFzd3WpQ6Jp8zQSyRme6uVGWghzgBc8b2IIBOcAMcEgZQGlf6pZaXbPc31zHBCgyWdvfHA6k54AHJJ4rNXV9bu/nstACwHlWvrvyGYeu1Vcj6Ng+oFYMPh/QD4lvpry0tvselxIplvCHLzONzPIzkk4XYBkkAsxGKhkuIbI+Z4PS7DDnyyCLKT2xIRgHs0QPvnpWc6sIK85JFKLeyOli8RvBcJbaxp8unSSMEilLiSCRieFEgxhj2DBc9s1vZrj7m+1PU7SS1u7LR1glXbJHJPJKCD1H3FH0pdKuPEGm2EVtItlqaxAqHFy0cpUE4B3KQxAwMkjOMk5NYRx+Gk7RmhulNatHX0tY9jr9td3AtJY5rO8IJEFwoVnA6lSCVYfQkjuBWsDxXXGSauiGrbjqKBzRTAKKKKACiiigAooooAKKKKACiiigAooooAKKKKACiiigAooooAKKKKACiiigAooooAKKKKACiiigAooooAKKKKACiiigAooooAKKKKACkz1paSgBK46XWItJ8Sa48qNPdy/Z47aBThpBsYgDPRQd5JPA574FdhnA57V5kk0+r+JH8QIqvDIpto1IGVgBJVh3JJyxHo4/ujPDjsWsNRc769DajSdSVugRWsk/iO7n1bZPNcBLiNVBESsoCEKpOCQAvzHk5HQDA3R+Ge9GATkgEjOD7UV8BisVUxM+eo9T1adNQVkKBjjt9aTocjgjpjt/h+FLRXKnqaWuSOYL6D7LfR+bCSCCSQyEdGDDkEdQQQQeQauaVqFxa3q6TqMhmkdS9nckY89R1VsceYo646jkDg4z+1Omt31LTXto5BHdRMJrWX/nnIpypPtnII7gkdDX0OT5nOnNUqjumcOJoK3NE68HIpRWfo+ojVdJt7wIY2kXEkZ6xuCQyn3DAj8K0BX2qPOCiiimAUUUUAFFFFABRRRQAUUUUAFFFFABRRRQAUUUUAFFFFABRRRQAUUUUAFFFFABRRRQAUUUUAFFFFABRRRQAUUUUAFFFFABRRRQAUh54paQ9aAMXxTcSW3hbU5YnKSmBkjYdVZhtBH0JzXNabEsUBiUALHhAOwAGAK6PxbGZPCWplRkxwGUDuSnzf+y1zenyBt+DncAw9wa+V4kvaC6ano4BK0i/070UUnqR/k18kux3hR7YqG4u7e0gM1zKkUYOCXOOfQep9hVKDVHN2UvbeeyjlIW1FzEyGXIySCRgEk4CkhhjJAzgdFPDVakHOMXZGbnFOzZqYqayBNyrBgO/JxkH096yr+8lQraWMbT6jMCYYVGc4x8zcgKoJAJOAMjqeKf5mqWwC3miXiSY5NsBMmfYqc4+oB9q6MPgcTKKrQg2kzOdSGsWzX0aWOw1zUtNdvLFxKLu2DZAYMoDhSeCQykkA5+bOO9dMOgrgbjUjL9gguLW9t5TfweTLcQNGq4cFsuRgEqGUAkElgBkkiu9XgYr7zBVJ1KKc1ZnlVIpS0Y6iiiusgKKKKACiiigAooooAKKKKACiiigAooooAKKKKACiiigAooooAKKKKACiiigAooooAKKKKACiiigAooooAKKKKACiiigAooooAKQjIpaKAIZYlmieNwGR1KsD3B4xXmmlF7RFt5STJayNayE9SUJXP4gA/QivT+tcB4gtfsPimYgfu7+ITqfWRMI4HoSpjPvzXi55Q9rhXJbxOzBTUaln1L3b29qrQJfaxdTW+nFIYIW2TXkilgGxkqi5G4jIycgDocnIqlp2r/aru4tJYvLaMkQvkEShcBiB2IJwR6EHPPHTeDWX/hHI0BG+KaZJQP74lYk/jnP0Irw8my6FStL2+vLZpep0YqrKEfdJ9O8M6dYSi5ZZLq8HIubk73H+6MAL/wECtK6s7e+tZLW6hSaCRdrxuuQR9KsDpTSyqCWIAHc8V9lGEYx5UtDzG23dnMeHNPj0TWdT01i8szhLiG4lYs7wnKhCT12EEe4YE8kk9SBiufM0Z8aXEzSokVpYKjszYG6RyQCTxwEB/4EKmk8WaHG5Rb9JmHX7MjTAfUoDj8aaUYrTQT1d2aV5Z29/ZzWlzGskEylHU9CDwRVLw3PNcaFALlzJPC0lvJIesjRu0ZY/Urn8a5bxR8UtM8Nz6YkdrNqEd8C4kgYAKA23AB6tnPHHTFdX4etZbTRIEuF2zyM88iE/daR2cr+BYj8KsDVooooAKKKKACiiigAooooAKKKKACiiigAooooAKKKKACiiigAooooAKKKKACiiigAooooAKKKKACiiigAooooAKKKKACiiigAooooAKKKKAErzLxgmrJr17dwym4s7L7PcyW78mGJlkR3X2wpLLznAPBHPptY93awwale6jeSRLYvZLFN5pAUBWcknPGMMc1FSEZxcJbMqLcXdHnenRteWNxLasGuY7yWa3cYIJDEEZ9GHBPoc44rdsb250m6N/aW8k1pdqr3NqOHVgMB1BOCwAAIJGQBg5GDiaC62EEFvFZ3CW0bNHHN5OFkTcQHwPmGRgkkDBJziuo7nI9z/jXwlTF1cJiXKHR/ges6cakNTpjf2ywGV5kSNV3MXO0KPU57V5l8S4x43sLGx0DUGlMUxeUIG8kqeNxkHGRzgDJOTWpda9bRyPbRLJdzKdrRwAEKfRmJCg+xOfaqp1HV5OYrS0gH/TSVmP4gKAD9D3r33mmJqR/cUreb0/A444aKfvMm0fQLPTtPhhuoYNQu1Ub7q6hEkjEAAcsCQAAAB2AFbqXUyYVCEUAAKqgD6Af4Vzf2vWgPv2P4xN/8VTWbVZ+JdQWJD1FrFsJ/4ESSPqMH3rx3g8dVl787JvudK9mlaKE1Wz0y+fxROwilntYSYYi4IhnaHDsq54JyoJx1BHXNeoqMKAeTXmiadYT2sdpLCsYjIaGZOHjYHOdxySc4JznJ65yc9l4e1Sa/t5re82/brRxHMVGBICMrIB2DDnHYgjtX1WEata92cFWDi7m1mql7qNppts9xe3EVvCvBeRwBn0+p9KW/vYNPsLi9uX2QQIZJG64A5P1NeHa/q2o+I9VmW4DI21QsfB+zq2SEQZwGwDucnrx0AA629bIVGlKrLlR6FN8UtD3yLZ29/ehODJFCFTPplyvPtjPtWhpfjrS9RmSGaOexllOIxcqArnsAwJAPoCQT2zXm9vp8VuqJCFQqoIzglcDAGDnj14yT7mp2RVjeNlidJV2mNxgMx6jBIHI/HgVrypHo/wBnx5bX1PagQRSjkelcN4K115JTpFxO0yhWezmflmVTho2J5JU4wepGc9MnuByOKmx5c4OEnGQ6iiikSFFFFABRRRQAUUUUAFFFFABRRRQAUUUUAFFFFABRRRQAUUUUAFFFFABRRRQAUUUUAFFFFABRRRQAUUUUAFFFFACVzXjfd/wjrdfLFzAZcf3PMXP4Zxn2zXS1XuIIrqCSGeNZIpVKujAEMDwQQeoxUTjzRce44uzTPMrY6mPEO9J2FkFVWhc5DEgksp6gghRjocknJwQa3ezXV6NItZWjUAG5kTIYA5wgIxgkDJIwQMY65Gj4h8Px6O2nyWd9feRNdeS1u0gZQux2ADEbuqjqx44rmLa8hglv9RuW2p50jMSeSd/lqMnHYAD3718vHL3DEL2mtlp/wfxPTVVSjeOhvQQxW0KxQoqRqMKq8AD0FPxxSKwYbvUZ6j/9VLg9q9B+YlboL/SkpccdaT2pdBsPz/Cr+l3sVj4itp7mVYYbq0aBnc4UyK6+WCegJDPjPXJAzVD8KhuJwsTWoi+0SXQMSWwGTKSCMY6YHcngDJPFbUJNTutjKpFOOrNz4kXLw+G4okGfOuVDLzyFVpAPxKAe+a8z0MLmW5E32iaVFkkcjGSc5HPQA5AGeMHqSTXpni7T54/BVozuZptMaGaVx1YKpR2/BWZvwry6yij/ALYuxFGgiWQgw9sgLk47bsjjgfKD249OEmqlrF5fu0jqdH0SXXrua1W6a1CxFpJ4QCwbOFABGPXJ9sDBORy2j3F1Fe3FhdMZ1hlZTISWGVJyQe4GB68MBxxnaNzqWnPcNosy293LHtfcOCpIyV4wGGODgjk8c5FDTNNfTbd1eYyvgkbB1BIyRnOcY6c/qBWtnzXWyOxRqqq5S+FI3NNdotU026RSjR38UagcBlkbaT+Ttn6164DXkfhnR9PvtFs766WWa7cCVpTPIrI+c8EEFSp4HHBHPOc9tpuqXFhdw2l/Obm1uG2W92ygOr9fLlwAMkfdYAZPBGSC3m0czoVqsqS0kjzsXFyftEtDqRzRSDpS16BxBRRRQAUUUUAFFFFABRRRQAUUUUAFFFFABRRRQAUUUUAFFFFABRRRQAUUUUAFFFFABRRRQAUUUUAFFFFABRRRQAU0nnj/APXTqYcZNIDmfGif8S6zkz/q72M59Mhl/wDZq8+tYootWurOZAV87zFB7hjuBPbhgw57iuv1/URrGsJp9sf9FsZd00g5DzDICj1Cgkn/AGiB1BrE1vR3kKT2pAnhyELHCsp6ox7DIBB5wQODk185jMfThjOS/Sz8j0sPSfstSA6QsXNjdT2f+whDIPYKwIA9himiPWouFns5h/txEE/iGx+lO0/VUuMwTBorlBho5MBgfcf1GQfWtLqM9R6118zDlRlefrYOPsdo3uZiP6GlEuttwbazT3MzMPyAFanT1/Oori5jtY97kkk4VFBZmY9AoGSSSMAAZppt7ITWm5mTpq7eUrXsCNLLHEqQRHcxZgMAsSOhJ6cckggGvTNJ8Pafo4aS3iZriQYkuJm3yMPTJ6D2GB7VneHPDcVnFFqN/CX1Z8uxeQsIM/wKMlQQOCR1OecGunAwK9KjS5FqcVSfM9CJ4lljZHAZWBBBGQQeoIrxrxP4Rm8PavDeIiyaOxMZlLcxAj5UkB6gHgMc8HB56+1Vj+J7OS/8NajbwqWlaBii/wB5gMgfiQB+Navv2ClUdOSkjyGG78qONmSZYozguq4Cg8AEdSB6jI4BzRAt5qEzWWmQsXMhCxx5ZiM8sSSAqk55PGMetdVYaZo97aR3K2FowdQwYQryCMgnjng96rTy/wBh3R02C4Sw0u+BmcQgq4ZcBkj2jILBlJxyNpI5OR5FHP6VSo6bi00e1VrzUbQQLYReDZLWGXUreVbpiJ4RKB5MrHI2g4JU9CSM7sE/eIHQPCl7aS2jPhJ02q4PKN1VwfUHBB65A9KxrabRBttRaLb+YdqrcWxjEhPYFgASeeMknn61oW2l21ndpJab7cA5aKM4Q9P4eg/AA+9fOYvEwniVXjFwf5/18zCEW4NSdzrdDvn1LRLS7lAWZ4wJVH8Mg4cfgwI/CtKsDwsQlrqEAACw6hOAAMD5m3n9XNb1fcU5c0UzyWrOwtFFFWIKKKKACiiigAooooAKKKKACiiigAooooAKKKKACiiigAooooAKKKKACiiigAooooAKKKKACiiigApucdv1p1NOc8UAGfauW8Ua5LCw0rT5Sl7KoaWVeTbxnIyO24kEKD3yTwMHV1zVk0bTJLpl8yQkRwRZx5kh4Vc9uep7DJ7Vx2m2shaS5uXMlzK5klkIxucgAnHYAAADsAPcnyM2zBYWlZfEzpw1H2krvZFqwsorK2WKNAoAwAOcDrjPU56kk8nJ6nNWsAjBAI9CKAMUo4FfAyk5Pmk7tnrK3Qzb7RLK/AE0WSvKnJBX6EEEfgRVEeHbiLi21a4RR0WVVkGPqRn8zXQUV00sbXpK0JEuCe5hpol7/wAtdXkx/wBM4UU/qD/Kp49Ns9Jns9TCtJLa3cZknmcswjcNG3J4AG8McYGFz2rUoKRTRywzoHgmjaOVT0KkYI/I114bNK6rxnUlpcxqUVyNI7AcUteeab9otHfT5NT1SO+gAxKbkyrOhPyyBZNwwRwQAMEEcAjO1Brep2h/0qFNQh6mW1XZMo9TGSQ31U59FNfYwzLDyn7PmszzfYzSvY6ocimnnOKqWGpWmp25ms5llQHDYOCp7hgcFSO4IBHpVwEHpXffsZHnumwi1n1G0X/VQXciIOwXcWAH0BA/CodJjW8ubjUpcPKJngiB/wCWaKxUgDtkgk9zkAk4GJtPfN5qrMcE39xnPbErAfoP0rJ07UJLSa5uvssp0m4lZ4ZUBYqScklQMhWOSDyMHnHGfgsVBuvWVPe//Dr1PZj8EbnQywwXcEkEypLE3yurcg+xH5fTjFO0+1aBIrdpnm2tgM5y23PAJ7kDAyeTjJ5rLsJ47zW7i5tNzWrQqsj7SFdwTjGRyQM5I45UZrXa4FhZ3F6VLeShKIOrueFUepJIA9yK5KdGbqRo+aCUkouRq+FhutdQuM5WbUJyD7K3l/zQ1v8Aas7RLE6ZotpZuwaSKICRh0Zzyx/FiT+NaNfo1NWikeO3dhRRRViCiiigAooooAKKKKACiiigAooooAKKKKACiiigAooooAKKKKACiiigAooooAKKKKACiiigAooooASmkkdKdWJ4n1J9M0WR4GxdTEQW/s7cbv8AgIyx9lNROSjFyeyHFXdkcxq162s6+7oc21mzQW47M+cSP74I2j0w3rV+NBGgUdAMCs3SrSOGJY4xiOJQij36En3x+pPXNaYr85zDFPE15T6Ht06apwUELRRRXCjQKKKKYBSc0tFL1AiubSLUIVjkZopojut7lAC0LfTup6FTwR+GK9pdSPLLZ3aLHfQYMiKcqynIV1J6qcHB6ggg8irvPY8iquoW0l5Ak1qoOoWgLW/OPMU4LRE+jADB7EA9ue+jNV4qjU3Wz/Q55LlfMth8luslwLqKSW2vFAAuYMByB0DA8Oo/ukHHbB5rUs/EbW5WDWRHCzHbHexkiCU9gSeY2Po3B7E9Bl2l1Fe2kVzCSY5VDKSMEAjPI6g9iOx4qUHCspAZWG1lYZDA9iD1HWu3BZxXwsvZ1NVexnVw0amsTMntCNZ13TiTGJnZ0YA52yoGyP8AgRccdx2rRjjWGFYkACqoUAdAB04rH0K3hF1qFxAgSEzmKJAxIRUAXC5PADBiAMAZOOMVt/8A665MxrKeIk4aJ6m1KNoJMTH+cev4evYUunxx6trItEdGt9MdZblQR8055RcDsuCxPTcFxkggKpKHcOo6e1VhG1iIbvTov9Js1IEajH2iInLRn1J5ZSedw9Cc9GS1aFPEJ1d2ZYmMnB2O6XkZpar2d1De2cN1buJIJkEkbj+JSMg/lVivvjygooooAKKKKACiiigAooooAKKKKACiiigAooooAKKKKACiiigAooooAKKKKACiiigAooooAKKKKACkzS0h70AJn2rhPE919s8SLbA5isIgWAPHmyc8+4QDH/XQ+1dyzhVJYgADJJrzKwka/d7187r6Zrg5HIVj8oP0UKPwrxs6xHssK0nrLQ68FDmqXfQ2LZPLt1BHJGT9TU9AHGPSgV8E9Wz1d9QpM4B9qWkxkkUJC6FeyuPtdpHcYADjIA9M8fpirGQODxWXokuy2bT5OLi0bYykYJXJ2sPYjH45HY1aUtZyXVxdXy+QxDIrhUEQAwRnjOSCck8Zx2rapStUaXyJUtNS3zRVCDU0u3AtYJ5oif8AWhNqY9QTjI9xkVeGMYFZyg4bjUri1HLMttE87ZCxqWJCliAAScAZJOM8Y596kxVGawlmcsNSu41J+4mwAfQlSR+f5U6SjzXk7CltoRaWyGTUFiz5IuS6AgggOqyEYPI5c8EA+1X5nEcLyMcBVJJ9hWXFCugzbAzNp9xIMSOxZoZWPRmOSVYjIJ6EkZ5Aq5qmf7HvNvXyHwT0+6a6sTC9bmXwu2pnTfu26lbw7EY9BtN335EEjH1Lck/mTWp1Oaq6Zt/su02/d8pcfTAxVquas26km+5rHYWkUlWDKcEHIPvS0dORWabTVhtXVi54ZlEF1qGmA/IjC6hB7JKTuH4SK5x2BArpq4/SDjxZBg/esZ9w9cPDj8tx/Ouvr9Iy6s62FhN72PFrRUajSFoooruMgooooAKKKKACiiigAooooAKKKKACiiigAooooAKKKKACiiigAooooAKKKKACiiigAooooAKQ0tJSsBg+Lrk23ha/2sVedBboR1DSEICPcbs/hXM2EarLtUYVFwo9B0A/StjxtITFpduCPnu/MYEZBVEY/wDoRWs2wTCOfUgD8BXyPEdW9SNPt+p6mBjaDZcA60tFFfLnYFRTTJBE0krBUHUnt/k4H41LWBrrzXOo2VjC4REzczv3AHCge5JJHptzg1tQpqpOz0SJk7bEs9kNSuPNwySLkLKjFWUHtkdRxyDkfQ1NBodrHKs05kuplOVa4cybT6gE4B9wAavwIIoUUA8DnPX8akFN15pcsXoNpMAAOgApfxyfeiisAsFJ355paKFdbDGlI5I5IpkWWGRSskbDIZSMEEelZ0JbT51026dpbeUH7LO5yXA5MbHu4HOTywGeoONOobm2ivbZ7acMI3wQynDRsDkOp7MDgg/hyOK68PWTXsqm35eZjOP2kVtHgms9OjtZwd0GYwx/iUEhT9SMZ981eGfSqNhcyuslrdlftluQspUEK4PKuv8AssOR6HI5wTV0A/hWVeMlUfNuXFprQXNL16dz0qNpUQfMwGfU9aoXGoSvMlnYRebfT58pDkADoXY9Qozkk49ACSBSoUJ1pqEFuOT5Vdmv4dj+1eIry6AzHaQC3VuxdyHYfgFjP411ves3RdMTSNNjtUcyMMtLKw5lkY5Zj9TnjsMAcCtKv0jB0Fh6EaXY8SpLnk5C0UUV1EBRRRQAUUUUAFFFFABRRRQAUUUUAFFFFABRRRQAUUUUAFFFFABRRRQAUUUUAFFFFABRRRQAlQzSxwRSSyOqRxqWdmOAoHUk9uKmrkfGt2XjtdIU8XbGSf8A65JgkH/eYqPcbhWVaoqVOU5bIqEXOSijlbvUbjWvFEN/KzpB9lkNtAeNkZZAGI/vNjJ9OB2JO9ZjFsO2ST+tYA512Unqtqo/Nzn+VdHbDFvGPavz/Mq8q9RTl1PbpwUIcpLSdKWkPWvN9SwPp61gwYuddvZeoWVIFPsqhj+rH8q3icDPtx9awdDIkHnDkSzSyg+oLnH6Yrpo+7TnL5fr+hK1kb2MigcijtS1zDQUUUUDCjFFFABSd/ypaKBGTrkbRWq6rAjNLZjbMiEAyQE8jJIGVJDAk8AMO9OFlr7cf2Ld892uYAP0c1rRKjOY5VDRyAxupGQVYYIPtWr4Xlkl8P28czEzWxe1cnqxjYpk+5C5/GvqMpw9DG02qqu46fI4a1WdF+7sznrfwvrd03+kS2thGSMlCZ5CPxAUH3O4e1dPpGhWWjQutqjGWTBkmkbdJIR0yT2HOAMAZOAM1p4FKOlfS4fB0MOrU42OKpWnU+JgBiloorqMwooooAKKKKACiiigAooooAKKKKACiiigAooooAKKKKACiiigAooooAKKKKACiiigAooooAKKKKAErzzWpDceLdScnP2dIrYDsBt8w/iTIPyFeh153rERt/FmqK+QZ/KuU7AqUWM/UgxnOOgI9a8nOeb6nLl8jqwVvbK5lJxrc+f+fWP9Gf8AxFdJCMQp/uj+Vc193XeT960P5q//ANlXTRf6pMf3RXxOK+y/I9bo0PpOtLR61yARTy+TBLKekalvyGf6VjeHU8qysUPa3X8yoJq9rT+XoWoPnpbSEfXacVXscRyQr2ACj8AK6o6UH5v+vzFFe8zYxRRRXKhoKKKKACiiigAoopKEADhgc9Oelanhlv8AkLLzhdQfAPuiMf1JrMUFpFUY5IHWtPwth7K+uB92e+mKk9wreXn/AMcr6jhpPnn2POxttDexxS0CivrzgCiiigAooooAKKKKACiiigAooooAKKKKACiiigAooooAKKKKACiiigAooooAKKKKACiiigAooooAKKKKAErkvGOnvfXOipbTC3umunjScruABhkYqRkZDFFzyDwMHIFdbXO+MYmOhm5jmeCW0ninWeMAtEA4DsMgg/IXBBGCCQeDUTipRaauhxk4u6OGuEurXxBaw31pJbz+RKhGC0bj5SCrAYI4PBwR3ArpoT+5TnPyiqfiaXVE/suPULZHKXoCXtuwCODHICGQncrdDgbhx1FWrU5tk7cYx9K+GzvDQoVYwhtb9WevhqjqU+Zk1FFFeIdBleIjjw/e/wC1GV/Pj+tRZKOSOCDkfnUniLH9hzA92jH5uo/Goz95sdcnt+ldSt9Xj6v9Ap/EzXjcSRhgeo/Wn8Vl29wYWIbJQ9R6GtJHSQZRgQfSueUXcbVh1FGKBUiCjOKKTI/H2NPyAMig8DNU9RtLi8t0jtb17R1lVy6KCWUHJXnsRkU+6v7eyVTM+Wc7Y41BZ5G9FUck+wrSNJysoat9CXK2rJLm7aztmnjTzJxhII/+ekrEBF/EkZ9BkngGuo0jT10vSLWxD7zDGFZj1ZurMfcnJ/GuT8P2d7eeKnudQVYks7YNFa8EwySEgMxBwZNgOQMgBwMnJJ7peBX3eUYF4ShaS95nk4iqqktB1FFFeuc4UUUUAFFFFABRRRQAUUUUAFFFFABRRRQAUUUUAFFFFABRRRQAUUUUAFFFFABRRRQAUUUUAFFFFABRRRQAVBc28V3bTW86h4pUMbqe6ngj8jU9NIpAeaard3A1LS9Fv2drmwinZmYcTKAixyjsSVZgfRsjpgnZQBYwB2AFWvGtpnT4dURctYOXkIHPksMP+AGGP+5VOFg8CMCDlQeO/wBK+L4ipyVdTezR6uDknTstySik59KXvjFfO7HUU9StPt2l3FruKs6EKw42sOQc+xAP4Cm6b4ZudR0ezv7XWWAnhWTy7q2WQKSASMrtPByPwq4cBelM8LeHNOuPDlpcrHNbXDhyZbWZ4mPztgnaQCcY6g19PkFKnWVSFWN1pY4sXKUGnFldvDHiCPlRptwB3Erxk/gVYfrUP9l+IIST/Y7MfWG6jOfzIrpxo2qQjFr4huiB0W6hjlH5gKf1pTF4mjACXWlTjvvt5I8/k7fyr25ZNg5a8v5nMsZWXU5lTr6cPoN6cejRH9Q9SCXWDx/wj1+T7NEP5vXRCTxMo/489Jc+11Iv/tM0on8Snj7BpS/W8kP/ALTFZf2Bg97fiP65UMFU1xx8ugXCe8lxCB+jE/pUq6b4ilGVsrGA+st2zEfgqEfrVi21TxBdfa5y+kW1lbkhrnEkisRndjlcheBnoTkduYdKl1PWC0V/rNzZz4L/AGWG2SFmizhXBbcSCCM4OVJwcGrjkeCjry/iT9aq9xX0G7SAz6tr0VpAoy/2eIRgD3dycD3wKpveafo2n3Wo6HY7xFEWl1W93Fdo7KW+aQk8ALhSSBkcV0dv4c0uGdZ5IGurgcrNdyNMwPqCxIB+gFc/rUqeKYr6JPm0y0gkKt1W4m2kbvdV5x2Lc/wjPSqWFwivGKXYzcp1N2dF4e06ew0mM3snm6hcYmu5cY3ykAHAHAAACgDgACtgdKqaZL9o0qzmP/LSFH591B/rVwV2p3MwooopgFFFFABRRRQAUUUUAFFFFABRRRQAUUUUAFFFFABRRRQAUUUUAFFFFABRRRQAUUUUAFFFFABRRRQAUUUUAFIaWkIyDjrQBg+Lb37H4euUTBnux9lgUjIZ3BGSO4AyxHoprDs4fs1nHECWCKAMnnAHc/QfnWl4us7mWOxvLeB7lbSVmlhjBLFWUjcoHLEeg5IJxk8HkNa1qSWwltNLSb7VJE7b3iZAiqBuxuAy3IAA5BIJwBz8vnlKtWqQhGPurqd+FlGMG76m1p92b21NyceW8jCLA6qCQD9DjI9jS3t2bWOIKAZZpViQH1J5P4KGP4e9M02W2GkwNA6C2WMbGBGAoHHPsBWPbapDf+I0mmJjt44j9jaQgLLnh3GfoAB1wSehFfORo3qSlbSP9JHa3pY3b65Wz0+4uW48mNnIHXgE8e/FZ+maIljp1sLaWayukiUPJbSFcsAMkryrZOTyDTZJRrd0kEHzWELh5Ze0rA5CKe4BAJIyOAOcnG0MYxx+FUqtTCxSi7SeuhPKp76jrfxFqWnfLqcAvLcf8vNsmHUDu0eefqp/CuksdQtdStlubO4jnhboyHI9wfQ+oPIrmcehxn0NU3s3iuTeafObO8I5dRlZMdnXow7Z4I7EV7eB4glpHEr5/wDAOWrhFvA7wHjisO4uJdalezsJGjs1Oy5vEP3sHlIyO/Yt0XkDJ6Yo11tQmez16ddLiRctFExP2wcZ2v1AyQCg+Y56kHnWjtp9WhWA27afpCKFFsF2STKB0IH3E/2RycYOBkH6qnUjUjzwd0zglFxdmRi0g16JbGFPL0K3GweWSn2hl4AUjoikZyOpAxwOUkWW4SSxvLhY9UsQJ7S8IAEi9N5Hofuuo4wcjGRi/f61p2jIlu7AzbR5VpbrukYDphR0HucAetcxfRz+IbmOXVI1ht4s+XaI2SQRyZG6MDgfLjbxzuwDXLjMwoYSPNUevY0p0ZVHotCSfXZ/E1lHFapJa2MiD7TJkhpT/EkZHO3sXHUHjg5F6ziRLaeFFVEEBUKoAAAGAABwB7CoVUBQBgAAAADAHpVm0OPOz08pq+QlmFXGYuEpaK+iPQdGNOk0jW8Ntv8AC2kMepsoSf8AvgVqisnwz/yKmjf9eMH/AKAta1feLY8oKKKKYBRRRQAUUUUAFFFFABRRRQAUUUUAFFFFABRRRQAUUUUAFFFFABRRRQAUUUUAFFFFABRRRQAUUUUAFFFFABSYpaKAGFc5ya43xkpXWtHcH/llcr+flkfyrtO9ch414utHb1klXP1Qn+lcePX+yz9GbYd/vYnLHSrEsSbZcMdxTJ2E5zkrnaTnqcc1aeCKdQk0aSJkHa6gjOeuDTqUdR9a/PnWqPdnv8sVeyNgKqqFUBQOAAOB9B0p1JS1zPcxStsJz60UtIelCGUNWuZLD+z7yGNJJYL1Cqs5UEskiEEgHAw3pTLrWNavwVlvVtYyMGOzXaT7F2yfxAB9KXXR/wAS+I9xdwEf994/rVbt9BXsQx1ejhIQpuydzCOHhOblJbGhZ2cFpGfJjCl8F2OSzn1YnJJ9zk1a4x6/WkXhQPQCnV5M5ynLmk7s1SS2D8alibZDdN2WBj+lRU2d/K0jU5T0S0kY8+ik10YFXxEPUzrfAzofDy7PDOlKeos4h+SCtOqunR+VpdpF/chRfyUCrVfpaPFCiiimAUUUUAFFFFABRRRQAUUUUAFFFFABRRRQAUUUUAFFFFABRRRQAUUUUAFFFFABRRRQAUUUUAFFFFABRRRQAUUUUAJXJeOB8ujt6XpH5wyf4V1tct44H+i6UfTUF/8ARUg/rXNjFfDzXk/yNKP8SPqc5QDg59DRSetfm59F0NsUtIORS1k9zEKTqKWil6AZeuk/Ybdf715CP1J/pUAOfx/+tU+uEeTYL3N8v5CKQ/0FQoPmUe4Fd1T+DBev5hR3kbI6UtA6UVxPcA7VW1YH/hGNZx1a0dB9SCB/OrPaor9Q+kSRf897m2ix67pkB/Q13ZZG+KgvMwxH8NnaqAihR0ApwpBSiv0g8YKKKKACiiigAooooAKKKKACiiigAooooAKKKKACiiigAooooAKKKKACiiigAooooAKKKKACiiigAooooAKKKKACiiigBDXMeNh/xLrBvS+j/wDQWH9a6eub8aj/AIk9sfS9i/Ukf1rDE/wJ+jLpfGjl6Tsfelo6V+bM+i6GypyoPsKdTU/1a/QU6sXuZBRmikpegGTrJzdaahGR5ksmPomP/ZqbGMyoP9ofzo1Ri2s2ado7aVz/AMCdAP8A0E06EZnQf7QH5c13YjSEEuwUtpM1xQDQKBXCAholXzG0mHH+u1FD/wB8K0n80pe9SQJ5uvaLF/zzS4ucehAWP/2oa9fI4OeLWmxy4p2pnWilFIOnNLX36PJCiiimAUUUUAFFFFABRRRQAUUUUAFFFFABRRRQAUUUUAFFFFABRRRQAUUUUAFFFFABRRRQAUUUUAFFFFABRRRQAUUUUAJXN+NeNBiPpdwf+jAP610neub8b/8AIvp/192//oxawxP8Gfoy6b99HL0HvRSe1fmz3PozaT/Vr9BTqZHzEp9hT6x6sxCk6gilpPU0IDEvCJNfmPaK0ijPsS0jH9CKmtRm6T65/Q1VLGTVtUfIx56xj22xoCPzJq5ZjN0PYGu3FaTt2S/IKStTuag4pKWkrhWoCHI7Ve0pN/iqc9Ra2EaA+hkdiR+Uan8aqxrulRfUgfrWh4dHm3es3Z6SXnlJ/uxoq/8AoW+vpeHKd6sp9jgxsvdSN8DilpBS19kecFFFFABRRRQAUUUUAFFFFABRRRQAUUUUAFFFFABRRRQAUUUUAFFFFABRRRQAUUUUAFFFFABRRRQAUUUUAFFFFABRRRQAlc34150KMet5B/6MBrpK5TxtcILbT7PrLLciQL6IgJZj7AlR9WFc+Kko0Jt9mXSV5o57OeQOMZ/z/n1pOf0qvcMTd2sW4hSzM2D12jgfTJB/CrIBPAGSeAK/Opw5Un3PolK9zYiOYUP+yP5U+mRjbGq9wAP0p9cz3MgoAyQPU4/OimSymCJ5RG0hQFgiDLEjsB3NVSjzTS8yZOyOfsm85Jph0nuZpAfUGRsH8gKt6NK1zGJ2ABYEqB2BJx+gBrO0hkGmwQq2ZIUWOVOjI4AyCDyDnPWtnSbYW1mqK24c7TjGBk4H4DArtxbXNNPe+np/Vhw0grPoaFJjNFAFeetBktuypKGIGQCVBOMkZwM9uvWrfhGeJtFWAsBeI7vdQnh45HZnYEfVjg9CMEEgis/GOR3qCa2jmljm3yQXUQxFdQ4EkYPYEghlzyVIIPpXuZPmVPCPlqLR9TjxNBz1idxmlFc7pmtS/aY9P1RUFxID5FzGCI7jAyQAfuuByVPUAkE4IHRDpX29OpGpHmi7pnmNNaMWiiitBBRRRQAUUUUAFFFFABRRRQAUUUUAFFFFABRRRQAUUUUAFFFFABRRRQAUUUUAFFFFABRRRQAUUUUAFFFFABRRRQAlcJ4p3jxWm7Ow2I8r6iQ7se/Mf6e1d3WB4l0Z9Wt45bVkW+tSWhLkhWB+8jY6AjHPOCAcHGDyY6jKth5U47s1ozUJqTOOkhWUxsWKtG25WU4IOMH8CMgj3NX7GIMxkI6HA/xrPjnLTPbyxSW92gzJbzDDr7+jDP8AEMg9j1xpWMqgNGTznIHrX57XhUpvkmj3bqS5ovcu9qUdKB9RRXL6khSY5pTxSA846etNeQuhSvtOhv8A5w/k3iAiK5UZZfZhxuU91J+mCARBpV05EtvcJ5NzE5WSMHIDAA8HHKkEEHuDzzmrzXdsk5t2uIlmGD5ZcBuehx15+mOlZd1YanJqj3kAsmUxCMgu0bMAxKknaQCMsPfI6AV30r1abp1N+j/QyvyvTY2j+dBOB7+lULLUVuEdZkaGaJzHKj4yrDBwSODkEEEZBBBB5q8GBPykEj05+lccqbg7SWxonfYBnv646ijJ9OPfj+dUW0mLe8kFzdWzsSf3cpZc8nOxsqQe4AGfrzUdqiarp8TXaAzRsys8TMhDKxUlSCCAcdM4xgH32VGDXOpXRHM9S9OkFzGbO4kCiXlSGAZWUgh1J5BU4OexxnitHT/FNslrDDqzTW16p8qZ5LaRYi4JXcJNu3DEZBz0IrlY57KXTbuLU51mt7WdkSZ2w5AAwQRghgSVyMHIPqalt4NevtFXT5NIuFuZ4fLkmuSixqCCNzYOScHJAGc8YAr6HKalegnThFyV/wCrHHXjGTu2elg5HFKKgtovJtootzNsQLubqccZPvU4r6tX6nAFFFFMAooooAKKKKACiiigAooooAKKKKACiiigAooooAKKKKACiiigAooooAKKKKACiiigAooooAKKKKACiiigAppXJNOooAy9V0Sy1m3Ed3Gd6EmKZDtkiPqrdR/I9wRXG32k6po7EyxPe2wORc2yEuo/24xzn3XI74A4HouKjkhSZGVwGUjBBrjxWCo4qNqiNaVadN+69Dz2y1eC4T5J45lHBKMCR9R1/OtBLiJ5fLV1L7QwXvjPXH+etdNeaJpeosGvtOtLlh0aaFWI+hIrJvPBWlSIr6dDFp10hO2aCIcg9VYfxL0OMgggYIrwKvDS1cJ+h1rGp7o524mudLlM7SefYNIAwbh4dxABBHDLkjIOCMk5IGKlu7El3ura+mtZACSQwaM8dSp4xx1GD7itWPwbJclY9Z1Fb20Ug/Z47fylkI6byWYkA8gAjnrkcVKvgew3hJb3UJrUf8uskoKEehONxHsW575pQyPENJtpPr6BLFQVzDsmtNd0e1u7i3t5hLEshUqGUEjnAIPfI5Hb2qrpt7Y2cd9G15Gtrb3DJFvkyFUKpK5J4AYsAOwAA6DHX3Hg/R7i4ebyZomkbdIsE8kaue5KqQAT3IwT161cg0HSbZomh0y0RoQFR/KUsB/vYz+tbxyG6lGU/d6EvGLojkbDR7TUhc6teR3kH2qQfZ5IpDGzRqqgMVJwQTkjIJwAc81ZfwwBi40i7uVuVGHF47SpKOwO0koRzggcgnIPGOwuLNLjaWLDbnGPeohpcIOSzNjsQP8ACvaWCoKn7NxvpY5vbTvdM5OPSPEU+IpZLO0RuGmQySsB7KUUZ9ycd8Grdv4K02FUgF9qxtxkeSZCqknqSwUMMnJ4IHJ7V0y2VumcRA57Nlv51J9ni5/dpyeflFTRy/DUk1CCCdact2Zlt4c0KxnjlttKsYZowNjrCoYdhg46+/WtVcEZBGPb86ztX0G01uGOG6aZFjOQYX2n6Z9Kt2NjFp9qtvCWKAkjccnkk9a7EkjK7e5ZA4pRRRTAKKKKACiiigAooooAKKKKACiiigAooooAKKKKACiiigAooooAKKKKACiiigAooooAKKKKACiiigAooooAKKKKACiiigAooooAKKKKACiiigAooooAKKKKACiiigAooooAKKKKACiiigAooooAKKKKACiiigAooooAKKKKACiiigAooooA/9k=;" parent="1" vertex="1">
          <mxGeometry x="80" y="280" width="400" height="400" as="geometry" />
        </mxCell>
        <mxCell id="K_Xv337eBhNjlKm5L6lM-2" value="Valutazione sistema iniziale&amp;nbsp;&lt;i&gt;(&amp;lt; 0,5)&lt;/i&gt;" style="text;html=1;align=center;verticalAlign=middle;whiteSpace=wrap;rounded=0;fontSize=24;fontStyle=1" parent="1" vertex="1">
          <mxGeometry x="80" y="100" width="400" height="30" as="geometry" />
        </mxCell>
        <mxCell id="K_Xv337eBhNjlKm5L6lM-4" value="" style="html=1;shadow=0;dashed=0;align=center;verticalAlign=middle;shape=mxgraph.arrows2.arrow;dy=0.6;dx=40;direction=south;notch=0;strokeColor=none;fillColor=#FF0000;" parent="1" vertex="1">
          <mxGeometry x="210" y="140" width="130" height="130" as="geometry" />
        </mxCell>
        <mxCell id="K_Xv337eBhNjlKm5L6lM-5" value="Valutazione sistema desiderata&amp;nbsp;&lt;i&gt;(&amp;gt; 0,9)&lt;/i&gt;" style="text;html=1;align=center;verticalAlign=middle;whiteSpace=wrap;rounded=0;fontSize=24;fontStyle=1" parent="1" vertex="1">
          <mxGeometry x="930" y="100" width="510" height="30" as="geometry" />
        </mxCell>
        <mxCell id="K_Xv337eBhNjlKm5L6lM-6" value="" style="html=1;shadow=0;dashed=0;align=center;verticalAlign=middle;shape=mxgraph.arrows2.arrow;dy=0.6;dx=40;direction=south;notch=0;strokeColor=#2D7600;fillColor=#60a917;fontColor=#ffffff;" parent="1" vertex="1">
          <mxGeometry x="1120" y="130" width="130" height="130" as="geometry" />
        </mxCell>
        <mxCell id="K_Xv337eBhNjlKm5L6lM-7" value="" style="shape=image;verticalLabelPosition=bottom;labelBackgroundColor=default;verticalAlign=top;aspect=fixed;imageAspect=0;image=data:image/jpeg,/9j/4AAQSkZJRgABAQAAAQABAAD/2wCEAAIBAQEBAQIBAQECAgICAgQDAgICAgUEBAMEBgUGBgYFBgYGBwkIBgcJBwYGCAsICQoKCgoKBggLDAsKDAkKCgoBAgICAgICBQMDBQoHBgcKCgoKCgoKCgoKCgoKCgoKCgoKCgoKCgoKCgoKCgoKCgoKCgoKCgoKCgoKCgoKCgoKCv/CABEIAlgCWAMBIgACEQEDEQH/xAAeAAEAAQQDAQEAAAAAAAAAAAAABwEGCAkCBAUDCv/aAAgBAQAAAADf4AAAAAAAAAAAAAAAAAAAAAAAAAAAAAAAAAAAAAAAAAAAAAAAAAAAAAAAAAAAAAAAAAAAHG3oo8bvyxdPMAAAAAAAAAADq4+2vhfCkm5w3hkL3AAAAAAAAAAApjrjBhDO3CYMRcwcpsh6gAAAAAAAAAHyhON9E3r4OXb52wDG79HdxTf9wAAAAAAAAAOvjnFWpLKHNP1ONWJGGG1Wa8jewAAAAAAAAAHHHzHHXXtWqBXVDsfySnwAAAAAAAAALPx20+7beIBy1AbscgvaAAAAAAAAAKYy6v8AOS5qgrxrXHrxM78gAAAAAAAAADpY8aSdvStADnq02/5MVAAAAAAAAAWthRgHssrQVoDUnusyI7AAAAAAAAACPNc9iZjClSlRqB3gT76IAAAAAAAADHTAe8chPHp7PEPpb3qdrTFuuyVukAAAAAAAADjjtpYy3xhvX049yMy3VwXjC6fNs+Zb6z/yBAAAAAAAAA44yaCdlu2bD3Kj2tSXRyrwIy02JxZbE5/nklPZpk2AAAAAAAAB88ZtRf6Efl+JP9J+yJ+fHaFrN3/NCOJ36n7b0XbWcnAAAAAAAAAOhA2mT9Ebz/QPzsbDsHt/Tj8ew/Plt6yTAAAAAAAAA6uP+nv9BwRj+czJSHNxOY44/n6255KAAAAAAAAAUxl1lblr6Gh3P/0+eq79Dww5xrzcn4AefZPr3ZzAAAAAADhjZ0/zk/pzmV5H5et6Px5aCN7+bFcFfzz/AKlPDyR+4CxYdx1le7chvcAAAAUtKJ/VmPvAEaQVp7hDL6z/AD9TlzbB7/t6IcI82pjzDxS8LavkrMoFuY/aXpMwo2X5/wA4XkAAAD5w1G+uLIzJvIn3gGOGpvr5ZT1jxrjy3niltXHX4YGS1sWw+iW2dwGSAPGxn1pSNmRqtyhx62v5R/QAAAfHHyNtBu23DaQtmmTPogY4aqYw8PLzFvPTirSqjHazcXs9OhsvyODrYya3fjmhrVi/bj+bb9QeSl7gAACMcZdG0rbi2sDJnNbJn7gsfHHTZjvlDn0qoBiDrXzy3CSXdN4ek+UCY0a+M1MLtm+rzvyBOWfc1gAAFMVdYGWeOON9/wCxfT3uRnec/ty6kUWzecZ/D8+O3FStFShywM3Pxh4Xnz97PmdCwtCG/b7Ux9xlzD09b9cibwAAAPHx2/ORm15eze1IlnPRzv5ubh87fg3GDJeU8W9Z+3GlaFaA1XXjiTZXYnTdhjtglix7P6Xfny1Ebd9Yk0bA8mvoAAAWhhzqTzwwuynzMo1qafZRl6dfOwcv2EvptwgjZ0qPh9q0rRrSgaLL+hv2e3JtycYr3gZK9jWfsw/P5+inIn2gAAB5+Pv56drOQOKkL7Ea69NctxOVpxr691xpml5m0ug1Was9tWzWtFdY9qRVGcue2Fbc383XyhvCbbjk0AAACJ4y0XbEMltT+2Hq/np96jjyQdf0WfbL3ajxK6G8NsvN99TjgTGkFxTkCB8LGzpvnVj+qaz5DmK4OYAABSNop/PDvtsG/wDSZDXrFaOlBF0eZmjJeb9aLEw3zGv6hg/sA1e41RpO1OXGtKnSinq/DMbYdmd9JIlH7gAAKY64eYd7DdI9ne4FKcsf5TsHI7NDv5FVYrYmydsO41hazdiGofB/uSU48uPIVxQvO6rmtjxM/do8rzFIHIAADz8UMRNDuRHIAjLh3I8/UfrW4ZYqFaRVi7tv46mNckwXAAR35dwWnbf1kjtRhsF3JXRkH6AAALJgHVtqLmu9KVFKqY8+lb36evfw/wAJcsJ4+XLwcLJB2SGpjWnkP2hSp4cMyqU4xn95I+Fo7x8xMgboAAKR7DmkTDq54Znb3qAVgfzvj+iSbafLCrHHzKXtsCkRWmpzWbkT2gpXy4MluhSrzI1k7v2NtJ2lTVfYACw4R0Q40XDHVfOl64wPFx+8H6/oPyn5cQrR9bOxG1e2bK6M5N41eBC0tK05UpVWI5E9e3Myt1s430ADysbtJGHtwxbefvVjO95BAcvEjXy5EvW5/X7tOn0bOjK2JDvGikDzxWsaWfJ1AoqVhqWe34eW276TJZ5AHXxjwV0p35FF/wDriz/Amr0hSpWlfB7fo/Wlfl8vpyFK2d53vQ/d90AB53gbQsKYt9bxZM/QDeORHpgcceoI/NxI8VX764pXhGHYlC6KArCsc3Rytb6+35lxdKaripUritIF+cagC0sj99/j+1pLwLkrlZu9vOCfwIqhv8v99xNIHsKKqVpWxYplSaSnKIZF7dgT/n9aOuWBZEtvxJZvMLRsO/VKleNSN9ru0eVZMsaHIrxPg639keR+QII6hv8AP7EMdX16oAeH0pWCyIX2bYZRl+lm7HR/PTG0cbldP2SPdVoguQftStKqVpYm7HNzIm5T4WXGHS+vrzd3RxiuKtBcEWpLvlQ16cjfWoEQ5EcwY99WY/nZ0uV9m87o2Ha3cJ57B04KlQBG29HMfJn1wAHnwB4P59Yi8f8ARHLPssf9e+uO/eNRSM56CtPCiq8vp6NaUeF048yH9FStKoClGgUsDcHsQyW9YABZ0JYn6Oer3/0IzVkZz86PItjjQXbPc5ca2LfF3hSqyYlzx9W0OHytKGPNvG9VQRb9/eKVjjfplNkj7YABAeDWnGWM89gNyzv9x8oRsv8APlEHqUrDeSfECiwYs7/azVkOFsTr0kigC2Y0kRWyZz3lytkf6IAAsWKnCs1XNUFIti/89sT96kNZKUca1pVSsf2TPc3wNCN4yEClS2sd/dvTKrZxlndkz/YAAFONeQApFcYfnIs7uw1knQALLi/YJgFIt8AHHlE28nK26Oncsx+iAAAAAKQ/HWivDq38j+NaUVoqLahmWbxqArSvV/R5OXv9zkAAAAABSM4txm05WNdgAFaAAi/fHl3kIAAAAAADzYMsz8y8nBSpWgAUqWTsK2tZKegAAAAAABxxn15aqLsBSoAAirPzb5kRc4AAAAAAB4uPOinH65T4fcABZ942jENufqtyVv4AAAAAAAI3iXTTrtli4YDky7lVKg6GP3ZzphGItoW1vJf7gAAAAAAAsrHrXRpx+M43jjzc0genxUrSwPpsT1jXh6MN+T+sTIG6AAAAAAAAHhY6aKcIL+sP38sJbjiGrVvKUYV2cfbA+CLV6UqZ+7XsnqgAAAAAAAEZ41fmk+/hcO3S7PflTKWGcGPr6HmdiSrvjr9NE8XsAAAAAAAAPnjDqNwm9vrR3a/mXrdHU+sa/K8pNqjTerlvkfyAAAAAAAACz4O/Oz532OMbWd4PoTv6vGtLdzd22ZOd8AAAAAAAAFIbij80shfL4Rb5cgdW3/Htq8+UnTbvVyBucAAAAAAAABwgKK/zsxEu+57OjS6ZWp5Hhz7+hKYpBAAAAAAAAAHygqxvzieH2y1vld1Opdv6OpOlWoAAAAAAAAAUhyMfzmeNRbtvyEiX9VMkTPUAAAAAAAAACmMWurU5662fOvdJ36G8kfqAAAAAAAAAAWNi7+YGWaxfcl2Rz+hzKufgAAAAAAAAAB8cZtQ+uHv5R2dijuf2P5K98AAAAAAAAAALTgvFG2cwfV7nWnq4QAAAAAAAAAAPNifpyx6vX73MAAAAAAAAAAAAAAAAAAAAAAAAAAAAAAAAAAAAAAAAAAAAAAAAAAAAAAAAAAAAAAAAAAAB/8QAHQEBAAEEAwEAAAAAAAAAAAAAAAcEBQYIAQIDCf/aAAgBAhAAAAAAAAAAAAAAAAAAAAAAAAAAO/fr04AAAAALPq5F9dsfN/AAAAAGK/J3AeeOPoDuUAAAAB89NQeHHN1+1NYAAAAHPyBjLngfXCWgAAAAtnzUmWCIEyjbWz7ET8AAAAHl6e3j8pfoLLHPnyAAAAHfoaYbTZS79AAAAA7c9KT4ibXfRlz1BzwAAduOAijR7YeZ4RyPKtJ5E3+5EUakbdymABj2iOQb49REUL5fQhztJwYH86s7ve/vUAGpsA4DubtFxz24hfAQbGXHrV5J889Gp/2F3HABzobD8Z5Z98qHBIci3viqRcPtTMpD2ry276ZfEnOfsJ7AAefy0wf6M/S41yieDKNM0f4zWw99ANuDjWyFM4qeoAGA0v0D9TEtOtRpE75HbqOEYy+ymwopNOrF7XK7cABS5DtJ6jTzSjS3auTaaB9apr+1s5HTWKI3vUdMoqAClxb1kfZyrecea76fYDjFPl8q7a7bW6/0WtEThcqHLKwDzxPikZPsHJnsWSJqjv453mjwiCCseC65NR41f7r1DGKWkCVtlbjTaEvnPX/RGxbrZ8ibV3gX3Iert07cDHr3xQWDwNs5JNZoft1ltNg+muSOumOJl9yDgAt1f2OuL224by+5TaZxJGcx7lycNdoM9Miu/AAAYpcd2go9SNed/JNCCIqreAAAFLuH7h44pmIUerdvAAACdJMACi19w4AAAFROUg2i+B0jiILX14AAAA7UEdSl1ljHo51jnGXbdbwAAADIpjj+N4pwvYeUJUwuFQAAAAk6cbZitv8AbIabXTyAAAADm7xzS3WzXXLvAAAAABZMeuFvzb2AAAAAPLEMgp77wAAAAAO3UAAAAAAAAAAAAAAAAAAAAAB//8QAHQEBAAEEAwEAAAAAAAAAAAAAAAcFBggJAgMEAf/aAAgBAxAAAAAAAAAAAAAAAAAAAAAAAAAAH18AAAAAHfd1X6rXoAAAAAD2TDUz5HFjgAAAASVewdEFdYAAAAJpq30IYowAAAAd0oUW4bj8dm99sW6AAAAHPj8+y9HFHcuIAAAAffhfNpeMAAAAAO2eLQjF9+AAAABWL9t7hXOFJuSlx7xFZvGzaOAB6pA6I8CtXFW/SKbbtqfCoyV4PNHgAF43DUrJtEL/ALhBGV8+qKbaliTbYt2yAAJDrFY8WB9QyC2OY0x1V1uVj1qHnrpdjCh5EZkU+FuAAHKW/dj5iGbHsq8SrgWZcFT8/jmLT6cpmyl74/AAVKyMVukkbejg7TajTfT3dPps/X2PfualShQhjZ5QAlu4tWnSNvPXatvdD3XFQIgwqOzaHsFW5aNTwRjMAmHOWk4patvC7ZnlO7rhqvdQ7TiOC6pbVS2fZ9/T5EkkYBwuBeewnnfKAtYmOXQXblP5emowLEj05TbMJtCEsFZOzUxOxtCoZ+3lfI+a8tatL9WxvLPGX1znGevuE2U+6LmMYsJ+D7VaSPfmzi5zlrLG5XHRpABsK2YxTRLfinXNYjlu6yQMZcIvgCuznB1AK3n/AC9G2gXzHs2GyjaE3a6MbRsU2cUnEPFr4AAKhsStXRmHv2I31hnjiGVmQ0Y08AAD2zPq/wDOHokmLg9+W/uAAACBImACoZJ3iAAADpgOM65boc5SvnLaDwAAADJvrhCBLS912zXldidaXqAAAALeizI+aZi6bIxnxOu+cQAAAAi7H6sXpWffH/PJfsAAAABV9kN0w1PcJ68OwAAAABmJlpF0o6yI+AAAAAL82J4sXNhiAAAAAAAAAAAAAAAAAAAAAAAAAAAA/8QAQRAAAAYBAgQDBgUCBQMCBwAAAQIDBAUGBwARCBITFBUhMBAgIiMxUBYkMjNAF0I0UWBhcSU1QUOAGCYnUlVWgf/aAAgBAQABDAL/ANy4iAfXTmUaNQ3UVDTu+RSBuQioGH8cLG+IkW6EEL9HCfpuB6ZmkyydhumqGgEB+g/6EVVKiXmMOpCwvZF4MVAodZWVjqzWmXjORLOkUkvxZYfrI9tWIdy+0fjeAVBFtjY4pxPGJjWbMDW01d40LBpUa7MfGMdWVPTKbkoZ4WMsCXIZFYqxOco/6CHy89WF+8kXxIGKN83L2W4PBkAnCwbcjqZqfDpfMsPC3fNljdIg7nOFHD6nhqMYyePEOLnDiSgtSVeRTRh7Nw35r2jRYRijq9cN9nxs5G+YMnHhVMN5eh84V9WAsDcjeZrb50xeKwMkfdX/AEAc5SBuYdT9tax5eimInUavApNblMhXAvRHFt4pMrkKTzFmOcT6+VuJC45PE9Zx9GvGcczw7lB+iC7akPuUmBMtHLzfhBQNDhHLbcwKBS3e9K4jcpY0QJDZLqb180m8p1RlmxjlPH6TlqhPMXM72dwp7pFyELbE3B+yeEMiuRQqgblH78ooVMvMbUpMP5d94LBF5lLleKBg6L8Qn3QuJGWXzJxMGKq8KnDV2scPGN68Qqj1ieUXZMmUYgDWMZItkhER+o+03zCCmp8RbZhDHVtKY6sKDFwk1zRw5nF9WZDxiv0PJNDztFczJQWcrFyshCv/AASc2501AULzF++CO3nqzS7pVYkNFBzOMp5KgsC1EE2wFdS+O8Rytwkv6m5hUO8cgAAAEKAAHoZRxLIVd+GUMTmOzdYuyJEZ4pHMtyt5eqzC5ueMkS8jj73MvyMGZlTG200lI6p1p/kqzH5SYxg5PMV1dZmviXOgIiI7j6QCIDuGrgi4wFlhjkmupGLE2MW5VGV1iVSnQYOActiqB97s4nmZVvX0h8uKmyPLDPw2Eq2bYYWGYV2HbQEYnyoenlWqBc6DIQpU91uFuzhecSL1GQPzK0Z8ooy7Rx+595cH6aJjaq4FdTj+dcG2JiZY+Rs4T2SXHxp+oUeUd9YJU/AXEbNUgDcrdqHht0dtvoX7zMn6bA5tWSSWgcGz00ht1OFqLBpQ3cn/AHerkBQ1c4l61PE8gs5RbWtg7ANJDumA/ebMp04w46zYqdpwzuuQdtYAa9riWM9bieEWtgrEiAbauihTuIpyT6NR3blH7ze3qvaAwaBzLcV0g0reGWtUOsArYnYLxeM4Rk6SFNQAEfoGnMhHMjcj2SbIi2kY16bkZybZYRAS/qDb3gKY36S6WlYlsbpuZhomZuug7Lzs3Kawa4s3pe5g2BRDmmXRJOjw1kZKdVKIcFcMiHKP3gfppoTvrqAqfS7uC5Y4nQrkx5x2R8v1jHJe1c/m5JtTOJbLxe9evQrka04JU1TAtOZFWUO74JYwhupDZCdomeUHiSxGn30PLBYo7GuYq7kYBYlILGT9n18ttZFzjE1F7+G64xGXmW2GuIbKBO8u9tCFaocEMf8AV9kRwcVuDGZi/wAzVcnnSXdzOf8AC3zr9E+OxE8hR8/0FZWFclM64SrYFsxs6pUr8Z6Ksr2gs1h+L7uP00DoI29IFMPw56cS2Ls9vLDWzARbAmA0a6iS/wCQEReT+rdnjF1InS1yfshSOo+QYyzJKSjHaa7fWf8ABBZwhsjY+SFpP4gyOTI9X7x1ylkdZvyNJVtu2pdRKY81g3A0RjCOLMSyZHU9q3XWr0SK8Ztcwmzb0jJtHyMiqrT59N2KiaayZkVkwOTPeIJPFLw2UMVLqsmnBLDJJQU5ZBU+PHy3dpKvPvBh2KI6ZoeK3gFxD4Eu3y/xbnBwUqjHRgMJRAhthyXTrXTrg8jrY1V7jhXrlprWLCNrOkoj7XLNHF/FEtEMvgYlLzGAu+sDpJZGz9PXt8XqE9nGhU7RIKRdoZNlV43hJrtqd5OSsMY3VJH6mIplOxLmFkkQUb8Jz1eo3+y4sfm+KsJBETjyHANi/d3PkgbVNH83KuR+vCByyOTLJNLF+b7FmrZwYhnDchx9vFIonF5yrksDgCC6u9LR6m1xit+CVymLyzICf4/YIAIbDpNJJEnTRTApfZTykT40JEqP0N5X1flH7wuHMkYNVMe3n5FibXDiU1Rz/Zqa8ApDe7cbbDUaturRPuOm2/Clx4l7OrkGfUJFRiPC7jojfpKv5NQ77D95xA7NecS2VVccLZejMu1nxFJIG7/3BHbzHXDumNw4grPeDFAU4387cn7oPp94mh8BsLecH9riHhpLG2SIjPVcbCZKtWOIt0E1scE6BZr7nFzLOp21VvGLdwJE2UeziGSMTHogmhooiUdw1SF08b8VKsM0HpsvcztkFtjrHL6T6wA74Z6gXG+JlLTME5HFHYqJMu6cfueks5RQDc59K2eLRNymcF02mmLr9tYNFMBg3D7UI7BuOrrKNDthYlTFVWNrL60Y8XqF6YbFxPmewYNsLuvOyGfRVLyBUMgxoSlTmknRPY+fsYtod/JPEm6OYMn1q2Z3irLAyHOwOICYRKO4ezLd4LB57Ts0QUjg9A4h8Z31smBJxKPeoumznzbuCH0u5bti87lwRMMgcR+MqIgoQswSTe2m7WLK2SotzkYws2VkhC3CBRa12aQTRhZZ7DrFhptt0lU1AULzB6MzMtopuZZZQA01jJWzB4hKODtGcvmDh4qroY13NtVla0/xtkNqd9jywpdWNtasW9GFny9Jds/bug3TOA/zH8w0YEEyygBobwmqb8k1VWBjdWLhXoKjyHRcJrl5iG9KyypYxgdYR1KzUPi2nOr/AGrcy/424jM4ApI1p2EJFYmiJKm5cVpd/hyqDPcOcenI+O44sjmDeELxd1j4GVi8RJI3fi+M0Oo5R7RKz3i5XBX/AOaLO8f6g8W32xJdxHVtfpV/I+WMURaUVdKepIMA4sq3yfFTnnM6zlkK/ENEY1ph2uj8NcotH9dW2IjIWagWemOSlskUoRCm4Sj7gy8VoWV/InC5JPVg/EGRzrJ07CGPaYcrprFi9dX3FNyyxk9y6kg8NiZXD18xC1NcMX3R2ccZ3xpnLHXiRkiISVQlDP2BQV8j+/Iv0mKAqqG21Dsxs7wZ+U8mOaM1WHLdjDF+LjqCwq/DDSo5iH4qcLyLrIFek+H2+MLHRJdUidW4ssb29NOMyDBGj1V4wkYzLYao87hlDSSck1Ksmbf+SYwF8xHVhtDeOT6aY86jppDwMce2ZJlEUUrNxpwMc5FnTaco7Qx5xAY4zAYtfmmXh0ksEnTHACsqZdgxfJPEgUTNv6Ns/MSrFkf9PGRJO5Kw1ujpKbJZUyDdsSSDBtB1lkFeplnqmSoxrbo1qmZfWQcm1jHDHrzK/UcqxmUc3mK+tDzwaDq+NaZUCgaKhiHWMIm8zDvrf/xo8NDKLg6UhmhlC7FJ0yFApdKppOETN3CRVE7Phk7N5+J8XSB4uRxtnAZWQ/BmRWwR0yICHkOsy5QJjWAILECKSfDYrNzkK/s89Z3L4eEByoyyFZ4FAB7etfKn5BuT9PvPHibRIVDm0RF3eXwl3EkdxIZmUcG/ozjbdVfDuKGmNojrvAIpLayZHNsiZwhaIv8AMa23CtDtMMeNaV5qwccH1/eNJV9iqbdbkhlDV2wrwK3kmUQMG4fxzmAhdx1KTD+Tf+CwheZWfmseYlR/EF0nymeTtptXE5ktCJ6xmkbAYmx1XGIMWdUaraynw7R0igpP47b9q94euIFaRWLi7JyoivyOKVKFbGMYzBs4I4TA5B9C68zVZvKBrjJiHbV3Xb+zJzJ8Q7R3cUak/i+ZWPiWKWDs5J1xouoELlvLTPHDMI9gmVzM0LFbpR+N6yWcX0sIiYdxH0ciY4icgx/Ktsg/xDk+UbSf9LMjmFKTlIFfPOYphom+Mg1x9BjhHFzp1ZnafV4OK46RiJnIcmHKFLKZ0ovKmD3lVATJzDp2Lm2y4xLdQxW3EJnVxAK/0mxhuDzCuHUqG1Cw2FMFJqcnYasxp5ifkkmjZbJ+T8ovVY/EMP2LDEjaYx7mVeFyCQfELJOtqvX3tidm2IyiMgUZvGZhbN+iRhYY/JmO2OQIgvKtAvO9YEV3/j2mRCOjjq76uVwaYbxkva3aQKvqBiywZreuL/fZ1wDenVNvh7PDaD7pRZn7M84c/ECJ7xVG20jw+ZhY5YrhqFc1gNLRTt9W5LwKVPzAmcFC8we/PR5JBidExdLQUXkGmvcbWgB5ou127h2kTUHI8Mq9is75KrN8ew8jVVl+fE9JfO1xyfd1DOpT08v49C4wvisYntKYjyobGj1+5GDNIHZUbMfETJoOLS0PBV2T8Ir8Q3x1VkiopR0pFRDUqHVKGkbLGLDsVcuknaC37Zw9pjlL9R1cLGkyadFubmVy1eEsJYxMo1UKMtw7417Rr/UqxkFV9kd1fmtd/wDpzGJuX8HgexWaQJYMyWhV8oxYsoxmnHRrRNu34hzFWt9SZR4CMhmyUfZAurLDFZV8uIjw6GxCEO3AEycLKKrTBCrhz5EoxTlhUuf+N9NXZyL522hm/wAR+N6WIVnAQBFPPHKTFDH0KlGG3Q4iIVJxSCWpFyDd7HZ1zDaY4F6vjci4w/Eh4a5CHybUHUY5gbFB2ViEtXJZF2jnKhP6FYUcqUc5mpMdXZhnHHJJRPkSkqjYSPGvRcjyKgqmb6HDW4f5+xVZNEOY5tP7lFsjdMy5dwv8eA/N5ig2tkS7JuVwUQn0mqhwlI150nEJLROTGDqv2atpOCXelUyX4gPwRS4orWP8v7Q2D0wESjuGsbdjjniZNFqJkK0vMhfSrkiqlFAJIDGthD45mUIgFivuCaCr2E7PNVHMTkvh5tA9JlZWCKh6+/j0AkqxJi7RjLtHrobrKcpl72isfoRaCjk/b3aa/wDRIyTsEjjjFpAn7zYiHdXa9m4hcvxbXt1W8aRJJBMqDdMCJ+zI2R4PG0L4lKfNXxTSLDN2IcxZGD8/W6PAViRkJWJbGF1nO0r5MvbHH9S/MkPCNqPjuOocbsIwjXtWJE9v4z5boNjH1CLMWLSQvkyoAJqNrhxPZCezRnCbRDFE3KY8nBwxeDlA2aBd2vI9cxe5MdKOatmzBqmxj25UELDW4C2MBjbJFJO0aXiim0F+tJVxByRWUi2E3GLw0qh1G1Es0jw2ZecRMwKikYgypF3cfiKo25Pqfhe2N/8ACz6CmuzvrcfJNsro81bGBd3lfXEGK8/dFxIRJVm0u+bsS4fcGh00zPpJrxtVpdYE5SgO00WOYOHOzEB6eaatVWZcSWoglgLwibWVM+0zFUCpUMcrJO5ThwaHfWCWn3ZhUV9XiQRVZP4SwMjikshxfZPhIfwCWr7NWTuWUMx3BwmwsVmclI2qMWkT8xzrGVqUMqGyaahNY3ypbsHyiYdc7+EUypw6TKZLY/sbEFLHxj0WEKZlSKuu91PcRecrsBkYg5IpunUFnzkZGySyrpeMBhS8gQU02L00T+Rh9gBuO2oNBC/8SEmtOpgugO4juOuITLCtXZ/gqvr8r/howq3osQGTrmUE30YRezzIzrlMSolLyl5Q/jTYCMefbVqaLyWBptizTEyvCbJNA8ZhxEAcZYx0nkSudu0OVKScxd4yNTWtg7Fw2t2Pc2Vq7csXJGCMl/oOw+3iapiUxUU7cgQO5i6cu7YJSTeU6Z2rjK0MqCsTdnwaYZn4iIb4U7I5XCO4vMrxO/4gqzF0F44xLZZIM0RW4IkOpHVlqkHdSP5lYWbMS8gs0trBXmrYAkGpBKnPV1gSP8Rii7BiHEePyVJO4IqeKOeGX/t8173+wa6qQq9AFic/vcTBy+CRKX92WmXb5MjU3CYablVc2Nw5VKPKIgUOYw7ByytsOfsVug0NTpBdv2rqwCYjehxiY7uXSqmmkRFsP8IwTKIjv9fZcI8X0OKqYfHiK4p3ehspMVQM50n+4XfWE6xYUbrZrnPxh2oJgAnAB1jyHSytxFiaT+c2tKis5Y0q6Uw9uyaJtEQTIX+O6S6yIk1X1iRcq4rr4A6WU8e2Th6yAlb6pzDGY7yRAZIiO/iT9NxuP+esg4eqOQiGcOW/aSOE7nYTSchi26LCrIeziWsicPjzwYh/nRDc7SKbtlP1ezcfpvp7BxMgH5piTdSBmogOpBvhXTiZhGUKYgpimschFUxSUDcsEbomXrzz4tcO1pPB2R5jORX2Q4eueKsE/W3A/M93NeWJVhKKUysuhb6By5Kv3RXBwUwjlWSmnoU6zOusr7uYkjWjJVcpSA7jxLJihlWPVL5EH66tDo6TAGSP7kaxJGME2Cfv1G2yOHrOMq0RMvEQc7EWaKSnIF8Rw10IiP11kG0t6ZTH9hXUADcFlRWUey1+eIDy1XaSl3k19S/yLFAJSiHl5HCRYTDRSm5AYpLJ5XwpaMFS5ch49kVTRuLslR2S4DxBEhUXmpkTVTiiaSSwiRD/AJ0ssi2RO5crFTSudpPle/nmS83hf1961NTsXKVkZl+JNQiyZVkh3LYN4+QazRA1YjOoxy0ssYqJF5iVb1nI8PlxqTlih/539z6azhVHcBdnEl0zC11hCAezN/aPG4CCPuGMRMoqqnApMMoK37J8tlJymPa8UyfTuUK50b9Q6RL4ncvi80/fVSSXSMgumByQy9xx5IGlqHJm5IDimiDB21xrLhovJcUOPmrcTxzGQdqXLJUvlaxNErK/Iwjq5C1o2Okq3jWabkZRcVcKi3Bv2RHiTK9sjKdu85kVG0o0chumqGgEB+g/x52AaSzUyaqQDqvqA7Tc0SzkBymu2e8OObzMVDnGMAxDAB0zgYs3Vq9Y1mjicik3BzGAAFRQ4AGXcrL394aiUlcfDGLJvGtSs2pdi+85bJvWyjNX9NVcKFSWinH659t3cOsn/wCWm0xWwTN5jhqHZ5OxLLY8kzgVTD1sfKEWx1aSmSlfcnmNcnEC1uxEbqgpw3U0XfVLMyJEq/XK/UWRIWDaJtie5mOxP1Um+NayXqydIqLGjVdrWWIgYOLBIfEq+420cwE3UHVHIKpXckf6+iu2bOg2dNk1NWlGNj4U/Rj0CnZV6OTjyN3bMhztIiWgHXiFSsTpitXuJzM1Q5UrCgjLt61xUYkuiRWVxYnjFmddgJlqErR7KHTF7bK//wByYddKJtkdJl+WsG5FCKBuUf41tj3DdVKajg+fxCYw/rDR29jqyQHk+HzKSckxTxzY1BTkLFY4Opxh5mxSJGre/ZWs2VjnhK+kePhI6OaxTUGjMmwehJgETbE3n0SEA/ScPKvMHEYRdssHw8PkqMLlh1BGHZPNWM5KWWSyLSTGTmsc5FjsgRfOHKjIe3JWL2l+Ik/bPRaSRGfEtCh4Y1dKuE6liKwOpxK4ZLnlHLsR3HcfbfLvG0KCNLPdjrYOo8ml18nXIomltcWRdmcEvqZX6UMurvqoodCAR9L/AG1Z5krmcTTIXqJJ26JOPzgVT0hLxbn9l+mOg/zDTuHjH3+IaF3jWViqrzxOl2VyyWqfFxfKwYjHIUCSSSq19xJmD46/LdvIqGslUHmdgLtpE2FjKJAoiqA6AQH6fxHCBXCYkMGnr5ehPTPUy9RlmnBUTkyO/qPjk4JTDZ/M3GwCleZR26WKBSFAhCgUvo25gL6GOcgfHEPe/jUnQj5vX7WOQ7h2rylr1gGKyRF2Qrc6JDfAfy1k/EEiaU/qJjA3bS+PMqxtxDwmWKVhMfQdh9+43KFo0QMtMreeOaBOZLniZRySls1Ed/MfZxZB/wBDhTatCgFgCgOolPoxTZL0rJLjGM+k383MNFkiWnT+qqrduuGy7dM+l63CuPqz5Nfh5+w+OGljBos+8Ym6U9HGJps6bPE+s1WKoUxSqE6ahQMV5VkBUB3ErmbLY34o7hSVU4LJjZWSYxZanfI8LVjmdR3j7M8jnQRdgbigsg4TXLzEN/Dl5ltGNzKqqAGm0OrbjeLWD5UbmPiecOFTUjDptgGsSKZfEiSRjPoOZSmWvU25VvaPvcpTBynDyrgCxevIU46kCouZ9m1ceYXTmKRs6Kb4op34hEtH/PzezJOGa5kMfESn7CUNcMoYkOWNyJCHk4+vZLo9nKXwywIlU5DbcwF3DQAI/pDUlJxkKj3ExIoNSTmb2i7vwLHMQtMP6VhSQey5bvlt938h7eLLfwOF1bf+yIBpEOVBMvoyMg2i2Znro3lDtnUi8GxyYfF7hgA5RIcoCDmuARXvIVcWyrSeFNXsZtHt1tKpJLpiiumByxZrRRpPx+gTS7VbE/EDV8soEp17aJMpdUkvS1eZVQzlhHSbd+iCiRwH+DNzrWJbGVVUANR8YaW3s1rMCLPOufZHJTxSiUBU6cRFRLWJQ6SAbm1OiMFIJTjAQKeNkW0s0B40N5ehsI/TUmHZ3NBTVmSFus1mEjfFdUTHZJLF/TjQ/Ux1BHEd/aommskZBZMp07Pw+42shjLoxykasrw73WHEfwblFUhPwBxMNg6KFyQOUMUcQUuf/rGQ0m4RPC/DmVK7uNueSB63UqzT2vZ1mFQaF9zix28ChS7+dxMmWLQR6gczc3M3TN6D162jmxnbtTlIgi5srsJWTJytvfds2r9HoO0QOXaRrXmUTOmTZyg8RBw1U5ial4NCT+embpOMH8SS7RUmPstr6fxDurKeLQW6rCGmm0o3KqioA+vOTCEU1MsqcA0zaNzNz3W5LlQa5qz1MZafHp9O6jeEjYxtFN+g39khNnK48NiEus4awCfU7yXV7pdyxcwS4y0EX4YuVaTDXuWpvQkGCUk37dY5i6eVOfRcleNXwOTT8jLuGoNXsQZHUvZGcjD9qRM4K4ps1ceY9hkG8606iQlXJ1W5yqFEDF/UHogQ5voUdSk/AQYc01OM2mrBxE4yhAErSRWkVMkXaezM+anbQoMWEVUI6PEFnI9wr7JWXXYTjJoA/K9ySk2kS2F08PtpFq8sbgsnMF5UPL6B6Txg5hFhlIYu6bF83kWwOmxvh1JxbWVQ6LgPPCnEHK41dJ0nIaqi8Q+ZkjyFt1UVKsxhpltKNiqpKAPqu3JGyQqHHUc3PcJgXrkN2HEpmRzfpz+m9Pcc0bGRyEW1Bsj5jp7IuZNwMTCm1HRrWLQ6LYvtexDls58WgD9NaGsTWW/LqB0XPobj9NLxsc637iPRPp3R4dceZudRDTaqzcdsaKtCqIt7FmaHKJI+7ujlaZbz0yJ0xketomd83IDstHM1Nf8AxJ5PQ83VQYjovFPbifv0hmOjcVlm/tpLPRuKK9reTWnsA0tn7M7r/CwbJDTvKeeZLYvjPbafKZOnREZq7uTAnRmxz9WQk1ljMq/DMPNuwJv7l5TFMjSSIHnzgoAKFHy19dS9lbsD9myJ3LppCuHLnxSwKdVb0/8AjUmKNcfFkGhwAqC6LpErhspzE1IR7aTbds5LrAmcXOLXwUO8qiaGdQ6jDax0tQrhpA2dnKpByqfEAgIbh6SihUy8xh1LO3dmlAgItTlDiSy23x9XiYzpinLIwMMWJbfGHzv+NP3ziWcjDxB9ismLeObg1ak2L7kpCNJT5g/LWRnpWDMDaeQFZJo8aP0euycFUL6fikZ/+RQ0R6yU/beojoFCj5lWLrmE394Drb/jW4h/drcv/wB4aFRIv6liBoBKYOYogIe9PsRkYdZsUPiqz4H0Il5/HIy8fEk5nzgCipIz9i+Bin2bWMh2cUTZuXc/punTdigLl0rylrUPf8nSQxVGhVDFrnBSiKQOLrdlBVyjhy1YPe+INjmkYNk+bSKHctFNw0/YNpJv2zonljLNFywk9CLcgMhCwcnS8rxv4qoU0UjllY5GHchGWJv0jt3SbknOmb0BHbzHVlmXKy5IWJLzuMkZBgcD0oVhMVzKx/ic9Kr3OxuTLvNP37iWXGHhzeTFi3jmwNWpdg94xSnKJDlAQXrfSW7uEdmbKks8rFj0p+NEwMZqKkg/KPSCOwh9fQmHS044GFjVeVFRGlNjdE6iigo1uvPkQctRV5D0+LAu4OViAeDgER5TWLYUoCKcDs2sXMP4Nb/3yK2lK7BNlQRdTRim/CEQP/qLDoYuQr6nfQaxlE4yUZy7fuGhve/31NN5CCmBLFuzIpMq4wZn6y+7hb6+pLTLSJT3V+JTEuALXlx2nZLUZRhCoOYSlsCUvHkMiGnVKk59PuJ2TWWOxeJdqem3lMjhvl7htsmP3p7TjVJd7GsrYyVHovyC3USXQcBzN1yHBduk5SFByiByRQWaiy5bLRJdVuvhniDhswCWl2qF6UpDkUiJhWF6wnT9+yzqESyMoY+lJONxxVXuQbip0zz1inMt3BxcbKb4Nv8AwAafPnMu4GIhz7FYsW8c2Bq2L8Po/UNh07rUQ8HfodI0cWyqP1IyLkziDdteUFA5njZUob7efuyso4fuBhIQ/nj6kBeHx4tsv2sDepmDvUi2Y12JTaQD983iWYuFA8qFg2wZCbEsVykFI+PacPeJWqQJmrqiwzXDTjSSS2jUnccpccf3XFJgXkxCRiJyETmEglYsQMeJaqMY5Josfc1hkXcYVus0+vIou7M9iSGaSMPNISxBTEnSce7ORJJmPM0/vr8id41Fs58l/TnLAnG/lm2x3GCuGpIUyZAyw35zvJx/ZD+GVzdBnB11nEoARJINbal4NpKIikskA6RUslWHpJlF60sdYwxkIw/i2tIJupTg4x9JD3FWtr5pp1wb3ZsfaIyS3OU/CHlU/wAs17jRLiXDNWwZGLSz2R7qRriLqQfrTjtMSj705PNYluZVVQA1HMe5EblblStmub8ru802gsLBqGTgm7dJsiVs3JsR85dS6xoqKNypsmTePbg1al2L6ck8CPYKOx1T2AtIruVf3Pdsa7xtCrLMf1rflKqgVgflLmdJtj3F0TjqrmAiaKJGyJGyQfDaAFPtHqiHVQgJ2ItESjNwDoizb2OWzZ81UYvW5FkciVJxiO1mZpkUUhgtEGIf4wdTtiaOO3NHGMJ871aOsNEJkX4GcpLuTnjGlgIHRdtTrqNk1HJAKp7tjbniZBOyNC+SahFkyrJG3L6MjIPDu04GBbHcP8K8OcTjtIL1kZVFeTXWkbuvych0Y6PjUGKQJpk29w6ZDhsYundej3YfMRDS+Po4Tc7cOmIVWbbBys592QPBLWPkaxONM6eXrg7kXCi6iKBEC8pA90R2+urBZGkQ3E51PNBo2aNVLvfHBGyGY84z2ZJI1arXUaQLBi3jmwNWpfKQcScm9LWqwzWdPY/BOe4xnzNKSpyOsf50jUzLO8fvRK6np2KPyTdbWb6a2yIcfCqJkhTUTWJ1UVAMX0J/mk5NrAo6ApSFAhA2L7vkIbGDcBQJAPzRbovMwlFrI7mI2MmJNZ03HRilOUSHKAg0aTledDIU2wOGByZdzo2J0vFyK6/rbnHm365NFztmtM/OZu1OCuf7BIsgj7zjFjItYC7cNcyuDeWoRItSHxti8vRl4SoxigZzvCd1nyUSGdc0fHoBYJjveT8l5j5+84bpO252q4bkrSqqArwbkfj9CwToRpO1aju44dcPs8b142QrsgBZZNKQur0r1+QybNo0SapgRMvrrOUkC8xzalLWq5ceFwbczhw4RgaOwPdchTKJRzBmSezdLeDxBVGcCxYt49uDVqTYG3jFqnEafS2ouX2PsfVfAlXKUqfey6MtkF588CNEQCeuzb9+MarArciKpi3nqoqKcti7AV9MYrivtGzm78IlkrvPL4unheFJLOWT88JZo9Rg994RKUOY4+VRIZ+/dzywehJxzeVZmZOfpEvF0FxgpXyXcPWbQQB06InpN01W/adJm0ACP01sP+Wth/y1sOt9v/OnsaxkS7O2wG1FOrxVGriMqdnVRaHbdLlqkObdRm0QYNSM2xdie/PFCKsjaVAPgH35eaM0OEfHJCs8wVw4Eq508i5Q5BeKKubs/KfpmJHtGqbVICED15eVRjG5llTbaRjJy1bOHa5mbPIGf8e4mQPXak2JJylsnrzlOW8ZvcqYEzqRsK1AhzERTqlSvWXpHwimxhyNMfY2pWB4PkbB3krDQ7yUfDOznxLETIQvKAaEhB+pQ0oybKfqSDUjUYp+TZRuUdeHWSrjzw7wVUbbSce5vjxjrDHC1k79jq74VflbTyXexLZyg8QBw2UAxPcsjrtYdQd/OAZAwh0G+3n6E5Ckl0A5Dci6iYWJqdg8T6UhQca4dyNX0URcOI6aluHCsMt+yyym10hw4Tz4P+g5Qjneh4Zsi/8A7ky0PDflBP8AZtjAdSuIsx1psd8o0aySEVLNpZAVUAEDTEodpysGBed3BQxIdsIHNzr+hcmwOII6m3nFue7jUXAj5+6eTfzEinXaizO7e4bwVXsRRgXC5qJOJoQkrq6BV2mZFiyZJM0gTTL/AAJtMjmdZtnf7PEfFZ2nilisdth8IjMS5aiU+k3xO+FWJwJnyyG2PDIRSVP4QalCmCXyNYTyZ0ZyPj2ZK/j6GSIlDVc3cDJSqxl3JCFTDlKHumIU4bGDU/VUX2zlsIprEeMbG0Vo+QGCSxcwYcncJTHi8N1HcAzeN37cHLY+5fbbPnLMmO+hDbyD0pyF8R5XjNTpOykZ2E4t5FMWz9KnRRP3Dqn1+GU2igO4aQcNF6vxD2+vsfDLhWlJVQ3EtNrAIMcaDqwZZyjZ0DsQeNIlsuu2rrYsbGI9RzAwXh3M+em6jz0ZooHh3RR1VREYRPf27akJ+NjgEDrdQ9Hwtk/LhiL9p4TEUvHuOcHMejDtRdSbWJk7G9LKTw+Tdsm3JyEL/BmIdKTS5DhoyFzYDs1lAVL4xeC+QsWY6Fxennw9duhpKmrPVAXm3yrkWcU0ZF5UkwD0bBXWss2Eh0/Nm8QkEFKNd2xHCeZMQS2Ep7xiHA7mBbOUXiBXTY/MT2TGx7SwSMHkPpzkCSVAHLc/SdtpBzIIqxLg4tX+J6EvfQfsH12UYyDjAeTU3HIzs8SollCjTePEGCZrok8fOZFzGopxxT90/g4IIzd47P1XfpTQgWHdCOoSysI+OIzcpKcx7ox+iLNU2otDINkOCdbojxfUBwzZqtolNPKIRDemYAxLigSSk4qEnILT9gnjdvCNhZoQtRasR7hbdRUhCkDYofxOUv8AlrYP8vUsVfbyzYSmJ5tVWdiYr0G8tSOAyjjGfwdZB2TUcwbdwg7RBw2U5iam9krLHrDofIfUmYRCXTAebprtn8ohIJFO6MxmEuJSwlhRjF6dvOScpMO5dRy5eGkJuGhEooorKn6rn07o9BrCihv8WKcPY7o+MGc3e60ycPWEzj+PRAsFUQKUbjMOPgja0IaFC6S/+Kk+3JGUpg0N1lC86iLVFANkyfZLHXUpNLnJuVTuIu0sFaRkCPSV1lLh4uGL3StgpAKycNH2WMfgAGV6Kls5UytH5TBoR5viD1ZWJaTDft3QbCstbmpghgQ6hoWFbwyAgUedb1MaVM2Vsvs4jp88fZ9p6woQJQ3RbQ7JBMCgiGit0SfpTDWwB9Ps311OV1nLIiRVPTaXnKubtZRM7xpeOHzFWViGl4U5Y59l3hqn8V1sln8fTkm0E8B/DoOAHz9X/b2f/wB9O0zXhbLoIG/MYAx8liHGx5+db8slTY1bkPJvvNf7Uu1RcF5VCal6S0W3cNBMkrGMErXWpHHVsOZfTaIkqLbJHH84Gy38mcnW0G351PiV4fMCPJF6nlTJjfYq7lS5yhehv4e2RKgkBCh9sEN/LVmbOIeRSsbEm5uKXGw2mCbZYqROd1Cy6UyxB0n5H/jB/tqbtbKLAUGwgs44ZsONbcccsXsAXbupF3eF+0Y8xI2NjkWCIJpk2+3PmpHaApnDUK5CuyB67JbdnnjDchiWdNd6c2E0HFyzKYQ67M/n7SKpKCYqapTD6v8AsGizbJSUCJb8yh9hHUhORUWA907Dm8Vl7QoZBl+VaT0ewapIQ0Y053KVfLSsUxlHR8j1+OSYsCEITb7hPwbeWamSUJvptJIi3PUbs3Is3yfwo2SvPz2LFCpnTZldASUFlPMzorN5aLdhu3kUjaDz8yCA6n408Ap+IYdXpDDzbOaR5247Kem6dtWKXWeLlTLK2pzKG8MryJ9UhKzTDoKvUK6RV7F8PVyfmF7frkgxZ3p3j2SbJUfGUIQGj+QYV1kVukQObhowr1xTzHfNJuDW6ZI/TIIM0y8hAKH3GUhWkmkKayYDo6k5SVyqJrHcR/FLhpGfjv6rUxoB1o9lXp1qChWhSKL1BMAE0c/UIbFETi52+cRGVhWTeZ5xjC0B3Fy1OKo3SNN2CETAZlqRwm2uMC4/UuZIW7xm7LzNXaamthD6h7pvgLzHHYHlog2Xkd4CgwyV7vCvb0qrqiSicPUXErBPZFflk3aDhnJ2qYsbJuVJtivLDSgu5Z7+G1Hzq2W275HU3tL4GceEmAmCHqrUDGaUp9O3aPqSDwzh1amqCbWNo0cXlRi2CTJsVMhfub9mm8QFI5dR0grT3wRMh5x/E/iYuO7Gjdqoh0I9jZz9Eh5dkdMp0o2ab+YJrkl6++cNiEaSrhQrZXx6FOioGyuML9iRSnpUzI8E1RVUwjhq5D16PcgbKPeG7JMbv4LcmyxZvH2Z6rGOJiTjkFW1Zgst3GO8Xr1cIs2HGmelj8ha3yajOH/LL8APL2lox1EYsI4y4pjS32semzoWB6Fss7CLBWX4hsVwrfos5VV4N7z1PXyLUrNTgFGDePYpx7MrJHzBxMw0OHQakKY5IeanxBSYU7VvyRtejjqJIgmlwiUVaRkn2XJxPyrwGnZtxYDh8H3SyxCMowOkcm+pmup5PxlI0SSEO6q6iqRXNUmG/Ku6prMT9eKdKNVDFuMZ+4gR4RK1MSm5XrNRucqFXknAuQMkdRepRZ/jQ6iIsX2Q4TyhL48IWXueZJ2LWhZS3dVtjbNcpjOETq1lrJ3LI3FVRQJuSAlDGluJO4TBTI0ypJtAXri8s7VlLBLKru0qfEF/V1T6MnW4YNzkQIPj7+Q+VAxJ1NBWpyRHeal+UsdBRUV8TRqHP56Zwcpk+6s8f14fJ8wjqjWmOOqul0yQccnHMiIkLt91MXmLsOnw/hixpzH0b8VWLXUHMEy/VkPlR0g3lWZXrYfLSyKDkvK5QIoDqnwLnzBsZITVeXj/AIoWaEQGfk4w/TnooS6azMU8/Yel32ES/TcAbogO4NU9LKkRJ1HCoEK4tDbn7eLQO6VCJtUsO792DRNjUYVmPOokK5wAClAhAAA9lmm/CmvQbDu5wHjFrh2kKWizJcstWY91IO1J+UL84A2Db7tMRqUi1MioXfUKqgdJWhWZEFkcr44kMGXL8sVVaCTUTWTKsicDE9ogBi8hygIPajBvfi7cUTfghVL/AAU4oTUjX56PZKOwnRULCVZCTZpycs6VVFoyaME+kybFTDYfrt7krKN4hmLxzrhnw8vYJAMvXpH8uKq10lyrgAgwboFQTAhQ+8WeALJIdRLcqkjFQ2Vqs6otxb/Pm4CwYftStMthB6ACAgBim3BVVNBMVllAIRq6bPSdRm4KqWVtfaPewjGXdHSvKJB5ZGKWRFtY4N3+1JEAbIsmFfcnIoUwRM5Ex8A27t6UDKT85KjyQkf0U107JCLBLd+Lori6NDkKnENVF14mwv8AvvDbA3BI8g/axjYXbw+xcH4bkswTpbjbm5k4GVdhYFwrMGQCMIyPSYNwSTLt95EAENh1ZIFfqllYpTpObXVKlm+snr1kbdB7cabdsIyoRFmadzH9VS4KidXmSZL1REo9SKeqNzREUhEN+mmPMc5SqByqFAwL16GcfrYgXU3WGrRkd4yVOGq7CsUmST5RLqK7+xswZMjCZo1ImNgbt14pUzny1gjDUtmOXCctC63gko7TIQlHqKJW6MFCN4pqVFJMA+9mKBw2HU/V+ucH8eoZFw4Rh8hw7ihX+OTOfImOLJg6wixkCHdQ6C6DpIF26gHJ7ZwN4dzqBNzwrYfau4RaomcOD8pMaY0sucJ8qSKSjSDcCxqsY3oNHalQ1XK+hEtQKBfP74PnqxVtKSJ1U9yKGXirS0PQ8iRyS4ZZx+4whegi2zk68V7ZcN4lyGqsO8Gl7Z9BzMS0fWmY/MVaoY2qUbSqkgUhqzXEY1v1D7mU+n3/ACFGkMx7xMvx8ZMIaXoMRbkE99R63cMEVw9sybliHI6rifShEA9n11gSsnvmbW70E+dnJbSt1KkXzKQOUoB/oCfaA8jzpiGpatlyLiaRpCwh16sssiVeEeEEi3stzoqMV2/90Ccp4ZsJR9ljlexbdq3H5+C6AlhrGRpKaQ2k6bHLkSNIPfNb/QChecglHRlRqth7xTyacTOGpaInlMs0toKrePsEbIEAesCR3kzGsU+os6KOsHYRc5ikVbZcE1kYTI+Fr1h6QVcxTNSUg2ljlZhcsdBQKi7rBXDe7hJAmRMp8vdrLqXKWKZMB7BuiVBMCFD/AEFKxiMi3MkqXfTSRkqp+QfoHcsbNw44ZyKspKw5zRziE4UcQVQ/f2SRcSGpOTM/jC1yjIdq3j5i1QyANpZp35UrOgicykfUDlVOxnrOcPGDgm3YR6LFIE0y7f6EXaouC8qhNPKTFuj9TogAt6JFpG5jJAOmsc2aF5Ukw0ZJM36i6Bq3D6JhoCgX6B/7m//EAE8QAAECAwMFCgkICgEFAAMAAAECAwAEERIhMRNBUWFxBSIyQlJigZGhsRAUICMwM3LB0UBDUFOCssLwJDREYGNzkqLS4fEGFVSAk3Sz4v/aAAgBAQANPwL/ANmdCb40+LqjQ4LPf+4/GNd6gaSY/jPZJvYBiqE3W5aWDSOtV/ZAzndG/wC5BxWUJfSPf2QMfFnLSUnQpBvT2Qr1bqeA5s+H7iPYr5Cc6om01l2FX6sq57hnh7fNyQ9dZ0X71oaqdUMmi8jLeNug61quB1Vg3FSZFqlNlqF3JlpyUDD/ANk3V+yYl985ufbq5Z5v1g5h7YlUVmWU3Wv4zei/EZumGDS1yxmP7hKuQ2gVJ6IQwXC0TehsYJ9pR90NLtbnSBQpxVs4EJAwQm4deaFb1eQSVTEyNdngjUOuDhbbs98aFPt/5Qk1BQpN3UYa3iJh9tTbyac4ijnTfrh1xDm6kq81Zoomy6LjeFJv2mMjgldz7ZvBSYRw2nRQj9wPnHDwWhpMPp800mhff2chOvvhLlppCq2Fa9Lx7NkDFydVvf6Bd11gYNy7YQOzyDilV4MK/adz94a608EwFWnWFJJQgc5GLZ5ybol01XLKUMszrTy0fm6PmnRwXRpH08+aIGjWdUToPizSsXF53V80f6ib85LyL+jMVjMNCP8AiAKJAFwHoZNWWmZOWzaVoGjSiJKgmkI+aczOJ5qviIYVYdTr+nAISwXBpDQwA1qPuhD9nc2UVwKpwHsI7VdPpN0nCmelW+CPrG/xp1jVDyUB1xGC0K4C/wA6Yp9Nvued1IF5h9xDk2lOu5tJ1AVV1RJshtvXTP04+kDWXlNTiLx13jpjctRlqn6pV7Z6Lx9mGiULGsfTVIYTkkk4DjKPdEupZlic1reN9SB6afQ6GU00edR/aVQ9ZdT049v01SFykyUk87eROboU6EJHvJ9NMrlgo10rLR7IdZUgnYa++KfTNIcSyOhT6YdU851uH4emQpe+2LQYLyqHamKfTL5sNJ0kxNzLLbadIb3yldg64EkFKQcRaJV7/BoefSnvjQ1MJV3eg5LkykHvjSy4Fd3gS086dIvAHcYShh0rHIUile0RT6ZlmFLSNZujcWqEy5wXkxaV/UvsELT5rc5g3jRbPEHbD3q2FKLO99kb8/ag+syMln2qVAwysmFdyhDIq5LAl02fYVvv6TCB5zc91XC0lB42zHyFKseLM1KGlaDS9SuaIdNRJBRqkfy0XdZrH8OQA71QDvbcqpv+5KoB3840u0Wx7YFU/aESzZcl1LFHpVynBUOSaU0RuU4WhXOw5UjqNodUMrKD0Gn0zNIU104juiflcsyoprZLiLCiNdQTE355ImTb8Vrtxc0nNm8FaOoaaU5kfbsi7vh9AWy80qqVp0g+CS88tEtd41TPd85rz4RKKye6DadOZew99fBuvvWslw2kE2RTnKNwiYRWZmlb7I14iPec/gtWUqXeVnQALzDPrm7JStG1Kr6a4UKKSoVBELqjdCWlj+r2rqgfVnRmNOh2aQxZrgEJtfj7IdeWrt+mZJor+0bh743CrRNahQY7/Oq6vBS40wh2ZW4mYKbpmquGk56w/Nrek5d7hNMqAzZqm0qmvw/9Qs28knBJcqf/ANiT1+DcxKhI5wmpyaP7Arr8Mowtp8NiuQWVVtEaDcK6olWHEz8wU7xQUm5vWa0NNVfBNsKaeQc6VChhC1Lbryml2FdYIPRCHyWxzVXjv+mKRlUjqEGXP971T3eFtVpsrTWydI8gS7Clm1wQl9V8WVWf09HxhXi66aqueQMEpFPDlJi1/wDC/tjIt1+mKQsIcHaIcS+GxpsOgin2TXypVuppis5kjWTdHqJTeWlZNJO9SONiaqOePrcskdlIl0VflHGxlFN5wRg4NWOiJYhG6EoDwFZlDmn/AF5TOXLZrgXHaJ/tSqEOBsfZH0zXJv8AsnP0QHUNbqJRnNKX6lI3vQNMTbQW0v3HQRhTyZl0PPgZypeTSejfdcSrYaZbTmSPDu0kpyacPOJtp/vFOnyZlsy+56M5dUMegVPRG6n6WsKxDdKNJ6cftw6orXtN/pNsbfoxy5DSE1KuiH2VMUKgpWT4qtSh7oTNrRNygNChYNnKN6Ddhn7Yp5xsGjjepScR4WxVx15YSlI2mNzlS7SpuwQFWXSpShXNfBvBHh3GcYBQTvVrRwk+6FDfyM+sIUDqUbldEcxVY0rVSE8CS3PXbv1q4KfzdD020luXWLDUvLKWKkWtWKobWlSMkAttymCbs0U3hrVKxqPogIN6EC5axpPJEJNHMgwuYofaAIhsVUJdRBR7TaoRpwWNI0/LRGlpomOSsUPowIydSgcIk8FlMW6NZF7IpP2+GvoujdaWcZdTMoyiXq78KrxgaYwk1SgOKKAeaob5PbCcKvNPV/rFYQkqcfyEsgIGkkwlW8S8+VJGwYRmde82D/VjDW9YmLe+bTybYqKbYzDxpPwh0WTPrVaLY9q5KdsK3ziFNEt2tFvHppBV+ss75ChqVh1xTzzC5ZSHmtSglXbhAwCJdSj/AHKhOE1uhRZB1J4IiTbQyxNu74uoF+8GepJ2RLDKTMrYsFaBibN6XBqMSy7Ew2j5p8CoUOafiM0JuUNB9AIYNWELwcI4x5ohbmScdZNDOnPfmaHbiYI85kXsm0g82l52mH0lctlTUih37S+UnD8iFXF1ScqxXTXhJ6umFJyhbS5bBRykHPBHypRsoQnFR0Q3fk3nPNN6ueqEGgfmXsiFbEgE9cLual5ldQ4f4bmnVcdsKVRL5xb1K+MH0Lk2gK64eUXVp0qUoIT+LrhltLLKlX5UgXpu4B/5iVJSA8kF2TWRvk116c/gcTWXkGT5xzXzU6zBNpmTbSfODTZ43tK6IGM1NeccPXh0eA4iBg4ZZNe6OSkUHgWKLbcTVKuiGt8mWQ7RC/ZPF2G6EKyaXFpsIfVoPJV2HwTlUySF3hAzuEau+JudLapV5ZKWzcSq/Oa5s0ZO3QYAodKR2KgTaqegaVR1wfOnkj3mHiGN0FyubN4uimfldWmJpH6W8L8kPqk6tJz+Dc+Wyu6CUnCu/UD0BPXAbpKTMo1YKFZq04Q2xRTu56FmtlaT5xA+9TUYtZSW1oPww+Ukb9Z4LY0mMmS0Fmrq/wCW37+2GypTEtWolmRwlnlLPvAwgDfPzrQdcXrJPuhG+Vucg+bd/l8lWrDZB8xJTk1is4ZF2vG0HPgb4fV+jrJ4B5B93oZeYQs7KxLuFlxYzGoWj8UTz1m02brbtiz2VjdtpCUZVVaVuT0hfYqJofosrjk+ev3DPEwrKJl398GdaudzcB6JpP6LO0/tVpT3RLqyUlMvH1wzIUc55Ks8bnyy25d6zUJsb1PWuphlbk0+G1VSFUCUIBz1oOuN0H8m0o50oqVq2VNPsxMPqWNhN3ltXzbqdHJGsxczNzEqKlmvzLdOPpObbg+nPf4ok5hztJ6IRi46cdQHGOoQ0aL3VmgAT0m5OwVMbqyhTLzinLYcUTaraz1pTbEnLKc2nMOk0EOTluUfrXfX8IclV41wlrK2RihQucb7D1CCPk9mH6ZJtXzj6+CnYPcYfdIDovcmFDMmtyUDDsEbqyCkSUw6ADVWY67SadI8LCbU7LtD9YSOOOeO2JZm5azfNtjjjnjP16YN8s/9Yn4+gIjJWEr41OI4nWDTq1wHLe5s6yM1cUVuIz2cUmJNtzK5ZmyUm0Cn3xPHKSuXvLaeXt0aB6SQRaYUnF1AvKPeIn2UoSMvZIUDXQawhdoNlNmo0pSb1q5xuHZDLQbWlv5prR7RgDTG3yVmy2kZycBE8S3K1zvEb5zYke6J2qpDLXlCTi77Su7bC3Qk2ymrSOUAq4mE3pkGnqjYVYDYnrhkUaZZRRKRHjVUBHCCS4mnaDGWD26zqcEZ6H2U37SI8Zl2JRGpH+hDszNLbJ5NKd4MWB8nffSmyNFb+yC48+tGwJSD2qj/ALa0UnSSN921jcSaQ9KP571AWR00P2YTQPTbcs44lRz6oHDeZbNNuTVeOisV9YyrgnQRik7YMyFPZC7xV/lDmq77s8S5szCB8zMAY+yr36obNlxCsQoYjydEaVIIjbDV7biYYoJgOtBbKzqrgYlXAmeDayQVJFpzE3cnojMBm9Lu0yRL2k8BS9+mn202emHm99OA3oOi+4Qo1cDJtuKOtRhPDbBVMOdNmtIVgHlKlz/dSKWgwtYNoc1WeE3LSq4gxyWEWoPGfVVX9IhAtMpeVVwn+G2O+MsiXlpdat8G61Wo04x9whtIS2hOCUjAeF2ok5JKqKePuSM5h8V3Nk1JpkEZlUzXcEdMbqTKnpp901Vea2BoTWJV/INlBuemFGhOwYV2xkUSwI42dxfTf1xT5NSGEOUWeI2jhHs7IYbFku1KJZqpsNimJN/bFSvcScrvHkq4g25tdREytL8yR86aqHYARtMNJssstCiUJ0RmDqb0+ycR0Q8iwrKzRUmzop8Ymmi28g5wYeOTmrI9Yyb0PAaR/kImACpUnMJUFayjMY/iNFPdHNep3iBnaovuhBo684iilakg98I9cxKALWk89Zw2dkHhKbm0OHqIHfC+EiYbWwobaXQMRK7qg9hrCkkZRpVtEuTx1q4y9XXohMuE5RZqSpaqk9npkW0pebNFBSVBSTXVDVE+OTKFJNOc2KVOu6JrgykuvJN01hHvjjG1QRpSv4w+vz8ipWGtFeCrsMOoqpp0qDn2mxn6IHAcXSXa6sewQr/wWrBp/MVf1UhZqslwqKtqjeYTNoym+w31Ceo+RuMhfiku4KpGTIQm7aSrb4Jpms2+g3sNHMOcrsG2Hpe1KtOj9UZPGPPUOoXZzCRZlG1Zk6dp+T0j/t00LKcSRaMLDTyRykCoPVUdcSasrubMk0orkV0HsNI/6SnMmcq3ZM0BvulXffyoBsOyMwbIWvPYJ+6b/I3LUEunlsqOHQrvMOJqBZN1+mEcHJ7pLHYYr8+0293isacgtojqNIduenEzOUWE6Eb0WdsOb5RWbr++NGTEBQy7YzDSISKkWq2k6YmpRZQ9MN72XVZNQEcoHOYyrP4vL5FsV6vL8adP9og7kSdajEhqnuiWbCG6688DEw2aBSuOYBqE5OsaBvY5VKnt8LCrY2Z4YQJedFbw4kY9IofBWJuZW2wHUWSvzhUSNWEVg7pPTTyXOM22SUp2XJES6Q6+nlKOAgfKJolbFoXE8ZMOPlUk6RVKa4y7nR1jXDQHjkis79k+9OvwU3m6MuKKrzxx++Nx65CYUalxtJoQTnxBB0Hw7qTKUBP8NG+UeuyOmEtCvkctG9MD9mexhHrGjChRQ1Q1WxXjIMT9pcipWZ2z+JPaIbpdrQspPf5TIpPTTdyyrkJOYCK1ygXvq7YKCZGaWd8qnEVpuwPlFScoNFtf+IgyLNimgLUPBMqsAaobTvtZz+XO0TOSwPdzhm6oeG8cTm1EZjq8LbBRLCvCdVcke/ogIEpKuq4yibTn4euHnzYPNFw7vlIvSpOIMTCcnbeT5t8aDyVQ27w8VyleKvlIOFeg62KJn5UcRXKHNPg3ZZSm2TcbTeT+8keBpBW64s3ISMTG5/m5JCs6Rn2qN/loUEzAGcfm6FCqYCrDuyJR5JQ4nNQ1SY/6ml7U3ZwacIsvJ6Fb6NI8ndJWXYczVPCTtB93g3PV4xMOaAMB0m7yUJKlqOYDExK1YkLWkiyOpH3oVJU6nD8fBJo7f+fQKFFJVnhXrpNe+SsaCk8LvgcJyT3yf6VUI644rZaDY6TWBMJShpoEolkk75elRpCZXJy81LKDuOJNOMb+kwi4LlVX/wBJjOh1Nk9vykiFMkN5a/Ks4FB007ocVifnZNZx2p70wRVKhnGmJB/Kyil8RXw1aoAqpSjQAaYQr9Pnh8/TRzPvQjtOny3UWTEsu7Z/zCU2x0Qpmz9oRJzWVkXlfMqULjstA11KjciqEJcxcbTm1lPdTyZuuRlnl0UsjOjPUaor6jeV2VpCzaCCvfvHTferyd2VBLiUYoa0arXcDDCavOj51w8JX5zRknk/3pgXw67T3+i56aw6oIbstiLPnF56wMC28UHrTCcS+3RdPbR7wYN1JxrKNdCxh0gQq9JYfDzRgfPS2+6xiPlEsu2nXpHTEgkrYbzvNnhte1ddrFM8SYKJEu3ZVA+b9pPdshHGXio6EjjGAfOFXCf9s/hEZycVHSfQziaK24fCMCID9WzpEboMOIoTxhv0++NzgFOJbxfQnAjSoaM4hhP6bKfjTze7yJZNGJi+yU42To2iBch4ONOU+0q/rhpQWzLtvk0IwqrRqT5C6pk5b61f+IzxutvmA4L2Wjn1WuxO3wB18fcgs3dMLJV6OUVgnjHPHORGgmng5SbjA5DpTXqx6Y/8lqjTvZvVdkUrkVeZmB0YL6KwP2hpN6faTB1/JnVVmGBiOcnX3xYyqSybKZync5r69IlGylLM24agg3pvwgYJSLh6Jg5RPvizRe0RgNJhM40fOpxTWhPVAMNKtvyjVwf0qTztKeNDZsuyjm9Dp5lc/Nx9Af1eWSd++rQNWuBfuXuaRvVAYGn1f3tmPg8ae+6mF2B2QGE+if3rKRm1wq91evRHORGls0j6t3CPrmxdHNOEHFKhCTaRQ3A6tEDepnU3voG3Bzpv1wvhFk7wnQtGKTHFrwV6wc/yQCEb5DSzTKjSrQmBvHd1WR2M6Bz+rTFrKE42jtzmEXPN6Dp9EbjDTlpH56oS2pYSc5/IhKzQ9sPyrblrTVI8CeBPMp4ei2M+3GBvWd02VVNPbz7FUMH9nmTk1jrx6IOceEcZ90JhzetrDRyYOzFXYIO+a3PrVpnRazGnJF23yPG3vupi2n7sZNPd6FOA5R0Qr9Xb5I0+ScQY5Nd6YzL4qvAcUqEDhNoVwhopgoajBuSDc3MK0oPEXzeqK3P8Zv2vjB+QgQ0Mo0w+aCgvtuVzaoBpMzQuM38G9Wfsg+scOKvAs0dazLg8JOdJ0eimGaK7obdCTCHL+mDuSz93wrFFtrTVKtog8fc9VE/0G7qpH1bxcb+6SIGB8cHvTHMnVfgTAxQyLAP2lVMEb9Tad+v2lG8+T44991MWgQK5qYwW093oE9uoQj9XY0+gzaRGjjNwc/gTwXRn2xSxK7rPnEcl05/b69MHfOS6by1rTpTBHpwIl0F1tt80S2kX5RUJV5xZuVNU4y9CdCevVx151HwZ+SiDyuCmP2iWzERx0HFB9BWqVoNCkw3wCpW+7YSu0pdDQwqzaBwFIZ3PbadaVMJCkLSKEEGMym1VHoxj4xMpTA4kmzd/UqgiTCgzlHK1KsVE58M0DAr4I6PC8POV1mnk8VIxUdUD1EtGb0Xz8tm2iDiDiDo8A4DgxTGErOXqVKj8SNWI7IfSHXW2DVNk35RGqCNPppRdwODznwESrv6W82q6ZdH4E9pv0Rx18o+D5+ZzJ2QeGs4q8PHazLgcJlWfZ6I5y3GgGogcHJqUinUY1zVr78aXmGlGOdJD3GP/AMVwfijUXBH8xyP5bivfB5Ml/kqP4LTaIVwk+Nrp1C6ONTP1wOM5vj5LTtPfChXwm4NowG2OK1xUeleVR+Vr2iFYHwcVWdJh1f6NNY+Kk5/YOcZuuHhlFS7Cqgg8Zv4RnBzekxmXh82j4xNs2XVNG+WZP41fE6IWPOHRq8H7TMZgNEDE5ydPkjgvJxjBEyj83xqzek/mCP5ojUuNvg2x7Ua1iNIPl2bSNohrza+jDsjM2L1Hog4uKxV+dUHhOqxPpB2wPWPC5KPaWbhCuG1INXD7a8eqH10EzZpYPJXyTrwPZGcZ07fBxSMUw4uplVq4OlTZ4p1Yd8fO0FFJVyXUe/vg8BzFC9h9E8aIGjWdUTdfFWVG993lq5g/1nibcLltek8b4eD9omMwGiM5OKjp8s4gi4xordH17Of3RyFXK9C3+tvjD2YGKkkmDgQr4xpKhHtCNFRGyOSVARptwPWy684gcNs4oPlzpuobozuO+lI3jQN8YoVSi3xobBwHOPbDApZbHm2jpUeMr8mMwtUSnYBhD6cmh2ZFUupPEXr1wTVyUQLbsuNnHRrxGfTAuVUXf6jmKrBxChDXFBxGg5ljUYLRVRtFpl+mJGdB29cIopoqxsnN6CkZO0pPGA4rSecT27IKqNsg71tHFbTqH5x8A/WJjMBogYnOo6fRaIPGau7IZJqsub2kZ8oRGfyf2mZzNjQI3OGU3Y3RJpaGNkHXG46SzIBKKKmNKjnpd+awm5CBn1Q6LUtLNJ846nTQ8EazjGdb06up6iBGZbMxlB1L+MKVZTOsjgbRxT2QoXjl/wC4SL/hBdIKacKGv1iTdTS10GG/WsKxHlDfMnQqJfeuA9/pDm5EK87LbmTGCRy3f8evRA3qppIoVjQjQNfhOmBg04rfo2K+MKxddbLLv/0Tj1xZuFpLya9h7Y/jsrR3FUHHfu/4w+3ZfnVJpQfVtp29Jh9W9QeKnMPLESyS6y2+bIQB84uuEbnLq0SKZZWBdPckaNphAokQm6ZmPcIGOs6fSJTvdsTJtnZm8ql5GZOcxMKAmHdFcY3Rdo+4DvngACVH2lEdApDabIhl6rzemHUCyWzwOadBGjwvIKHmXBVK0nMYnfOSbhvs832k9opGtsww9lLSk3RJSzLuX4JcSqnmzpN90WhQpzwpAK0jMfKJszSBn1woVSfRTCghttpNognMBphAyjbSzVuT189evNm0wk71o4va1atUDydkaWzSNGWr3x0QOM6qvl5hEsnKpafO9ZTylc7V74aXfW5Uxz3NWhP5Gc51HTDxs2JZBUrYKQs2rBeatdVqEcKzKWvuxocbU2e2OeLoOCkn0JVad/OyEigHlHEHPE56oq4p0RJ7yQLprYbxp4CLwc8HFDbpAP51wOOWGiT2Ro8SRHJMkmK1cRYIqdNDWkKOMwyVN9aTd1QrfS77acok6xiI3Ocym6LyFb1x3k7E4ba6Ik7mRmUry3E2VRLL3uz0KtHE/wBxNN2xlsZRo5vbVnz5tMINZeVP3la+75CeIjNrJzCGb7bh3jR0IHGV2xLOVQ2rF08tzXoTmgY6TriaXYCk4J0muYDOc0Tn6xMJG/fXyU8lAg4NhomnTWObaSYPDs2XUnoML4zAMq5XooDAv8QmiEuEaArgq6aQ0qy42+gpv1g4eWBUwVWG/wA7KegPBVyTphr1Sz84mDhaMc1Y8rlC4xOoKH2irAHONB1i+HL5x/QIbFB6CYFh3u+HoHTZQ2gVoTqznVCBlpaSdN0seW5pXqzbcGVVaQr508o+75ABCuCB6xwfhjAy8sqqUq/iLznUL9kD1Em3choaEpzbcYGCc5+MBVJmedubQOcr8IviZTR2ZKfOvnkp5CPyawvgpzNp5I8jZA/ZZg1T0ZxDSfNvJoH2th46dXdDq6S26DQ3p1c1XNPRCsD5Lm8EWLS9pv8AQtXsO6NUS2Y5/wDUMNhO6EuibAVaHHCV4g43RyZxSPcsR/CdV7qx/Oc+Ea5lf+MNItueLPBRA2XGE+sQc0PXNoHF1w5e+5pOj0LKwod0KbFdvlTC7DeRTWp5vxhSareXvkyteK3pVzurWhVWpblc5Xw+Qqe3wOBOYdcFgeN+JzCUvurqbjWhs0ph0xxnjngm9c0+lPdaVCb1sg5JkbTW0rshtNltbbVhlvYONC+E45+bvLQatutmhSYmE2KuJ3kwPwq/IiZc3jisWjyHNehWeD2HQfIW5f3QPRNeqc06jDVyrNxMe1SEcBxDmHSL4R6qcaXZUoc64hW2NL86R+GHU2XEyKauEZxaPuhzgIxJOkw76xZ4ur0WQVAUqnkfVtwo18amkkWxzU4ud2uHkUW+uiph3/BP5vhJ8xLDgt/E6/kWYxomG7XbGxXxj+GzXvgfWqqB0eizGJhBaQp8VTMJ5KudE45RpZxaP1a9eg54Vh4QUfe9I36p0Z9RhIpt1iJRQKJQsBy2jl34iuiPrFpUk9VInVn9CZlrJSnlbM18OYADCHPWO8nUPR5BUJrekYxrIg8ZEqtQ68IPCEw7VX9CPeYTehydSDQ8xoe+sfXuDzh2DNCr1uOGpV0/QWYjNDzZR50XTCP8h/uJtz9EmfwK0LHb3KwI8FpP3vSo9U+MREoqsnOINLfTFLKHwfMHnlPuwic9c+q8NDQNEOetfPcPSPqsjZniYaS/NuzssHVJK+C2Aa4CgoM9Y4ol9zEo+EZlPu07BB4kqiz24wcVrNSfoVJqhacUnTD6bHnU7x//ABV+RFbS2qWnWBz0jhDnDpjkOH3w29mPTBv9KPVuDFEG5uaAzaYX6548b/XpZBWWnDS7JoNT/UqiemJTzrw55wHQO/6LHBdHrGx+Lvhd6pmQSKE89v8A4MB8Nv5OXKCzXBWJurd0iLFle0XfK3xRAHFGmN0Uh6aSRvkD5trt61aomFlxw6z9GZltKsnshTCm1LWd8tpWCtoPuiWeNg8vWNSk0PypXqmtO3VA87udIvjHQ6sZkjMOnbLLq3/GVytmj6OZPnEDjoziNz2gZrJYuS+IVtR3E6IFzqOSflHJHBTthp4/9vl3eAtScXFc0G4DSNUJVerPMf8A898AfRxiZUfFyvgpUcUHUYmnPOsAVEqo8Q8zknNhtHDbPCT5CTvgk4enoba0cFG3wfVIvVA9YscI6qw64LNL1nMOuMg1LuUOKsXD12uuKfSLyC0Hn01Q6k8VfxjheIFzzzWpJPrB27YbVZcIRgRpTmjRbp3xqMW/PMnA1gDzjJxH+vSaVGFcJym+OzRBBU6om+gzqrcBDYtPJlnakJ23JTEs/lJ7dpxNXHiLqBRvpFPNM+8x63cth3Afx1fh69ES90vaHD0q+kjpgHzsuq8oTpT8IQ2FbptsJ9c19dtGfVsgJ84ls0IOmOKFm6C4nxJx6YUhkp0VHvuidtIsZYqosUoUnWDGBdbVeNsaHURzFeVpMclnfQTQzbid6n7R3ohO/wAha8w1trw+6HZtzxdKEWQEWq3DZSN0LIYsO2bIBJobtnVCDVO50sbKenTtMDFym9Tr/wBxug8hLi6cGpvPQL4ShNttOZpFyU/nRFPpR5dGln5hRzez3Rui4Q420KJl38aeyrGmowrgzCUb0xmIN4+ES48xLPukhHs6IslDoOZYiUUoJfckrQdqSa2k75KoN4QxNpdH9KqKjMHlLb76xKotPOocbVROmgvgrKUvUSkEjGlo3xpttfGDinKlah/SIZRbyzblMsbAUEi1gb+yEfObpzqXVf0m7shsUQxIypCegmgiZ3sxMuOVWtHJ0JGmEjfHSc8Zmpce+MRLoxP51w2mppioxvmNzyrT84voG964Wuyx7Aw+PT9KlMNt5NtxeZxN7S/zriVcUlbDo0Gik9BjUaiNKbz8YPC3kLxBXTsjMUKgYJMwruvETCLDzdEC0nRUJrDTilS77C6KRU1I0Kvjk+bHvjNNTSsoRrzJHbD6yt5wZ1HWY9qNB3yo+scFwj6pn80j6xd6vApz9JezIA4SzqSO2MiGkgYpa4yjrPvMAfSzvm5rZmV0GHFJG6iUYIXgHNisDr2wrFPJOjwaFprGlpcfVPR9a3+aRyVXGDH8sQM6zSM1kXQeInHsjlPH3QMEjDwvXNgcXXE+2FzVeE0jisjXp17IfNbPIGZP0uRDrSkMZYVDrdL2z0dkboKrKuHNzDzk9ohQqlQz+RnBEaWTTsjWn4GGxUpC1CHL0otRzR5OCEco6IbVb3LYeFyyPnfZTm135r5dX6OPrDy/h9MoNptacUnTFjfFIvB4ryNf5wMVtS0yBvVozOJ1aRmgi4jPCRvlKzRpQYT62mbqjPZNe+NDm974KKXK1wG+Am9WOiPr3oHrk2jhsheCCm5Pxhz1K6UGyBgM6joESy/NNYeMkcRPN5SujZL0Q+poUSqnzaeaIA+mmTVtY7tkMXtrT6yWXy06UmHVHxOca4Dmw5jzTDKrmwb1q1x7VYV6xzTGhQjSg0hHCQo1rDibVVjg7PCrEphtNptegxIrsuKJvmFfVJ95hhAbeUwKBlH1adfdAH043e262bxDqcMMpTjo5KhE0v8AQ55KblajoWNGeFYKHkZKLFO3woxMSzn6XOU/tHKWeyGWgjzeEujT7R/3GcnP9PJNW3EXFJ0xMCykuJ3j/wDiv8iJ5OVlC5jZrQpPOTpz3eRkTAUrv8M2+lCRzlKsiLGRZXTg0G+cOkk9phW+WtWKjp/cBohaSNIviUmrLhAwQ6nHrSOuFNDw5EwQVdvh3I/SXVEXby5H99OqJJmyfaN/w/cGkBlTLZVmcTvmz92JZw1bViL6EdB8LyqdAgN08D9yQMQIngH5xJG+B+bZ6O9Rh9ZW4dZ/cKa3kweQcyod3+6jDSalpWdymdJz6DfsztuGMyEGpMNAoYQ2bJfVoSeSM503aaOKJbmEItFsfxAOCdeB7IcuQ22C4a7AIa87KSC1ghk8tzNUZhm7pZXmq/Oq5fw/cMiMEKTetoaOcIcNXDuc4Eiuts3DopCVVSmcmAhHUmlYCLHjDTdgIRyWx74AplQbK+nMYXwjRKa7TFf1VrA7dMD9xdIgab//AGf/AP/EACwQAQABAwMCBQQDAQEBAAAAAAERACExQVFhcYEQIJGhsVDB0fAw4fFAYID/2gAIAQEAAT8h/wDpcCVTwSOaUdaZ7UdASi+KmX3KvSgdadmh5m/8I9jBSwxvaeiXTLW5P87yJePakztXCem6Z8nWz0jUKMTkuYiHRNOIuGYHLHqoKuRpA1W/K9FhImn/AIJAlQiBGbBZOnuwVOPL9kso7pMmREEAoGO5IJoSA6OncVAeDoJbjeQRtSkyQBaLapAvICul0urQsJXRRkYRuCrurUD0VnEYJLw6ixcFFiF2FuPU96GST/wFhQrJcYn7Au0yQAOJnbklt0VBt/V4KCIT6uqVOUF4UTl16XVFq11XfDY0h6eD6UAlmOKNRpLYULfRaRagPVSEiEMesZpdg43jkyS5zNL7OPQe/NEbR+vM2sVH+hPdF+DLUwu2cnDd4HVahOIj7mDpd7HShI+37xHQtYhBPYFKynfwvUQYODwNkbNTzIQiZr9hnmm+JS1l7nVHKcUTjFcXe3NfUUUYhQn+yTc0oOlk+uAJUL2/yw14hdqU6TcKINxotrYaozRQ23V9uYjgCJoHlcGBgAwceHau/j7eGBLQiIlk2awtAhEvhrOJJgi1MptzKH0k26mBUpA0ujU3EuOzWfrZjpLLSHZymyfjQarUBt5dlWhyEdRXcqVVy+R8vNAkhKA0FkSJEYhIDTYo6VabNPJmJ2FLHM/Wja9PPLiP+Jt3rSYP0V3gJ16USoTxcZPlSnd8t/J0rTwHRPEXlEdFO/2aZYHvEXBqTF2WjQ/H1oUXFBkhd/BparqZQxKkPLrX+SFyhw60YxYAEo9ElMfKx7x+w0Mk/Wbpaq6kwPkHt9qfeT2weRdq7/wwztfY/IdQBDcRIfKuS/rIFnXV/wBOXiUn2aFu4dh5nXx6HlFpLpzIlXlemIJ9aqWVZLwij0ERubsBHto4IUxAE7MCl4d6FcmbJ6KuSf69FVuXgnmYhHeKWkzcO7NIvrkj7mkhiKDabFsP7hpRTllzIvdkqZh9YuE8UF9rDeJ+i1Js7HiHTsPFtV8ZDDSZXOAhWhUVMSnORbdC6J6UXVRgy6ob7lGc8DQ9avLjANOh7yU3czN2bHA1QDZz4gqFzgqxshImw8/7CmKIFoaN0lBbTnU5WDW7d2kU4n5y09KsJGNBqfiU6NEO3WWnvkbrJcpnoEO4A/pBQTlRnWb7PrFyOKgQLuyoPyt5wI1hU6pmuvZIzJ1EynDBWoYZiyZJJO3diKOqgNjALJ4K+jRe+BgIkHNLCE48FROnNBHoB4QQuIzJg8xNAXMVjFsJrO4NMrnSDwRZ0DsPK8A70gCSy5wgJOEU/Cc9KyI5Ks1vYOmkjCs0LJRBbv8AElHLRKhDA7S36xxSUczXQW/HSoYBziCDgMkeCZpLKlvUvRBk2dolO42YSkN0viARWl7jr4kyaNIYtpELYrNkJbu1RFmay1QnZRzLxX6gIjQ2B2EkckubVcJCTCcZxeB5AZswHo07IszJd3Ojq/q6Zi2dvrDkFIbkIHCv3oiiXOPwXxhy4CuUw8nkUXe4Zk2ImrcVjlvDGKYuBboM+qeKIJEuNEsXBB2PGM2aw3ZUMGl8fWGj6vyrQ81N7hJ9qDwFWBeq30Hmt5A+FPrEBzUF9LExAtrG0iSGILSQuvZo09B0CK5OnlgWTcFLJsjBi5bsampCpiXyAVAAutMYgGeAt6iiVxuiPvP1hJIrDYNdrfqQ9qd4keDRYlzwNQyh0zDkNRK0Inlk70pEst4FRg+wgLB+fAS9xkasZfOCw0cRNheVUypl1ETaZ7NahoiGgfcQ1NL6nzy+f44RjvUYR5rnbO1JIz9KNkxWQIMNsDNE8vcwL0bGOS1LbewGkeqVrBhgQgYuR3d3qRtPi8s+9QNgqSleQIBcm2YvEloaCqiUsjhPAlsZpogIwGZDGVujXRMI9cQ9pTuGKCh8TI2dqs8HHFutCX6A07Tkd5Z5UrHNRGsUjJXMbAEfUKCOZ2Fm2xWl4jybW+SgryJ/CZAmVaihab5cfydKQ6poMzM66NQomUc4tENJg4akuq0uM+h9taOzzZ/61C7QRQatKgJpH1Cgy97+k0cEjt/FeQLiokQEDe7hVJeq2KZRAmIuhGQi7CWhigNEQdY1IlnJ0RoprkaFchz0UJEzqHcXrqDCZgJKlABQG8yue+N2KOnLBOiYeigD2BSfkgMBtvFISPQqetL6uFvWUQnudr1CeC2iu3JM8VG0CEE5eLLiFQRAJ2jWnqaNRAPYr0tFL9EWbqiF5heajOiyIYLcjeD2VMrf80QkAulMCk1PybGXJbwo97l1FBkfQsnr/ABkDVoKxWy56bsbpOCmbfXkzN0qeANiAisvcbRB8hsUOYusAIEDz1DvKozkDSdkH8KkI8ZPt82EXi9sUNUTCf8ASFZVMsMPLbANWrpv8DZW5sTsDUNfZzbmxtY8FD/TD+Ag73BTfysXx9n1xQcYNP4QYt5uEvtTQBEc6ux7lb+wHAqhIGLM6mYIQCdS2wBgWHgRdGJ6r9LEtR6rCGTDJdnZQCigQjcRHaKXl9TQgdIhMPWsnGrnvQQtGQfoHhGNgEmyrNEXBIHba95Hi1cfKzpG2fTtRIUihCZGoSozguvEgDVbDRDWptEiyEEWHsICUX5sA9KiciHdb/fzlyANauQ9SEvb/BnAKIK5dDcMIwc4KzuxmWXZbccB4BnKshEktJLuVf10YEfGnLkaSgWGCOEnqetSGNJcLsHVPZQlrP8AzqGxUAUg/q/4MtTCEH7wK98e4UrNiQreBWnewpFrwb3YUOgCgo4OYeXayaUfM6DAvspL8BNgEU9z3y1OlB1RP4AKW6DXe005YLMme+Y9NAlkeTb/ACwnRoo41OaUXUaTREZbHANgi8TyvigwAflNwcI02O1p5l3fL08mOlCuNv8AdyNRanN1bLoRsbZicgh9njTZki8LVy+BP2DTXd4Uzg4SBhn6y2pvGTfoRHmTPAFRtmUiNDf4F6nLDSFWGRKbF5QZ0UBeRhyG1Y8WGqkSHBz7pORpeqO2jzT7XJSnsP78DSnnsCjdX60SOuvcpXGu2kt0AvYTvWfeam7PcHqSUYEof+dXwhVdKi+MyaxyvEV2o8yZKL+iVBEFrBjIXYLVkYfga1peRFvLelnUm5eAkKBxbdPdjil3viW+2dT7NDXkTzyohyKiQFgIFztF8lEGKBIXJ+YJOovCX45ohrs4pbRUslhmBmO3GSNZa48nNZ8M1Phff633wu5dd5NaAwQVEJb0pvrQHbNe+elob1twRLaWLU66ut1c1YoYjwAQTKu9Z8A5MpFFLNOj1KcmxXM0m+FpMdacXhmPMq8kPJojWO5RGXCRBfEzDSi6EpHbu40g/hpxQfNXNibYHnpOjS4F6D3oJnOSZKMdCc0Fj3qA1xrEBtMAyven/MoJaM+HuAV0A1Z69XB+hGtRiDmYp5nWRdWIvhN7PmnCesH4EEugsVhqvvagDqpE5KZbn9kAVGcEuTYOrbF2AKufO/gmsVzhGaXNkzSQnes9O9CYHhCUBu1xMMrvahUFYAe9SJTUNSTvMEnDuOEqbCIRJjUhvGTepaab+oZrNJrR0iABrAsB2/kEtcZKMdLcSCEsMgijOFIt1DqMQizVwMGSWWwl3vTyyIQvEB8MUDicSH0hje1Mgk0PH27vWnsjNjLImjT3QFL9sUdVyxOPuJSzWCu9KdLLblTGovKNJCHSYAliiyQRAEBwBHhxQ6e3aHLPA9Ela0NHYQhdu3LdV0qSTcHnm6CWPXBWryCiQk2zoLFNgE9iw9Ql1qBkIP8AzXhxRaCmlyhyq9FEM+xVkudJdWdrFHkRdTCyO6WWJOlW3sUzMJ4ZstFFuRIwApUONQ9xu8qkRyhdKdEeGSXvei2aRZabJkdEKE2R5ZW7pZjZyVilhpyJV9Bw2vTbCGPvRphyzVZUKs+I33rUizp2eueg5pZCxyZ/D6lKEECBh2tpHfwRPoHcKc0VzUPx3VUHTqx1702r7mACbfavC0ur8/M+Y8A6+yBEDClSmVwxDCzBLZgh2rAhitJEKQHdQ4cHKm4CpXHn0tNhZDdtO9tl0QkgRETS+TiZTopFMHSgpOiQWUOxOJ9ULPmqS1pBdfQh9lNoQSmf6KAI3Y8IqWWjtZyWCStagJTq6rU09q7hWMBr7khYdoVEvJ9wmoCCrCLz5HcexpRFof8AMeb1agKiUQ7hTacSb2K6qBljNwBQuQl9BVJmhrBbJtZHZcFYkrKS2qXHAMXzSMQiZPEsyON4f1QnFAYGIdkMHitnRrHcitRrRLd0pEcBJI6p7KI8azcIcjetNIb0ETKozuXly1cRqWcUQZn9CpoxDoJomiVmgW5OpdFzEkTQDUft+O/iCoErgolL1n5qaRGEuea51wDiGovC14Ik7s+2iRCPdc/KkoQKjYNWouM6CehnpgoBK4VB7tFIjmAfmoKHave0TJPhPghBrj+fahphPAUj/ddvCNxBGV0vTBa/oSVvEBOGeKwOImhJySRQzVWe1BuArGdcBeN02ozRDT/nBfUrWx+bkLO5eOtTfSUuXSXB1CxiBPuoRzuD0YbUuyq2Ggvvlpp0By4YauWCCKMLwlF25jxIEukvJ2FAZsDnZb/etb1ircrNqbSnoe6U6uzgw40e0VzoHZycfFTjzZqqX8vUj3nvUHYoLaQ/SHejH+7dlsJ5HPgHuFCXJdBElLrOhfWBuOpqmk2TazGVuJUvZGbUeSal7pIwOV6S0ZcHqBk61jFos7vWxUOmoNXL1rStPHOlWbIPDqU3EMOEyOyVXqKs1M9Uu61zjwq5XWrgl6tJqdMEyLe72JrbjKEGOkGeVAwyNv0o/wChmnDJo9AriOjNWj0Tnf0DvcRqetsGUg051zeCYaX6jVkxuwsbMmk+DpfsR7SePa0iKC5Ud5AhEq7AUU4t5EyRHUeINKVUvhPkhWaoFYXrl2qCC7bjWBrrX+FrOeYhehU96huBeoZPZ9W1AGxGiWTfyCqTOlM1Fu3Vb6DZ8EXeLxrHeKG07eTrS+0HgNKdAaPWhI4j0VeRXGrKowOajIXKNIf29vLPFdfCIDIpBQN+iegAObCgtvrJuZuglUMe5X8rg6DR+nINxTDkq3tBGKIJArRlleVLmRo8kC4J2H0moHAssPag9OeaFmT/AJkHNb4ZCjm/5ui65B7rijeKL7guTnq70HNz8jEg4S9D/wCTQ9vMgZWUbUpx0eK6lsBvQewLsJscDjdfGY76y51ly+Papt45wRwTh9b0kVyB5Qnb5UIRPcN3xNFekWumH4KJP8yV5izYeRT/AE1N6h/QZtPHHg9p4wLvcgTm74prcw3B1cO003rQhKXbch2OPKq5bd25dC+zNaifhCMruuNgFABYoeifelMUr6F6urRand8nhny4uvh1qPV0DoWXiJTlTse9O9MkIm50jFSRsNnmCY96Zt/z12XrQvjRAm4M3a0Ilu6MLKnrV4bPnAb0AVXqJuVAGz/ypNmrIUfLeBJ3psXK72hIZam7QNHLlPvnF4ByIzTUZRdNb8BULXrMTkM8Wt1yQxW/mwNPC+alfefQye8u9KmYh4Va3CK0WT2okIZA+WsDvW9kSPQaO3R6BSggGhDiDVOmq23kIGxqhKBLwVS8TeaDnWI4xJYUVikVdMOwHi5pGzLL457kK8eu2RdstXjGgexdYgDQDUeAw95D1UVhWl2H3qYRd/ux9vDPh18Onhv4AtlJaHneZftHaoSu3bkelR4w7970mJ7Oo2al16/3iiTjm88FsHAo45smgjNntdVJQrtdHLs9nmt/tNF7HUk6VAZlooDK/wCSasJTztRZ/YnyqzInWEYii1spGiixxpVUhoXkssXoS4xEBwfxewQQfhftVyh+yn896yBEASmwU172xsL1xqSjRsM1OaxGt0OJalrtcj2EtQ2X3Ds0mkUBE089q8oTwH3YnW1SEyPxaWeBnd3aFUkrXNT8frRrIvd9qt9rOsTRU+R8M+Ap+TErP2nNHYnIT9gpsdcxM1eBW79uKG271nG3tQsC2JT+3pW4mH3Bkp4OMgPapOCxwNxRd9KjdhDbsph7ObFT4ZP6RzsPDWsVBSPonvQ8zJp/xgmJLtQPcykr3v7+mTqyztwslgP8LURETQupb7o6uatti+znD4Him1PkUJhwuo5rR3BOmPigUaMjRpIwH7WPlWss24pfXwnkPv40cW7YHOKSu+BXGMf32omHvK20W9xqUwBa4PesWay49CmJal+estGWrsuJNP8A2UNJwkxcIdBb607ERaDHiJRint3VAhNA9nhNa1fyxoLRt9EVCb6ZoDjb18uGIzkafDNwdhx7lD90h350+K531mtQBYDQXiO5qXZDRNCnonVX5DO5wTiW4OyTT07xUaUTZ/4Fit4GDUoPRPTkAXF1aeu91i5nX12ulhDWVz7HFYxSSZsbGrGzrzepZFpHlr9v5J8oiBQm2APdh+wpoBzmTJ96zVkJws+1LLCSvT4xJ0CJslkqXq9g7zJUmwQBhvPsFRlr87J69CkGRMuOhDXtscgSR+lW2WSn7Ll8e/gnFSgl0z1hnpyUR7Kg/VeypoPJ38Pdj5+41Nfl/A3eN3XpWb+bvTjfBl3HSk14br9/t0o/uKNHZNHw3ba1kYs+clXHsJ2JYdg4Py0aheUgZ+0aaWwPVmEaz/MF1Zla3ZdE3HWLhp1rWxfCr1O+pZugoRKVu5/g4qFYKAjezz1N/grGg3fSBr8cVih9V3R+2ohj53SP5rWufJpUzSX1GehTg0FMMYIt96T9hdQWttmirhhOVfWav0LIYICXO+aBoOEbuVlE6nhPnvjjeKUhhIROyzQ7Ksqb+hE1dTjNYWAlZALUhkth6Orv4kuHBGWAzxSXv4tRcX22H30pmmPNk3eOctACAAIAWCuP4N7Fy41Jo77L9OnSpJtjqEvCw3ilz7nFOVUR8EI1/CZKT52mwYGUModSrxchKZ/kPyAa05iBNYac6m7BvTu3W4be5l+wN0VHHUjvvdNqCbFQKwseDZffXSsm/JXP48Bhkq2h3Hv2xfatqNt5deemax5r7+Fi6TZooawBPqVI5a/Kr0qgv3Eonp7Cv2NREXz78RRPqUT6dQ4VuVBH7R70ggry33q5UcVrJBYSfcoWMRzJdUFrOZFZenSfQtwj1SaRGsX3ipX7ceS5hCfQfDQOiIpyTX7egcCrlIyy8j4KvI119CMW2LdaWbv8YozlUJqDzNrT80LQsn8cPg6tMn3R+KcldiZa41WvqZTMrBmm35OWRzHttS8JhbK2TRqdM/xI4kFNEE0b8zAd9KFuf3xxyxqDkVU6J/GegVgZqFe4eqH7etawDunlAHeJzzv81NyOTY5/K9bwxXfqMlaVp44rGtda4rXwsCqBlVxUNmqAnkD8lGShuFfiC1KZj2VGiIdNf5avbwFEdOhJ7ea1TqDDOt+SmVmMOp/gqaEn6Q9aJWWWFddenqqbEkfsg48vfznC1zlbBq0q64iF39Ml9po9iCMJtcfRqJ2g5nwJPD72wrodMmw8H0rLKNyrZX5bm4zz5urSPSRO0nPH+wikMsgnqft5ooBE/gAyVkoMbHXaGWoskMBrwXLM9heVbkSxUvwNBgC2lF7UB8xPqg/s1Hob90HnAs8T3Yq3RMxc/wAe5RAZtF6t3tRnmL7T9qcA+HTyFs0CsBegW3TvQdf3SsEFCHqQelKqaJz6KSgGYI9qSvLIJ8V03ZN81pL7aWBdcf1QYWztD+Kgcy6nexn5K43XaxPv5elCjDSgadXEFYR6L6NIbwm9vwfml8q/l7eEj9yJy7FSL/2P26trbYul7mIV31vO6pwDeWzoik/6StvXLcNXXL6DOMtDl3lBPnVwZ/PdR1KJkabfEU68PNX1t5muT2JRA3hIjK7iLx2StUf2JJGBclzz4qNUlgZXassN9lWNqg7r2lWYNLQHsi66quaGANgKjVq31Af2ai13H7h/EwhyOVcauL1Xl7KB/JEAMTefSkKcWQo7A1ILZjDE1weIKwa1F+NieQm9OFxR4S3gG+gLgBltyvykzURm+rdQVcMt8tBtUd1CXSGwukjoIhogfyn9AsUyga9C8zT2FCaSuucDX4mVo0C9MGnfgYjistj8zEs+jFXRlHIsxT7kHljB+7NOIB8wNz48yGAvHQ+zipUHa+hY+x/i6eAKVnMzq3eKiWMcjODddR2DsKNO2Nb/AE20UOwmWKAEBROsQwrZmGA21jj2UiWomx1TKifYS7dsU60LY7UJAJxPHUxo0b2W4WEDqgYgCQw/SZHWj3nzYqKmNWoeCDip4guDjLTYqrtAPJKLiWzBY3wf3NSvxd2Pm+/Ss3sJzvPDnz8eK7kxc3YqN2Sv7bvfw58Px4HKwAK7YO1RAgJ9Q9bf7R4+weCczk9jCo8IBOKahb0JkYeEE70pDqYxLXSK28Y5ZwQQhtSqPboOrew8jWpkhx+DTMGFBkRHW9WDCUQWe2M53smGoBhgzn6lp6MVgNtOhjzNFSaQfu+QqCl+8H+J+fD8IBl7aZoH4ZBs3fhLUxQGptsYsbGz10HKDQ8kOTTYXO9JLdFL9qhwmJh8qFsG7J+1aKCPZ0nFFSgeUBKoJegMrsGtK7LAzevs0WpenWUwG3uOissUhEm69wqXe4VToat3Skh4krLGUjpWZRj2sme1Samvo4aUE7l9RQHUYZ4X8NPKHJtMaH9Se9RRwFoFjy3pEFAgLDUq4eegbL2/xqFxUCEyPSDOxpFKVeagAOPINmm5NPovZOA0Ljce9SFA3LsfiufQYezNI9wskaYK6VCJlEDzKHWjJ2gXayqNFeas52g4bnU2KDOD29ljtr0ClSTd80+0g661fdy/Wd/eHv8Aww5HgLo7/YU5TKGSrR0k7hbl8RVY737b0LQA0/nZDI3a0aFwnsuZonowupjMfS0tCrhYusMRWew5N6yGEnLu5paaIm+gEq2BR5xBuOvXV+W6FDv3Tyl1YTmZK+T2o2swB6AT6U9d5ewKR7NQG2vpmLojrWraBBXZcP2qI8yuI5XQK3cl6Tn0g70eHNY8HFTzQPaoF9EVHHw5oQ6sep0pwljjmvTvV96wKelM+fpXO9K3ChYI71PNRYoe5UY4DuI5rFrdN0XB1J26dta6hJF3Xl8nf38e9RDrE3yfRXahDHmzRHAynaBDLpRkC0lzJMBkwd70WvBpCOnts70AcA/nIiJlWn7tA+tJwd2/FGIbhL5Oe5aGgZxz3cNOalarQrV/rMqmA3zH4o3FUhME/gug6d0oqN4EH03D8t6NDg4qyeioeHdqdTTernNyiLZfDbinXDicvHEuqThXq5wDXUzpcDqc1gHoacOz5YuhF38+w1YWfVX32O1dPArFR4cVmk/DhaWZcfFGwnCMWfd7ZrHlUstFTVsJi1Li5fmX4lTiHyIg76EsJRs5JiD80TyJRLmEPBew1EgQ1d51KewECUOr7etStHezwHY9/C+a7U+Qr0yLyZfNXrJDws/Hl3WwEq6VHY1y10GvKsBPNZEYYHqmYcnFk0nsEGXpuu2B1oYYBof8B7DsEhU9FI63YoBmQMDvLwoOw2DPq0OjR5yRRO3xKhWe3dM34HfpqHvYIuIJe3LQeSLugaOC1GYAeWIRK74GsIJSU52rbe6RFyYNJLfrpWGMdh1WrXXAc+0Ph08Eg2zjuflRPTsO3j088OCcjaP7X+1YcsqCbTnp6Wr3Jx8Ci52TArsDtS62PjZR6Qd5zR4jgKHWym61WtkXJJ5FNPTgkP3CmOTKpu0fdrr/AAXmgts/FNbdF0TXPgJwVHmdSXu4KWKIQXdtNzbiqyjRuBNJ9CDeVFnvsH/S72ouIDb/AIUtxkGEd6gceCqOiGvWHjphhcsz1bV1hwdsYHpRmKbFAFg86CQ0SphIZHcqb88UP8jrG9SzUmVV5tl9sbjQUAyvs8+Ky4A60TMz4a+PPh0rt4lwvVRZ+g6VkhCWmfoxvJS6NUyl7ghA2Sb1Ks3EZzP80ByhhDgrLfkCdMMNZFZLnV4NPWls/wBL3fovj8fwYTyb0qWhbUkmd6PdWgD800zdu48Ad2lSiwAnEs9irdkWO7IB2ZDcqcM2Ro+h3y0jBG5Nuq7Q8oH/ABwbVwfSgMfxkmzW+MuhWiOjRO3vrbbNJe0LlEaPYZtngnYkmpQzv9ZOzx4MPsyRxTAdPHnw7eGtZ8ela3VzXZ3PihNY6TiGj6M9Sm9lbBf9kGW4Wp2xXPsRA0sBUZnTeqvsfPm7UUeSz8ceF18HeoLQld0JCTmCg2a477lDIPoYjotMQGdMeufdUv6JY65b0BIBx9DQSGpzin4LcDo1Cp7QdE2c2hm/BVwQuJ4Bt20GU6yZsJ4pNTYSBkt9nvQWFjDvXTw61r52uK1YSO9xxxQA7m7O84HluVCBs5C2Nvl46V18mdK71bwBWAzSXUMZRAP+Bwq1YwWEvvHZVq2Nqxw7UYD6MgIaEqrhjFG1RF7zNv6mrKoGOVwLzc1agYAzTOmZdh3KmmQ8F9+e/jr5c+aXDFW8Hfyx4e/hzR54cxhftP6rTf7pfVyTcKQWsRckdDHb6WoAzuUKYi6D3pe8gvMEj324qiJ6jggSdINcV1rXw7+MePTwtV/Dnzd/DmulWKlyerZ8qmWcjll2OY+crRQLAkCRo9r8qhSAfTAEqRXyYft3OQq3WEPlVFnrKwbfoTo5KmtPGda61anwfDHk18uvgFYE0SvWlu8tehVsYCZeybQnAkW1yHeZEbnjad21DeGgfThGoKAlRjnVBbZ5k1q5iRSDsp6i7RpjILu7zxz4X8IuEiVeztXPhF/4NK08AWxQtSyIwmF7UYBPSpyJ1Zu2neh0LY/tA8HekJ2MXNjqmxXVUai24aAfIHB9QJHIqO8dg0XrTFpWetXeBMLXbBsjx3U8pDYnQjXQ5o5OtQXpCn2wQawmARlaGo6npWt/Q9HflR5ceHTydAXqehrSReKDa6w0c56VHixdIujBSF3PLTBA2RF59SZ6NWlelyct3LoLEAF4WZbN39+9EiIFtwGJMBoqJnLZFOjpMAcdaHSR9QzQncXBUNzHU05IzoeKCadBlYBk4N9+uR9mHdqGpX42jRJet0y4YljV1UjZqVzdCTSrMbmLc1Lu9jN7PUqNH3A9SSoErhfallzx0qJqEELKwerVtJ0JeuPeivqOAmD3Gr87ySQSruhd04NXsUlOgBghZU1LogOFwwrhTFpzjGGbdyvAV86/F8ur3ojS87saC9BWh0yAZ0ihUHZGz6mIpEqWnc0GXJe52aavrwAgaBIwEcQVqSG3o/igxE/0lpa3IBNpsdFX74q4D6w+tQtrzScBAmHSA6U0WSPLpfGOtQKdXsewHvSVeRFGGYIM4xUmYE2+DZiSsstxMO7UCwJHiKRe9LzsvTMfHNW6pwYkKHqUpMABRgCZ0rr4CrsgFbJUtvN0TpTNk1o1UO7yP7pskuifP59FEKVvoQuqtqH2BwGWDiAvO2mX5SYt+q9AQR9UE1IKVeflci9QHpurKnPAuAdZPWtsBT/lKww+mdo9lPldnKXnDWd9oTd8L0qPPmQPetqKNPU0CC7yPA3RvegwejPmIlNboktGdbGQd50+TyMG0AiOtFgLdLeK5ParY3nUnwVFqf8ACZauxRa07WPVq8j5vdrR8qjIAZve07Vc7rSRLsCffIOqjKU7CSKzyNXW+qlERgkH1UmLNJgTaLDf0NFq2UZtDDNKOma6d6mvrqiZrjWT+VSKnqAOzJQUTYsDxqfFEC02Gz93rQIT2r81TRu1pGocjufirgUiver2RYOT+Wv3S7R9zRouuyCei3rWJKxgdjwioFw4eUNu/Q5qK0QMovzrDuYaWhrxtgcHAe8tBA+rGxCEJR6/KR0Scphv0UnUJfo5X5rPNuB0Vq2Dr4xvTZD1Ye1IIY/2Fqy4zAxFEhEOBO9FBVCgCYu50rew+R6uWoCSjp5E0nRN9t92gqyoRqUcRdY2KMmnKRor/Vr61F2A+rpNmp6DE4LcDvRHiCMC6nAflHUmljXTnuHUU6lB2lnSDcqa9BUArc+kuOppQWY2TY4GqNWrlgugHaDRPeG6GAmInINKBYtu9NH3qeZNK/Umx2mmblJBwVpyYo/B3ITn8KEL5xmO7TvWB5w/sFPF+LMt6R6mF5aQnuEwYBaxDFrQWKHSIID6zGipTISvVGqwlQg05nkSukJMJZhBECQhMHNp3e1a6Qq4d8zp6TVmjQignUvWqMo4ePBXA4AnvUlLOq+NqhzMYYJ0aErkABsPvSnLXUneaxTBl38dKXAnIzpx1xFRykXA7y6GI7ggXZA33XMIIcQz92A9MQB9bjnNaAJEf7nGGkjFLIaT9VbGlpKRwFsD6BM6RJbH6nyGzxWviJHc0YGntLxLOSX/AG7QzyrWQarYWmCy8xjtA9QdbzLeVXNyXvfK1V1ax9cAIShqyaIXAdGrb3eocRGDJEXvsqc0OreIZOwq0wNtZNIqPGDiGy8HNX4QjUXvrUUhHYpDapNICRZeW5Tq0AIPryCQlWD89wsH2oDG0MLJ2i1FpMnvEPx4kgxYp1PzCrtQKijkpuzQOql0TpStiKaCy9qCLof+AnASyKsaHbfi9iTsmo07pjKRv8njdSxB3F+KDskm+os+CTxLKrtPVwUYC9MIjqyv7WvdGZ7/AMCOsileN6CT25h4eKfOOHDELDvzFZpb5mJh4dSnqeLH6WnBu5x9hy6tih5MWtgDJ/1mxT8z28JjRhtgUEkfqhtGW5FAnJMUaPZp6tajKAf+CHqIESrS3ZOgP7TmskO0DujV6KHTWF30Z3TPao8jWvrQAj4aUOqGGh/TNq3XWL8F2jg/Il73PTjigrgaf+EhAR3KaSXQhoOxwcXrQQCOKHgXtSk+ioqCP/pv/8QANREAAQQBAgQEBAQFBQAAAAAAAwECBAUGABEHEBIhExQgQBUiMDEWIzJQFyQzQXAIJTQ2Uf/aAAgBAgEBCAH/AAFt/wC9tbJ+xz7CDVxlkTLTjDVAcrYBOMuQKvyR+M1p1/zFBxCx7IHoFP2C7uYdBWPnSchyOyyWcsiX6OGmbmnuSosPf8Xrh0i2FWt9MCYaumjlCjyBTIzJA/ep99ZpJWVlc0nrwM7pOHQ3L72bMDXQiyy1WEX+YySWK/wYB0ayPh3e48JZHKpp7K8lpGhQuDRnD3mWvB+zjjV8DhxLb+H/AIc/3pAikCcIvZE2RWoiaVEVNl4gUAseyFzA4ZjwccoxiRE3XTk2XSMYiq5Pep9vRxFPh1lYCFMqLyqvo3mIHJPfIu2lTblIUrY73Dc55HK5/B98j8RFYzl227erZfYIirr7erJbi0hmDBq7zOchBeIceMZVml0FJEiRk23aPKpMUsTuPKrnxKMfh1cu2sLCP0Ayu9zyKdYNnXZDl0DGx2yIqORHJ6MvyuJild4jsKzO/lZC887FcurstCR0f6tpa19JBWXN4l5POlywNh8P+IhmlbWWypt6cnrZ75Ma1gLijLUcO4uzyCSHbu9EqFCvYPw6da4rkFpKZT67f255JkETGap006tBkZXXN7j91Ct5JaOJhEk2L+SCi/f6vFIYraB5SL8Qg0eLQhzrGViNjBcUPDHLHXUBa6VzVFTSIusiOr5vh+utMsmCNyvMESbqM4Srs3ZdRaidL/RxxBMh28aOTVm8eJ1ja+Nw2xmWYqZDZfV4iVNxR5EmRwkvqO6TylndVEiksHRS4M+YzLYflmUEAgG9T8Xir+iyxuxEP8hhDRi987Fblxwqw7rvZPcnKFjppQEI+ZENBP4ROUOQ0dvBiaaiyCtakPG68MdqEBAhR+49cYsINk9N48UoiBI4ZLGdMyu6arRBZHCwLPqvYMjFY/iDircZt08veWwLePD24McNzQV+M2PPMK5BGSSxrmqNrnMc1/iwedfkABxmskWs/wCISetNRw+OXp1j1+284nsMLF4ySLRu/NURU2XKOFmL5O/xSgwDGsGmI8DCiJ+nZU+tkuOw8nq1hn4dcHa2rVLCexjRtRred5DSbWvbr527j1xBlzcZyyNbRoMyBewvO1+gWZgi8N0mUaW/qeMbyvRjM4yQMOM6nhcN3KzNYmsLF+aR/pOccYKlfY2DLCU4pOiO77I+TH0OYN3Z/wDbdPpmM0CaoLwsOV0kY9pGI5vosoyRbd4k4uCa6ohF1W2k+nlpJh13EOpmojbQNrjElNxSL3E4SblveIRTidGqdcOf+6w9YX/TJ6HOaxvU7I77zz/ADyYR417dLDfpGUgHdhGYZO30TmQDdIjzP3VxUanSOhyIle7wjAOGSNCD5PY0jVa6VjME7+tuY8KnZLAZHbN4AZCH+gXgnmw99i8Jc1FpnCnNCLqPwTzY6p1V3+ny3KqLKxXg1j2NyWytAjAis6BWZCBhqRmpEgMUfiFvckJPXwg+lv8AMJ0qiuY7sA6HT6D3tEzqX5zvVVIRFTobyrreZWv3FXZVBlp0lGQZW9TOdhPBXRlMRcyczu5uaCdpc0A3Ts0EiaqbuLat+XkUbTCUbpmRvqwpHdOs5li/qL6QRXF+ZWo0abMNHafvpzChd3DLYTs9U29PZE3Uj3SiaIRFTpb6cYjyJkrbUeOkdFRNGIgROIuX5FYTJgIgYMUEYTIw73OsqmzntWi4jZBWGRJUaW2zgDPGn334fsIIX0Ns+zCqE5ZVU+bjeYZ6Y0bq+d6rz3XWya+/o7Im6veSW/oYwYxj6NKEC6fCGv6CDeJdnc8XheUruteeR06QJHmR9Ltt9SYldOd1S3UGNP8Au7FqPw1ZHxzBJUa+83Jqq9lbDQSclRHJst1D8jYPH6I0bq+d6rv9Fd0bujgFMv5rWtY3pbzVGvTZx46hXdNRR+LIa3QhtCNGJzMEcgSjJl2Mzxj8OOOBkYhdKGkcWhGVjaNL88bptMeom1o/FL6M1EiHYTk1jnrs0MRGd3/f2PZU2WRHUK6qdviDN/ScApIlGTKccsYkV7IWNR87kWP+6UVAyvTxjenK1EeS0apHjppOybJ7PsqbKKOwZkIwZGlGj09JBsKxWPr6ODXGcQfpkHHGCpXypD5UhxHe3x2wQofLu+nIkBij6y2tsWwJsnuBFeEiPZXZAA7ek7HsIm7QzN5Cxy+lyo1N1m5LAivVXfxTq7GZ5apJMl2B/GN7pF2XThSmfOFIM78RssGy81vKWF4rYXGnFSu6JY+IWJFiLKSXxVwiI3qdkHGSuq3DHFsr/ifnD0AkmBCsoboJaPD2AjNR8pwnHXwvd1k3yMpH6kUNTPb1ofDis7x7GjsAs6ZMyipZcFYJ4uCYfFJ1thwLSZ8oYeHq5eqVEqYEL+lkVl0N8qP3tFb+XXwDboib6kTIsYPik6Mfn/ZK6qjWOykyWqjlQLPjFd5hoUtrVleLpa97iOVzvfFsbB8Hy7XnO5nhua97P0qYrovfUcZCk69EI8rup37BOYnZ/JP+IvITegLW/sRB+KNWa8IvV06WKvl0YgIjmu6iL3/Y91/wP//EAEURAAEBBQQDCwoEBQUBAAAAAAECAAMRITESQVFhBCBxECIyQoGRobHB0fATIzBAUFJicpLhM4KisgVTcMLiFCRzs9Lx/9oACAECAQk/Af6TvAhAvPiZyE2cKe5q3g7TzgM4dD6j/cG0VCh8JUnrtMryT08Vd+xVDskcvYPBTdeTcBt+7K+VPFSMB2mp1VRXDzajUw4pzAmDhW72Ad66Fo/MruTCHzHW4SFBQ5DFuCsBQ2ERHr/8xQ+ne9mv7sPpJT2evcF2kqPIIsA5dvFFVpV9ox3oqdshm2mmP/HL97QeuhVSbvmTUbREC87jsrV1Zk0A2tpYCsEpj0kp6mfh78JFg8kyOcpZBQ+0YlK0qrviVA7D2YQJ9dTaSRAg0Iw1BB08FtOUajkIMMoMPOKAUs3lRu2JoOe87omam+VOafsLS1JeOoghCLVYVNJQpVnltIkbiNoMx7E4QBhthJjEmrcEuzHkUmHbzn2CEHSHtoi2YCCIRhSKjGQ2kyDR0d+lIS9TVJWkmdkxFIdhvLt07cfzFJXvvkTb33V1MjlPd920LfmpSpSQTsBgzkOUmvGKtqlTLP8A/TvblWUqQfmCgSNoMmfkD4YJSoYgpAtDwQyku9Ec2UJd2fxYSM5kX76Nbsb9XfPlcBOOZ+EX8zaQpTkIWt4LglIjvRQTgJQZJQp3CKTnGBlsPpl2UDpOAF5Z8Roy3YWmERaiTGOyEIGjPIpMkLNQfdUbxgTS+VNV35R9o9veRhaStNkwOKajlvZJDwIsvEGSni0GCSramajeINdIAUAwAuGrwTwVXu1YjLEMQj+Guw6nK0qwJgXxJM4ykDkdSZolPvKuHaTcG05KATwE755AcVKOKnAq2mNW0VLnR3rtYtCbzepKgpa4zmJik4MkF9py0lQvS5EknaSSofCPTPQp9o/nFO77EOFtTGMPdJODaMnSHi7bxFqMHbsmEJcK0QTC5nK9H0j3Rv3SuchSekDNlRfOhI+8jvTQ5QvjrUSOufdrmcOqTFjPcTLEyDcAJOy1ER6LO4P9w/dhT15ghc/JIwEOGb+pRUsiDuNYQs2uaScp4em4JsxPuqACYK+FQ6yk3RdF07iS7UiZdWpqTDjO7W+hVNEsQaEKFFJMwobQ3CtiPy8f9MWSQYCM72WRzHuY2hlXxsjuPlJLvfGHHd3zrKuYiJtQwPQN1VmNJR1DNTp+rnKIdRbYyIq2mrIA8Y7g867mM8RyjpCbosIKEiDUFkQUuwhKRdABIDUSAOaXphFJkQaEMPMPZpyxTyXZEMkh46dB2rA2SbJHIZsiCzwUm4Z5m/ASqSBu8au3x2tsOwt+LohsHN1V0rkSQlWczuxBHSwgLtwwF5wF55G/Csqdo+RKDDnrytdPt1XdleIkecdsRkybb2HCMyI4XDkEZsfTyNUq91WOzEXjnZQevAZYDZnmZ4AVIgBqVE/HI17VW7gRcqzJQORBTzRqGMuMjjOznlgr77iUrSKWhGDfYMIksqKz+Kof9Y/v+nEDFX7FNh3atAw6WVDaxlzhpelq00qYxB1c4djVCljnAPYzwoWLx1G4jIs5Ltfvu5pO1BmOSLae7/NFH7g2mpVk7BX0052QXKDIrP4ihtEkDZPPcxV+xTZdupRuAOnUkcO7cr6Ku5z3lpo6mMRu0YkHn+/Sz+zYVaplCh72fhW1MP2lbBB+v/wzpP1DtgzlI/OnsiwQn6+xDaRDYntJ/tYlbwXk4yOA/THNkwDXQPJER3DANJHXrcJqtX0VN1UsG3qujx4ixiNT/wCs5kzrp/xZ10/4s66fs0lYbtDJkReJllK/lZWtIMINVpNI61GkA1NZRCRWBZSjtMdy6bGD3SFFKDc7Sma15qA4IxmcGjYTSJiTeSSaqUZk4lnqnASYWEEos5GECTjG/Bll+6vC5n8qqg7YhjbdKEUnsOYoRiySPLqKQoVCopsxF4Ma3MN8muG6N8nq8eJa1NUa1GDJYw1aq8d+omKTH8phdhLoYNo7t4cVIBPOW0Bz9AYPNHj/ACni0/pjZ6G0o6SoSdRiSI1UqMZigAlfsrft1KalPRCLGWA1qbt0tQRBbSVuRGKVp6lJooZcrfxW0r4nCIdE+lnbpaRxvNwOc1A84YO/Kk73ycafFdH5W/EPRq3jv9Wo2OsIgs8sWuCuyFWTgQQZGh5wxQlCZBKUpJeYGIjBN9xNINN4ejWuDJ9WLXz1hEFhM9GtQNU+sVFNn29IYBpIFB2nPq9ZMCG3qsbj3MYsLK7sxl3a7wJdpmpRpAeOEZMgvveXxEDM0JNwSSWUYXeuGIbTFpRxnRiUUgLM97OBv2s4VpEFAFKZqA94Xq2crWnC8FgpPSIfqbSU+TBhatJhHCNqEcm0pJ2KSegElnC3q3iAtNkRilVDdXl2M6OiaOTNRkQOWyfpSNsGQVuyEiESJJhCJE7gyA5cp4oEPGZPSwgm7Z65Sh2MmEbwzzs72dhacwFDtbRUB2TagkWN9S1vYTh0SbRbR+JSlDmjA8rJlzAdzL8eNrInj47GM7+714700y+24retZ/b3MAE2IzMoxg09lGXM8zcM0yzLV9fXLxJjJixv3Lr2MfYePZ7FE2rX+ln/xAAzEQABBAECBgADBwMFAAAAAAADAQIEBQYHEgAQERMUICEwQBUWIjEyNFAjM3AXJDZBU//aAAgBAwEBCAH/ABOMbyu2tFSmd8XpSA/7dSD6fhk10iOnX+BAF8gqMbGiiij2t9LSA0f9Yf19MDaJSL6lGhRqxXtVjlav10Bu2IxPewbtmPT64bFI9GoWfHhMQfH247rxGs48hdvIxxR2bnkvE6/gDdDcvQlm3/cdxPrWqrV6pzrZKyI3V06S6SdV59V6dP4KtbNGNVYYBY79r/4NnRXp1b0Rvwukb46L/AxQieivLHr47gdFkQYjH7Biq/8A0QcoabRrFQvxM6A0a9Uhxq9ybxljRHyVDwqdF9YUN8snTidBjDjojJcIkRUR3zQhId+xlXFG1rlfY1rendF6xSj2uEQR3o58cAhMC3o30Ix4394QpYBNU3rFjPlFRjfxRk7EeQAgWod85El73fOqlUJNzu0+RLeoxMmiJtW1h9gncb61o9oN3vLHskORKnEru3K9g7jDLylB3zcS7evhf3MYlAmw1OPgTVml7j7OUxE8cXza4wTxvGJ4x4/4xRzNkD3JYIxYbtxMlshyH7R5dLT9eF5vi0WfutJtZS5XT7gXsCCihsgwf2reZ7Fgn7WhMw49zeQnIyxQyyCBxqqkSi3Gd5DZ2BTpIsp8r4F4wa8ZDL4pUVr29UGNkOOvDl3O6/ORVReqVsvyQ/ijhUDn8ZpkrBC8OPz0NydyFfUGtq3yJc6u4iv29OvKRXkcVXDiR/HFt5FIgmblKFY8BN2ttssLG0js5oqovVKrNbGA3YTExWufMIobPF72p+Mj50WS+KXe3J8xOFyxY5CPK9Xv54nblpL8Epj/ALOlePbueKOeRJCxhHjf2jcEise7cghMCnRrnI1OqxhukE7z7T9i7jXaapJkcPrGjGmSGhFh2HXeMVDRxvOyaH8ZDoOI5O5WOudNZsdFJXmAaMVRl+Xi+Jy8iNuXU3TSvdTpMriDeJ6sf6YpbvsNORGfkrVZl0ngoRnZtesaUH+2pTt/Uj5T/wBA4Tnu3H4tP2TuNbf+QDT0axz3I1uk+nCwWtt7HlYVMC0YiSPKsqL95a0dPkkVFNkeLz8eN/U+TiWKlyGTuJJkwKCEwQ49OWaRJNrqRpSO0R1hUyYx4hlEbkx7hvRza3PbyuiEiIupy2MzyJoc4py/m3KqZ3DL2tenwW6r0TgmVUw/zkZ5UC/TaZ7JlMVgJMuTMJvNUCEecgicRYkmcZBA060mZXbbC39ZLPusRZQjBiWURRky3EjY+bui96Glk31i2MJ76/Ga0YA1lYYZlmzeWXad0WVsVz8m0uyTHnK7ggiBftJzpKWff2LIcQGjkmYRRRpOit7E+JQaLZHKTqIGiN8cisTKsMuMSk9uXyCV4DNI3GNN5OZynSY+K4FQ4oNFj+uUZpDokUAbG1sLY3dlYrmcqhcgDRrOkyCKrB5Jp9Ngvcev9YsWRNkNACqr4mG1KM4rKswzLNm+usz6WoEJASZSylRV4AJTmaNIdRGxKtSHGdB+5+MGPHQA5Du8YDSwDd+Fj1ljTpj7EmSW8WxtJIXZviw8YsUaHlpZmLsau0CVrmvbub6Zlm/gK6DXuc57tzuXXhs+c1u1PSLFkTTtCCrrKnA63zJ1pk9rZ2nmoDL8lj/pq9TZwnI2fV29fcx+9E5KqInVdSb9b/JykTnp3fQsnECpsVlRHEUSy8DpZL1eH/TuHxN08Lt3RT15Kgb5Ftkd7KyO2JNNyRVavVNLb/7cxUe/nmmaNgNdAgqvX5NfHhyJG2VGynH8cCraiytJ1vJU8rnX2M2rkoeLi2WRsiDsdxl877OxqSZDFccriO5x5BopkKKiuomeBbuXCciGPe0YJCE2to5N7So+VZah57Jy+w2j9NBJpElyI3KbPh1we7JyTUMklqx6z8/oYsqRCkNODFsojZDF6Lqcjlw83T1iyjwzoYNBm5MujjG99hZKFxJGdZ9MykyRxeundnPoBvlxpGdZRI+HEmXKmE7h/o48k8QyGDOzmZa0hK+YUTglcN3qIpAkR7L3ML3Io4wzPWLGLLO0I40dkSO0LPp8orXCP5TPlxosiYXthqKcVYPr9SQYzDVj7PGpAHb4zxkEvR54G2MkkPq1rnu6Ni4tYPid59bp5NkmaMthV4/hdOtZG+rqbfD7gCR7i0wSSCI50HK9PcdGcJ4UjAJrfiB2HXTSbOBYPdE/OBgXc6rIrKSnrnbY07G2xKOGOVc6i11NuiY4HyO0nf8Aq7SClhDUXFVmmUY6XaGHrUY7GjtazKNMcjd0emD0k0fdrh4EZv4pdxd6Y4y3attrRNRihprPIbm4Ir5eMVe53mE+tyGm8tvkA6Kq9OIlfNmyOwHu5VUrwS8yCfVcR9PcrnQHz1THbnwXS+KWnfZF3Oa1rGo1v12O1+ODyMcuxr8dx+JL8+JKr4M5OkiPj9NEzDoPjLbano6d8NWsYNu1v8BphZGIw0J/BEVczH04yqellkEgzf4HGrlaK3ZK4Zd05Inktj5zETLSTCZRn8F0F0es/wAVf//EAEMRAAEBBAUHCQUGBgMBAAAAAAECAAMRMRIhQVFhICJxgZHR8AQQEzJCUqGxwTBAUGKyI3KSouHxQ3BzgsLSMzRTs//aAAgBAwEJPwH+U4iWMGUWW1Y+Dyt+AW5VrWe/3fBbWrIZHi1R5iyGTBjEKl8CmGlZ8FTUb2EPg04/AY0Rc2cLGJKrt7HYzyrERY0jsYUhdaw2tEqNcbsqVrDOiAGt9sK2GcDBhpGUYBUPBpRncMqfm3/IY5SI42MuKgRo1NJA8fbCpVUWVRAqOJYhSfFpHKt9gijQnTzYGcJRlgyQpAmpJiBpkfCHMuu4VnjS1vN1UmoerSt9uYm0G39edQKYmFVmqDOwdo3s4jdGBCcYSOuEGCTEZigJHz+8GchCVxQtIkh6mYhZH0ja3FfOI5AiErR4MqlWtZxKjmj6U6mfmC/K7RhIM8J8tnMajLjx28xlX7h1g0iYsc48fttyDUa06f2BGpLfxkB8j+omo7SEx0tJdeu0ZE+ecQTtY1vD4Cr/ACjqyc4ePGxsxKL5G6QOOws5NHvCsbRLXD3BMDCfE/LSxiTkWEee9l0QhJIMYCisW+GtuqFqo6Cc0tO+/mJBw5+qJD1bitrEj/I+oyRFSmfpSpQBUlSI14qCgY3wtbkyXovdKr/Cueos7Ae2iHRvBpFUfzBl9IO6albj4aGSUqEwaj7TNciavROPgNgIoqdTiZ414z2gTiIEZIpBytFMXpCkqPnsDCYQdOaBFhEMaQxntZ0fNne1jHCz9ecySB+VOQIksnOmhProuvNcgI8yIkSMlJ0KFYb7Vx/6Drp/qAdYfOnWGANWatM9RtGFYbOdmSxLQbjhs9lmuU9Y3/KMb7tjI+VCEzUbh6nWWz1WO/4aNXaVeo6mTB5agW6N2y5kwUOc1hjF2vrCUeMAGTnUQnCA0bmV6eYDPBtG9lspng2jexjtPG1kQGO79WVEsOsCNcDDmTSUWTFdiN+6ZtgKjk/9UnPR3Ce2jDvIGkMAt2saiOJHW2c4VI3fKfQ2+w1nui07ryyPlQgdZauK1GQmxpP1bEDuIwvM1HnTQe94eu+d8WRTd94cecDgwgcchMVKblrpSxYFAlnyE6VIHmsMtKheCgjwWz5EUzrSYaYKMGTmmSrOeYMWeBLiZvEbPOzYyKTzvH0u8TjlZ7+6xP3t09DPCo+A0CQ1NnuLrU4p3S0MtLxKhWm3Wk1sKbqdHtJ/2GivC3KTSUqoBh0j95YJrV3R8qbzUBFRnBjSfq/CgdxGF5mo5ThHTKrlVhESsUyEp+6Ic1pg1bx4hKni7VBfVdp+U9o29WUYpi/gKRxqH4UWDCu1j0ilTUa4sro1i6RwIkQyw55SoUVpKgExmVJj3qv3rJHKOSkJim7NAJdqsUNhkQzyk6eAKTYYKEREc5+xeVHjx8O0xiDkn7TtK7uA+a/u6ZTyHqoaTkppKVIBlRfK4oo9T6MsoIqTRMKIuHqbW5UrXnfVFnYWL01K2SPgy6QtvGkWcQyDmpqHp4Q1xyF0XzpQLtV4jEoOmy5WmDLTStERHWGpuo9wwGwg+EG5S92j/Vn9I3PEj6huZ10Th3WqX2hsQmEwe0bExtbtGrAcbrMg5zvNOiz1GrIV9rJSu7gPm+nTL2L7o0XwKtQAt0wGLcnK3hm8ebhZhm4sukrywAsGQuiocV3jAtmvhNN+KcMJjx5u7D8Wb6tMmO3IMFBqI5ckQIVUHosrsXj2tLOhoDyvd4sHwXdnx8GeKTyRIr6WtUbKHa21elThPVHHGoDJkRHZR3nbzPAhOPFepopTavtH7t2mej3JVFSawWzXyesn1GHlI2E4ZSoKDPlO+WOxAQWUh6LpjPuPa6prgTyp67dI66ipQh8oBIivCyaoBiU8nRUkRiTiTaTaTPKgCqIrEaqvUM/o6AkeMIssrVeTHz90UUqEiGdBRUBnCqRBiRKyyDTBhsyjAhnpUECE+ONUMmZaSfeOqqeB/Xz0+0TEtWszPoMPP3kRBbOTdaN/mwhpY0nduBuO/KmzsxVUkSrvOjuiu9lZypJTM/peYMhK+VL66p0BcMfGFZhUPfHCHb2VMCiFYxTI6c3yYJfupgiFKHkrVO5lFDl8mkk42plC6y8M8ChxduYCOvcwA27mey1b2R0jywARJ825Ulwl3SUuNcVq7othWLdDJKnqqi9VWs6O6MBXoLKpLtONvvk5jSz5QhMH1v1xbkqHoFdaRO+wflZ30CzcSPph9EG5UqlfSDwbP1blmZbRSE/mJMNjO0vVj+6Okmo6gWcJcJwAHGxLPiqOPEdbCodXfu9+GeJi8b+LuZBK7mpiH929nilKpwqnCEWdGiK4m3i+uFrOTQTPjjBqnYnjgGEAPf3ebbdGwkaZs5SFEVESgbRZssZ0lf3gD5s5AHQ0gLKVOEQDhzIEXgICAABX2iBIA13kyvAgPgKohMFJF1ivTg81jhX/ANBzGKaUBoTUPKPwLqyUPlM94xDP00L4j944TYHoSnoxeADGlDExqnA4MqktdVKBFEWwjAx8pz/lX//EACwQAQACAgIBAwMEAgMBAQAAAAEAESExQVFhcYGRobHBEFDR8CBAMGDh8YD/2gAIAQEAAT8Q/wD0vSqByylhsiYJGtCWvVWZgj9u07k3cwJS+gMrTfFOYaIE2P8A0Q64FVYU8wdsxwz1lwDFom2C01rcw2V9cxA6aoNIubi77sWJ2fFgdt4x5gseRTWkK4Fb6QY2qyTmLExVaTZhixSRndFmOTQN0mYHsCKv/oStaAtZXMYF13pQ0HJyRerk2wBjSAizQit6ZZZBqzRnyTXCtUMFvKdF68UqDDGLIRIVHBXAzHL1IDHPVzuPYTKaG/GDRAoURaqXoAJvcBYo02h0BBKCpuChTixxCJLE3/0BSADKscoK4n0Kp4COlv4ZWxQADffiSxD8OZG8tZAJUCHEaqQpJSl5wrcVY4Gz2+or3CCGteY/RWgp+PurECIliZlZdLjky4FLRTbwR0iZJi7xsjwQ1RD3NIid0wFAMsSmjEzxXnYdCx4WBWQxT+/C5AVVjy0RW5ipnunLgxaDy8mHEb0BwUjq6ULMRABBUZqqvXJdrZjcXVWsA6EqcvMNwgJg1jH1cyyY1tXKavj1gg2+0aByR6AkPCVBr0F/NUHLuztQixXobK7D7VQ2lw0oNrJZaHYIKyDkBwp3wFqxyDAuUmxFKa2Cv3xGtAZjUiOQYthoSnitpHPQYaC0WIBRdsn0Gb5Ng4eAA0hBMzKlKGAQUAA4nC4u/eW6tXHMyfcQV5WZ13K3jDxGrKfTMtrENhSUg4RMI4Tceg4JF0VazXi1ZDUy4OLWmtu7rVOWETW0EqjJyhyAYILOf3sOxYFVRN71gYzlWk8BWShgHMuD6SFdwJBKyWjle4OOM6uZwm/rMVSc6Z6sdzw9cyzN58y8841mDbrLGq6cR26LHplI9t8YBglDCAMEsgKSLHTQr2cIhYwTY+P3pAVwQ1pXLBV9zTyYGhTqNwisLNFamB9t8AGjtu6VYtt885l688wzhwxxjFTln6S6NYepdayeZ44mahdPLMfLEbPRYNBWKWelGT3KMnd1gXENkRuISv8AdfT96LMXJcQflwChacBZ6uMGP5XUg6HA4GFtnjzDoyck3jl6ipswazBL9JdevZBGjl3cS+Pac1/Sest2JjuXd2b6iLgAULB0+PHmMcwIowGwrAbtQlzoUKFSj+tgANJZ+8qZSs3tKztqAX3xStivIjh4E0mOs7ybO64lNXdPTNL56llq+zGueU1nLqZlnx1DT53UGsWe+ZZe/aVbh94mK+MzFZ7mIdMA2XGMA33cMNW9oR7HzTw4P7zWAzfSJqZi0GsbvTzzDFus8v2MSnnfLNt21fEFHjDtnBj2rEem/FEpW1itTLkqFOK9IKlWZ4lK2vO6lVu1jZlOJ/cQfjisR6zNBadWy492bR9SA+kzps6/eXJ9rlYXpbb0CzHYY8Iw5urp743MXODu5RyOrlz3WrmYggOL3wWAVG81nqWIDC9ol1jL7x1+bnNy7cB6PMNavxUWYDkLD16lXOzsdIk9ImVmBnvIl9CbErMvxoMi56LQ9uVCCaVSx0rpnqCICMj4/ePAig8mYeUCnZT9Zd5/vQ0cD7Q8KrEYbOAFAgmEAw5mbSqai9pODkVhpDlxIEF2Gl6bXkIE1V4biOnxLbqUOHTlAYeiUS9L1KS2AqCgMVAhzni8Qvd+xAFpAA2vUfHBYkUDZY3DhUY/UNQNZfLHESXfjVCrlbf5iQIH1BV7qn1KXPaNJgHBh2QDcrmVhSKV1g4700MyyXUFZdiHUL5NFyrB8uXv+8HyCl1snfH6lR7wI7a+P8jSyDEBUXYtloFwvSyJbif0d34yIsDKROYAoVwT3RWbYqDk/Sl+DL1XSU1lKopIhtQ+sPb0IYHYC91fXMTr+NKzZOgQ6DmLVHVm9UrQ7iyrAnYWFRSlOLaAKoFK4grZUNdBAJog2JDTTmAIYiCiOEYBmkNfDlCBI5UEtmVi1iva8BhhZJPA4+H94NzlYXbfQrR6spekqDIMynbsGfLB0/pUZZUsGKO6c1zKfLFls9jbAVSSAFwFy4nhrhZooFh+hQJgjCscYLKwzDUKgJi8OX2Lgxb1aq4ooisKMl/rUHqxIIanBooEYPQhHoTCm4VCQUuAKA45KnNlPDTAP2RRjFOQAOR4iPG0dfahfvAu3DqEZz+c0Y+XAxgIyayvkPS/1DG8PrSBfSHz/gUs0RY2vIsvAxtiUCxhsnNQgS5Wa1B5oXv+oB3AFideZee3ZHeAAy3+uI11pW+tfeZdBBoGFTzipoen7v5ZSUVWDNj6t+cOL8AIVqUQg5Hj/K1QVYsREl1ZBdlAUCAgrNZzcgxTDHd1aog9lF4G+Nyzk28WaKgoLAuDuhcozggKtoov8YlcCigO5uNrqYrQoXrJKCkm6fuSXyQKK/dyd8lRh7mTqmlX8OokDwAOFQyd1yTIGouBoAq0aVLLzJ/iHMigG4S2hWM+qDsUkQIDlpTtVcrMePWULMYaYAlyZTiLRZTVFV/4vVWoROhyrhUdgKQDktyCy7AeQcTLBktqnL6o9j/jUiw5htelUJK/qVDAQQmEf2ougC22A9BdPmoX+ri1niQBukVfKy+uaBPEwzLVtBiAgscisbBak1hsbQpf0NAUdxaoABtYVRkkiogDFRbYkRq+wZZBhERHkYeDZ8wKHawAbYOWZ4JuYWYuhw1UOmIHQF2CK2sBl4YyVq+2nJw9zJtC0dktoMcxX8cA1VOFmQS6QqM9FfosABY73Umnc2ZBrOPjPOFAlWOxIChLgasasLCFjARH/hUhkEBUx3ZJueYzJi5nCrP12UXQZLWIuRGqmK+BAGHdeyyWEPjXNLO3AF1lYAjAbAxlgiWf7QNlHLLUuFMryyz8d0eeUfWIA7+EUfeB3SxX/EgASDZa0eZfmrotQcRDxcbCtX3BU3S1Kyk2DEdyWUbRsN22gDKnWCuCoUsUgwAVCSVQSTlU+6BpTCxLIQqvUsiHiu0ja3irEONN9U91+oJ5gZp7gdOijGlCABZY5CnmlPhj8Sh6NMUtpoGQUSgwwMimy1yrMtczErxhzskWrl7Jnr6GfJGywF12kVF2XHJhVH94gYGIiyHAOSk9EpKv61JNXQoSC2WuJjHoiqRtCACEnSC1CzIOBWhSkmBAVMr+EE/4FlBVojQS2Ejwyg5YQsFpKSScBEqE2loJAe9z3YSozVhhZdUHvmI5rASiwQaKQeFW5gCAubUAzhcI2TcMoNo8wNlcJyGoWIl/7KsAN2wlbmXGlZRqiVx6B3LSDdagguWy0UwdTdqBaUqttiEK5Sq4y22iZwcqFVYC3VUsJkAoXASWT+By/wCG6p4riM9HGvMocy2F14sgdSCuhlr6kGiFVVqVD7VcEktHQyaEQujipj/QQtFllxnA0hxRAAzCcFpXMIXposh2L0QBeQfRoLQGBuo68QncZLHoOE8MeNZYyapWgCiQj8hh9Jgi17LM4RUK7IjKuxaWN0Kuw8O6h95xIMkraHKXSELvoFI9Rqs0IsNAhHjMEUxwlSMSAMoJVWhC5NrtZIXQozmq8QOp3bguOvdf5rOW2qgFVUijL/ANFjJhqmz5FEtsGALJRkWZCRVB2QRa91Zisv0mJyU7gryGVZrMaWa5ZQVFaGyFSgxhA1ww63nUFA7TtfkzrZFDvLdV7JemCxP9c8wC7Ydt4gXaQZDYGTBynKTzcBXS3FReJcIfhtuCogFrUIXKE+CF2uDlqd0Eto1WYbcl47stxZtHzRLQ9puObO4lblKZblXNWpoTKrI8tEf+Bj61VdDv84Ztk4FJGAxnsdwAT8VMWGrkeT2MPZJgmTCqtBuu1uZjqUe7yLEsDgLAT3bBC8rKCKwUoJQrblMv9/ib5dy9BXvDJuCDnXrGr+yVjueke9yuz+nqWrC2XyrogvReooMyp7tCiW6QHjTBSreNRNKSL0hQRiiidcuGEwtqWsIqu2ddWME+HO9h/wAkX9JViJBVkj4Cpz2bUJpNM5BnWELGVWUs1WMAduUwVyUqVaQHSjBrqsAj8xSgA4rYWUsysUFy69Kc6bd5wRBwMGAjrCq+ADlBFinoERK2ja1GdCwhbig3uwQejoYFSysd4/11KpgDla0fSUquoCyeUDjEc5RaVLmp5UOhIuQTGPA/BgfOFIBuoupkxXzFS40jjxGu7aNuwVUVgwSapFp0rUB7OGstUF2JAhBoBmr6sB3UmCFjAR/zAIyI3YkfWywDlWDeOLBYQ3K6krHJhyTFGCcqQruihiyjRR3MWoQgadKGAgAgUQq2LXKraym8Jr43Ne/D+mOkHhDGHflm1yj0e8x7xsoXObhKWrZBFDFrIvB7AK0AqwI3KjE+4sdioGBPOPe7raBs5KlsXyVQ5sIFUag5JXgwOVehBBY3+iE4btgRGz3XIdqCU14WpZs2F20PJx6NIMuqul7R2qatNsKBFfHNQaDGBpI3CipdG06MLrAYzFCq+1auVWGX7vDG0YChPcaYvOMrEVUxcHho4QaPEuQ4rSKvL5j4wxwzL4rV2PcvWCNu6f6zhsETBkVKEXSFdASgbgcKsepHpBSjaATSDynkY0OiBLHDLB85OFiy+BrlJ0grwDVSi0g5TaOtV5XBUVUwsQAOAIjceGEgb88sZgbJiUwxBWFnhIQ7QouvMqiBbc9pQRwgT4gF+jTtx6P6OQJa0R8o9JfSGWLmQFgdiAhIA1bH3l0okxUpBwbIwikS+ApkHnyGClszI2d6bE7AreAZC2MpR8gEBaAABwE44uV1zO5zXU1Pb2gYqfWPs8TAA1L1eIkYEnSQtkclLQYrcMEzqI6AdAsuWmRLaBJWMOehZEOxo5d6QVrZ/FUyKaA9aaAFX2YWENDVd5ImjB1lBS5ZBKWpBERjBg1bTpSnqUlamQ0jbso1mA8BXADTbVsLBNuZig4E7s4VWLlIoRTugBBoIHRLr413AstuEBRjU+3K82BqwBEe9TW3TzVFmBdolpRxMsAWIN1RSAAa7i29yw4AN9bflE6rIPU/Ccy/gBVeP9YlwXNsGESwl+1qk8KBy3gkxUGA2wwDSoCzyupqZRTaK5iYjRGWqGG778KmiAQtKaAYAAM1a2uY4XZ1AxXjh7sgORhoijRIUr1Bay19dwirlUbKA4i49VJYRgVgtQchEF92ryAwQsOIvMqGRg9Xl+zhRXfj4IdEG/gZWgDzU7SIm9KFptGTliJNZVsFh/Ne5AS3ZRRNoA0reHow/WK7uEj5lDKJV2i26ZTsKISq1RTHPJA0CEVOyEV7WUkq5VXzK0N3PPsTGzjG43WX1mzzFv6pPbXLMfxMtNXMdal0xbuofNMSHFF00FhCkWxjqxR+CpBSAkje7dpkKuSr7Cy+tqkWORaxzcivVVjErGkV8pYT49YfbF8LpJD8AOGEh/8Aurk6DJgGQRvEAZVAjyFiyOEiofCi4Ioodlr1O/0BsVKPJ8yziXwWLwXqeXcU8Qudl/aW3m/EQeiYI3vFw27FF0sgXiUkUY+Btoyx0HTgVrjeKG1EoIURxarMAsQYIaFgzcjLPEWugJC0oFH+sD+eL0i3gXCKA86HTCsp8HKraLNefcSKUJnXCzHoSI2ZJUHGYgYeawsgNsXKoFMTsTsBLNFhSGSYzW+Jur95hTwUUueWztduEYctXgN7JbBzFkiFUQUGqDhKjaMB404xx6GLHAElGFWV/wDiZa92SABa6R4hZlgFXNG7nLNvEsiEiqaSuoJc63gjdkOHhYmNEqQ4m6ZKJZfFOhIDob0+CxKKrA0Tos1ridfHGJ6/eFLX6T37mDxGxooC1Y3G2l5evYcRG4SkSkfMeq3MfXierNm+MYlYP4l4Cim38w1CJhdD7HxW5wOIYpKsJgL7L+idSuV9oRaeAtj61jqWht1ngJeWBKKWxEEbzCx0uim09r+qHKga9/Zm4uW0xl0SvWuo8/feoUeaK96HisgjDwqAdNW1DE0kFooFIGDZNaiICOXBbQXrCD1ZcvQrbi4JCdbpqJ7HWll7p+pVwgZESvR/rhbY5mKVDxNBYU1gWGjvCY4b02qiXYlTGken1ItXQnTYVK0AsAkGljmYXWrENesEGgjDqEwTUHJh1GM0Wda6tmVwZgBxSwgKeD/wQoI58K57YezPJL+EsunknHxC/oivnHfuMyQAAaDJ+YXhnIcW4WmzKHCOeXcHUISwFJ8RO72DwgewHVuoR6gtCjNoHXTMqUoaxqebZxR95orz3O4i8m5ybRcc1HHuzDwuRCu0WURU8cE5LxOzm7na21Ej1PMhAaWecdT+1Lv+Jqp5fMyAgQxVabNenzAxpzGqMdYIVqxWWJd6rBkUqep9xgzIAF2vfT7BHSWHsn2rcKvL6z+lzAmERCxCkTkTFSht9pFIuHIcMGSYqKdclMrgRDWmXThuKFMKGzHUDWAYLXtFitagg3hkOQamUuDx91eaMV3XT4Qfd/2EBSYgJtyGQGyAETqNdNcsIDoWkEsAkIKzrrSwsqAlTS0isIdhQzmq2huQVaJMUFDxL94YjE1irY4RclplEpHYwO0YGdlpBXxKDJISih1YPZf0iBMra9zf9/vc9P1/THPWJzfTiK1BJR6wqWnlQ3gYuBWe+c+kVXLOexZ5L7ESoH2GGT/4hABnOxKGrqbVaqZSlMKSFRYE2JSPI3OT+I4t+JfWryw65RFcET4OQFSr2Xy3M1/epTZUjVJiVZDZt5S1311PAvrO44/KHawIssOhB9IrCEyiu20kVYzhqYHrAvKgIC2n94Rko6zTw+tf/wAxe+dyvHvNUynV4lHtM7+ye9e09FsZCJ9R2OSUlnQgm9ZtHgnmWWxOPDZTW8BO+JsUUEopbbKG1nEAe8W9tawEoohg8BGsFi4hGgoBKmPUcc0F53wtHMPvIS51UMwZhQGHjB6f9YCgZlg2hI1LBf2t4AF7AuWpHc/MF0ZkLWTFGZFNxDyhtAPDKAjBWRsWLJXMUsQpYfQGFhLVIBaxVyTkwdQhsNiYEjh1aF7h7T40YJ67JvW4NEe5KvHeZrHMzcIjyHyFLeIoa4DI36IMSQoVatFsHrRcAicIXAXhtPRhGTyhcdB/IjMpks0UWXoAmHBRsqs1fWdzjNTNHzqVX8kffMaqa4sC4yrIsXVfS5W6Eaat9a5Q3BGafaIoUYAYhTkMTFNf1lfN4mnBgZhTUNXSmySnbKCxuo8tO2Oawh9DQDpZvkMfb75a5SpyCvofaWJh5Bi6n1+LxHPNesrs+k4uOeHzMVX4lxLfYQOa7xKW7ZIHEtjnopZ8xbbgAptAsTYciAk67DMgW8gK6cZhG7JLK7MS+AmZgkeUKqoaIG0zm5QsAcWCq4ZGBozFAzYemMMyNhcbKxUuWk2xnR+knmahoridI5HwwyVGKf8AVAUYh1QADQEoclYqmqkGFjiglhRVYOX8hngSNfIjUssC5oqQFmYvBry0WzE1SE7Bmhi1JctCF9j4ZrZTl6NBQR7fZm/zND5+Z2+09fpmf/Xf6YfVKyLJbNW9Y+6gZqYF2ik+GIKdgqP2qo+RgjfGhoTO1IbWW6zZQHBgVod21BI3rrHSVnZZLWxZ1qO/vNfzcYaNgyV5EQVBVHA2dfhxNTyAyEGlO5ozQxe5WaKK8CpKrLnRqfxicUH0gNlYeSxQzgcMoWBKbtxQto9JikNUFAQ1X+HqYDcCRrJCoPeF0S7RvwJ9/wC/mY+WP0/L9PHafX2hFY/9i5ZagBA43NuogaSrBfyi0xUkV1nb61ONY8j6qufBB53Xe9wwwjhTvst+4wXFRhW6RxlLA3mNzkLspmj2DQrasHk6hlNeUkstQapEKQzlHsrcd+cgI+SiRggiOn/UOMmIyxXjeg2oAK4QBYBhGz8JcxRa4M4MgjPjIplpIRiFwYbyRjiAMBLre2fHpOarip/WoHH0uPH24mu9+88eMJOn6EUIhr3VROd/cYVY/wCHMe+INNjpq7rbfody3BEYBRpMelrGYUyNOiU4Saw9OMuBq3zJANJv17M7Qcyw7CJSYeCFLKR8nEcc1PO7MzDviPNOjHiO8R1/cwDdHgcwzQUuKe0LDP3JQjm4D6kMJzItdX4rrxxAm8QxfrOV+I7QaS7q24JejTrpFfViMh947ds69/afefPpAdT269p/XMv2i9kuWLQ+F8iOmKs2Yys0d8Hlt5glDApjypf1jyo9E+r6Jnqlg4d2S3m9j1ibA5PatLt7r8TAXTLPg2Xwkq8uJP5WGGM+joEqogimnJU2KeIBxQImEAW4IBaJnJLcDs+W2WtixrExw/BgchD74Ja/9JQLY2PSTAoigoOzFIhAFppOVJCZQQcEgcUri0gW8D5EVNSyK4ko7uJyjWKdFDm4a6RHi+v4m1Oucxvs38zhG0KvVMz68z+k+v4hPGRLAIPhZZxUVa72fdKV+ctd5zOeVeK5jHLxc1CTqhcF4MzfvypZdJT5GIjRQKFgzICkEGQEFbCtVApY1UAegqUdGr0O0ZsYXOoOpYGr9gwkaVlJsgPu7NSsUgUlXgLwUN6Mxr7bJrhgBU2lCKi4ibVGZeGlAQbWQ2BQAAAAUAGADAGAwR9eI7w5mY1RReemP1Ilec1ome0t+3DMNS2XQ16Qr48z5nHXmV8SkQqIOPdvLwWupShNIPDA6BZ3V6M8I1N47d+Zr0m934INUkBF5HDM2Fweu2l6fQJQXmqHqGl+xfI1KKMEAgsI6R5IRosf7B0+TMolM4l1538fLYR2jvHLfM7B5LImWpeGtBnoAWxROQFAihu/9ABawg2yvjjR10UCkQMsAo00QXZnOVNUAdKsKaQYGiwvQOnj3NsyxSI4TuAhXQUrUujC4AMzXZHsLB7OHQpJjPnuHjvicOjM7cT7nH6ex5riZvLpjRLzQXiYBfHaCU4y/tAaaN71+K+GPNYtYKfuD3iy+QxQX7T0PWXsNMT3pwHZKrpGHIFDU3SMi8pk7II4kHugqg0EIR7VXZhUm822wqI2AuWZPV95aG5uVd25QuhN2JHA01QlbDoMUeCI931Ku0yE45Zn9xHECoyYL6Ldx8qxGmoB2Snm4GpElauXT7TknP55nn7S8bzOMx9YVIFPNWwOXg9VojJVxzSfesDycGEW1uMFFUcV0S+vaUOSovEMZ1K7t9ZzcPgl4a9w16e4ypMdG3s4D6+oGruXmrO4HI/We/vKSwC/2Q2WJg+5Kv6DHFERNppwcHK6R7eVN4MptObYQGWgNHHCQQWOP+ZSoSlVEN7Vgm8Fgt4FKKAePKUcU1IgTlFqExKuGBcvQ44etsBBbWgNsWJqE8lekc29iuI1J5y/FwW5Q6QPTGYS5S3RvGXkxZKqWIJY4eToYfWyf18zfL27moa9pfPrMFO+Jk8GZXUrTDEGN4URwnswZxD0diivQpuBeIlaoyEFp28Rg5QNlLFthjBvMf0J1jaqGRqggsRl3QSpzdKjGAT4GPvGnVb4nu+Z5WvMLvWHzN4+s5MT1K78ywKs9bgY8GA6+dTiOiTVd9ZRXMU+7kMw4yzejJcBu+OgWycGlA5VuD3xj2NX3hwp9CPb9JWoZEmlVK2FgnqjvCWBkdR3rErmvruc+/HUxQVGCLTN+dNmZEfuFuzVli14aKgMKwwAoANAYmjLC6qa13kuU7resxeZgrmcQxL9l8QpA0IAsRwiOET8xTi9pXMDQeM8bsREeqVLRNJ3pMk9n5mCWqAu67OVh8OYhntCXhCfk3wwgT2li7bmgdXmIezEEiJuCCxx/wAiMltqpnihInZ1XTw2lR7zk+MdANPRBobJKdXnroOBweVY7By6CUnypPHSd5KZWMLZaM0ITy1wdDB5c/ohJSOE4YzHbpQ1sC25PDspiCu2osdqy9XDOEzG7DjxU0ce8oU16Q7vxifnriY1f/svpng97lzbXbWPqaYyKFEfiCezFCzaF8eI8XEgHQ1ZtTCXmjMegrq56CDWhlWPf2XYWvEpidKHDpSErwzDY/cUpCqbHv0tLBff8VSICTq9h+EGyTOz6qQ9yMx/bXbsQPWEvqjT1XQeJlOEPjKLbVXxNABkm9jcH0CNS1oKAYHQcHpDB9Zj+8zHx9Y2B4zFo33zeZqiB+hCvmfMIA1ugm3xiX/evvdpK3dMEOEPYxNqozs+ZjFqy/X0hX8y8X+Z708TNYdy+8y88T5qGcccwLZ0iEbEhouj7y6pUYULoh/+UbBwjkZmtrmLKzpzzLrvRPNMb7NgroAVlC1RYIZH7tv005yKbt5gYRdc+FmQcI5OYGCHkf8AiIwLlWEE4fdilOGt7VrCjPgMpqKZC4LqlKn/AIlTTY3Ry8voQ0xViBzDS3IpJs2Yy8FAsu4SxeUptetBgmOPnxPNt/aG886Jb9dysAaGgaqaiGbBw8RZ1IXSFaocUx2wUnBl/A+XwkxHr94Y3m9Tjn+s4dzRr9B5tH/1K8cRQMBCAAtVcBFiGjTf80PnXX5WCjNpEfcYArE/szOcXhqFpc0UH3jc2vr/ADSoyfP3Bis7hVe6Sf31njufxOo5/GZ6s93GTEbBww9Q9yPX5iJsfVfCuI8sx+IxkPNDzMgIUR/WDbwHConpHEe0OPE91mPQ9YVe6blc2teJ6vpcxr4RcW9y+BrqbaqsYnz6sKuma5HomER27gbzdHvRBgYUT9ZaZGvVBYipWCzM8o85frDtugpKVCug+IxaAgHTCfBj507JjDXzHIOtEd34ezTzF0MeAeoQK57sAJemvc0EJsgcpdMvE7pFnQp7vR5IXxCI/wDA9AAcsNAtcBNw0cnttCYcUTPoZZfAlF4kF3r/AM8DRFHAYAAAsAqvEI4CyXWC3yNZWDFsTKvaaKvK8GgoJ83KTLPr7RwomOJzj7yuo2BgQnSsMLB+Li3Qlo8PoExFuAPUD6FvEsjXVvjX5TUJvkqc68x+iX/epXHtPJr9BkSTVRLJGWK9NSmy6Uy0bSNW3B7yHyIZk2wwNNlo3BDT8q1QSpkVtHySXqAm63oBF+0yWyiw/KwyKjbg6vfygFxDYiJhEzIovqvht0MMc2BuLhlYgRDmcou60fDZOKldd9TnlZfYanozCexXPQYK3pa4iZAhM50K91bNm7MWgt1rwdSs0TPw7m/4lL2zAyRampdH4qOMcS88juOCupljxAOlfr7eCBp5K7DeBKoT0O4u6SIGUMmosKbkdL0Pdywu0uGr83Fn06iaPQ0nW0NxaIZJ5RxAYACMGl2YAwBtJ3WNga1cKpoYB2g2e8F820twKyHAzFZss7tmlAZcNDSgiBt4V7YCNqhq9AbNUbrVPKFnIDtg2X/koLXEK8ptaADarQHLiarbUiLjRKGELFBDdVSdNvkaazyMJpgAOAAUAaAIJakU2GgtmzGXYYtmntBMDKm160GCF+dyq4+Jf3jibLS6J1X15nhdzPfMxjZAFT0UB0jhiG0qMF25M+D1jTsp02Wq3Blm61BRM2JWz4XqdC/K6M1eavV5qrnFkxnib268yhduABm4H0bswQTe4p5DlFuBAB5TjMsxyQIMazul0owBLykgafRmLjGlFvQMEWxYPPhmMRdpBPz7raEezG3n1JFzHjB+YoMK3uNdw+g7pEb76DwC9Ist4bM2l7roaUPJb4MevFKGlMM3bhMiy/Y486ZOWXmwuyyhlKIhkUw35t98L4WuB4zmZ419pXy5JrKysv1lwekqqYF6cvUeIXNF6mLHmx8hfMdV5z4l/QtuedzNZJboams5GcOpZ7c1O3zmViL9c6YHIABnaSdpXvemgkIVDjQaVRGKqsw7pkWeCowYwEVgymQXkK7VXKrlXcp8Cq1FcDAUb9YIQFKcCq0DRNBQiUW9Wqw3anyV9VL3Sr7/AFAhiUVZxdxRWNindUj62ekv4SwFZSIcji/eFi1Bc4YGC1LaQCDpbFCbwgi+X+RQWst7u6c/3iO2AfFNUABpqG6gZneEpUubwCUAKC8ECW+VeU5XlYK8LRbtzbCNZomLKuF+z5y8r8Bgm8GerZd6fSe++WYTq2L5cTWuJswfSX6z8sLPxPs+YckwPRPy36ELJ5dNLCvm4v8A25x0rEwBzPmo5z1xCQ77TlVNJy4FeJneiVtYRaAD6CoKSOBmPlcHQEMCD06iApfVbV8y2wTKZOzVo8eqARP/AMkfOrAnCeGi5j1hTfJti3Ch9TZSQebXKzTOFMC2mFwwSfBP0RCeep9aqLeDNhqNtCIB3n7GBl20LQUOjvjwAN9oYtH2ccUX6641xPT3ueOuZnFHxOOPNSs+vE0AWMJQvQAvDNsPCOfGsfw+Saqz6xvUq+oe8xU/ts9frH46f0WyscqiK3sUwy4hItAcuOwWgA4BuCcpAXKx+g+g2aA38IYv8FQ13ZMme2AxETqnr0WQAmrAz2gYaVKxXhLkUxa19xeSvYENsFAH+KaoBBMa7BWAGUtAGV1B03qJ2C2NjGqQCgF2AFF1DVimpeCw07ChfwryvBoMENSu5GBMXfoPI2gdOOJmTZq2jHUz1zxs9UHm0pjDRczT27x9I6nqsLvfr3IXrrAf3NR58bmHW5WrfiLVEuYfd4mK8S6514ld3MhVo3Xvqj2kHFgWBgD2CYqwfML+k557h71xPul+/LiCkORFGX9k3XVCejRf55htayClV3SROCMAUZztEYkMqlIOyC5u4MGhXWZoAvcR2GBx5tPqlw2iFCr1fn6x9WiIT5A/qikhUe1Qpt4QOy6hNu3r+1tYsA2oTLjh6VuMGqasepYbocC1OAq4VliQGQeLpmhWiC8HliC0lq8s/E5yk8cdz39Kmhrji4AZGOAYHkaTyRUV/blKg8FDxOrmDzFxXBzOcfM3xzqfPmb1PPfUQnIJkaZyr+o8DW2bNdQhTWZgHFWSKXcoUuiYYyGQNFtocOgp/wA51sXgjXEOjaxYwOUDq9S9TzoM3uoRCTB5vIIww0gng3Wti3ZPBnRNPK8/QFBiAygxneg2CgbvMKPVvHEpwZt9+RQ2Nrv0iV20eAlSDLb3IsoSt3wUEmPWKaypRIWdUZNlGMAqC0BeqwmqFvFojesR2y8rEQSWQIZLOk4fM9scXO+uZW11MbqONuveGcaFgVr8SyItS0o08BAOyb8zFRyzua+PmehP6VEthl2N8o0nIpND5ZABs3oEzgcqBOe74TkN1xeosDSCJa9C0UXE2u6+IOyEZLsziEMKepGr7BIWYle2PN7NniUTeBC0qC06G1eqpWJ4r0hGgb4CZKmGbImXfaS19YZ+J9PMun+P0BL1fU41mtT7/EyFcMBNM/oKW97BTHPmeeU/Ss1+Zl2zHN+J4EZxit0UlUIEKqWaEIAENfe6jLqJEJyKdq+oZoW26G2UAxqgA/50x9qAUSlL9YRkDAWQFDdLGbsBAw3QVyl96LEJRdVTsGUYb4FXZWE29ZTYcr8y3uFysqZV7HjiWleUqdVO7tKNYAFGoKXzdsTobXaKy4FPCioBUL7MX3rambhkAmmJ3P5by23qz2RCSt4acbpBfI0A1Nh02JkNS1GhRiAmtZ6UbDg5GcGeZe8zJuWOKjlSR3lza+nzIDQAgX9QUMB8OZozrzNmtT53Lbr/ANlvqes3UfZzCqXnrC0UzdDPLJyJd6sK9nzhusJBhittbEq2eBrTSMLezaFJ7o4lkINtfZS40mu04y4DEd9RIZmMXq3IArVOdR2+5AkaTRKad4bCJIWaUQ6no+VgyVEhFmyxlZc8repvuX6k4zGHr9p4Pe5WKvmea95T3+0zhI17MH2HxKbTBP8AWVMaszqJ6X1KU9Jzj6ThAkpQDavB5cQP2EnGBsFtJy1CCr6MDTdwuIVvdV0HsWrRm6OOT5HKFw0BR/oF/arwNmkRg71zG18YH828RN0AAoBQE3oNeIDuAAG3NXdymaE35MsMOAG3BoBWpttalby0XFX6sAE5c1ntgVWg0bA6CB1B5AoA/wAUaRsSFDsZH5M8P0dIyjystph1VKFxUIADjGDbhhFFowEqgM1N/Sg5wcH12YlPc3dsd3LvIexFSC7tXZ36/KIcW6xjA+hPX8S68fou2kfmeL9p368w/v0nPtK77rEXOBHhXTcmwV1dNpgN2rAJTTA1nkGUwc2SYoD0h3sxxkT3CsbplH0ay1AqFGKqYKuERoUpphGY7LPUjOHsDkLWKfybDUijDxUfw46taEccQ8l++A6owZDEceZjP3mOl+k+03TvuYwzJv8A+TLBlxa4zyUfUISqz5w/df0ZP5IzV1ZaLogwdA93X8q+IkUBlFyNA1tbTY0TEy0XUWwPAigtFEYyrOQatMJW6KYgr1oBX+iwjWjFkCZEciZGpZk+sjR9xVhWaDnOexhKhAkTy9UT7RVTC/lY69qKDdoTIbSA6/zdBsj6boAsiGRHImSFj0eGptwE0U1IhyQX4NqDiBZ9wcGUyRvY8lwHCf8AkziuYXevchrFJNNr+IhKL61XEzpU553OfqT4eIa6nXKpjn4QJr+1KrQZJaOZr3fIsiIjhGqT1Kw4ZBpeNgpOC0AyojpCHvK3G38C9Yc23JTLURchW2IA6fHBl0AHQaurUQZd5WvI7nxy4CjfP26/VR1vucvX2msfiPHmYxfc565Z5se4kVXar3Q+qQbB5BShyKc17TPNtXaujFoJcwcBwNM+aIQ9wEDXImrDBbucP5hOQYBCk5s4mgZ2UJznVZocBLJHUq7tU/pDRJQB/pr7D7RbcGgD0P8AjAUWMp9AsArYGQaRMiWRMexqelhrFwsHETz3EFAgVbFtRoH+20aeQ2HKzNYdRUiSsuGvrAoWVVE3KvP4uV6JvxPo3P74n4x0x4zPT+9StXN8MxVsZZgGyvNvvsciqUa5Q9AjZzYEylHYHaemoImVdswGh9TWzRgsAAYAABsCMg5Ao5O7unBQZvgmeH2/T6+Z9jrufhPD6Tsfaf3z+n18hC1Utc3npMQMc6cIl5vAtC7wgS6f3swnzK4nQeaYyXtZ6xfqf1HVvwjmK7inB5avmFkysUgVg/Yq0YYRV55hQsg5GW6pYYYy+UBsBGECH/mgAtSBHq4BRkKjWBQ/hp60zYm0zAIjoXC9agGwBZ94RxM7FvUfvn3hh0Qrvnc8HFx/vmec+syx7bl2YSxhSI5tvlNXq+GmIjcOWvgg3oM20xMpw6tys5B43s8BM9vxOnWya095j6a3OeNTHmYtDzkTaOcZOYDzFQHcI962F4QlPV5DaInkQzgY02vi9UOrTvGe39hCKEPB+zODsdkB1thRRpE0jkeOJXB9XWB4TlQd6RNnLJbltK2oHZWPgXoxQZRBoiJTZAOqUeAV7EPbjcqX0xqfWbniXyP1j2+80Gq9J547luq5jjU9E8QAUT6J259ZUb+r0l514n9u5/f/ACY9jeZ2/EcXuY+E68TXb3j6+gts0DS+4qxUJRQsg8WHxTVgYGyCOF1h0FA6ECsH7URTFMGdgUg9YZcVjA+Hmawbm2l77aagtdp5qVeZmre1s8fKHs5xPaVmtmZuc/8Ako/zPA5NM3nHiPcc18TT/wBzK6RxWOZx+E4xZKo9t3PQ44nm/wC9zN/zH7J/MexmYenrDljUcmYu2TzvQ5QqQmF5MSgCusAhEXXYGAXYesB3atgDuDCj9sRjYmYot1WnF9d9AyNayqStEMoI3wAI3lUdzTwe8e3DMsZ8THs/Tz9ZhpFzS11MPM7c+JrP1ir+J37QvSUvBiXkxri4p8Tpd+J6e8wdzPNelRz3NYHr5m946qC2JaA2w8gOR7R4Rn4lIWi4KpWaFBLDKCTcpzimxzYDtwcKgG0Awa/bnkJGyUA3xs/YJUOL0Yys3O6lIBl9uQayUzgio8IG+hw+NR+3UwdxMg/BPCXVlSOXhn9eZzLR/feOdxK3nqHrm54XM/uOZvB8TDb7T0bhXOHzEBCrgM3BjMHSZbGXFqwKGeArcG6StKcAVmhL0q0S8dwVF5CrDqA2TbrTQ1y4OUIErGtRcyk7UowBewrQuMFjBRVB+3peGKUHBrI8I8N5uFE0U8MzRqnkUyQ9hNS7MxdgpVHk5JECgOBxAaRsNThhQD8KIhgC7DH4ZXqF132K2r0btFYqYIcn8v0Q9GmA3MnOtYnvx3LemdUO7bjyJeN+ZweW4eman28Q/wDkQnpZdfWPwDHkaxFXDZVteiDRPWDrYxAWAEBI3o8VN0DwuT2IFnLcdjrbweVqhxBZYK7TYXlXOh4s2xAvPBUFegA7YmwGduWrIALmloYB0AEFH7ggKTEYGcBRuGYrd2mX5LtqgICplpD4lFy96gWA6gIl5wACBpXI01dMNYM7B2rHrT6RHWiphGxWiERQg3c0m2ci28FhVNiEZh6oQgsvCF1uAiFlgHr+Mh7yk562s+JUhKclT5u/rLy/X9FuC3rEaMojjPOAlg0nkhwhDGJk1ZtDbssavoFxLaQqvxgUShDrhuOyuOG9AFiAqwiYPIqRlbApt24QcZjkKW2I4zB2KmLoy0PSrv3h6FRKsYknDuTmtaqygh6s9iHQY1XkpqHUTKKcfub8FlJAarJWcm/zg2VVagEIjsF1dBBWDi/cnstMZHZ9IEbWtVeRKbsx5I3ghjWK3AmhdGYL3VLJBUcljwNI+ED12h32y2WI2F/GvVTYB6D3V4hbGKJt7R+OkMq4AVcAFSJyLKANFGsGGoJYWQIIl2IZbVXzeJUMgOzIN5HMYGZ3NdQVARSXUKgJajD8gGDsIkJxXqtjNX4RlaAQGwFYiwlVzVYOjk3QEQciipD2CH6AEdXLmpHAaturWdSsHQNcRDp9zqLnqGvWbzWC9XgCBIdwGRkuB6pr3LOgi5u9cbHmCMlAful2dorsqNosrCWNgVplByIjUAC2xtYo2ODDUfkDYuPWw/RfSbAdugR5APqveXzWmiWLoKnaLH9peOCkJycvedwsBNdk0hd3TY+kpBRgq0FYRg+NTlEUrhaFUWApY2KLlqSmswEHBK0oG/gwIut74jxdVjuBhM4G9HZT5DoKItW8ADAUERoaxU+lQYjNQLfB+A5g7kuXd0Q19DUDOfadX0DDX5R0JS2jmlj2iAMBZWsrHNrbc+SbxRZWOwL1Xbxo2jWt78QQwIFUBr91v2AqPi+8xzV4lhZ+mLctuxDReVaYppawgeuHTyI8xAJh4bj9tKcP9intEBoQ84P4yINOAgNWy9ZPZGzelBmqzL7A9IiP079q37LE4IKAD+djB5nkFfkwikHXQE932hQzUBO2q/QDzB2aVtUvV13/APKKSTJnayrbyhUTokvgKJ7k7Z/Md4U5VWodsO1XxK2Iy1zb2kJslkB7lEWnVf8ACvlckJDQGv3ZDuyxYk7VcE3jGS3yZ2kz0ZvBd5Kw7S2J5OBWD+406n9vqHnz7zuoag6C9csMQrNtM+w/EIpG9gkHV/gla2+KoKaKXdQyIFRrLtLlRVHLMF9xr865PViSB2cI+OtT7dVNwPNHBK2PAb4A7oRtsoH9YWwC4ZiJFq0zgdg8iYDpNBwDcEUH7uAQwzLOxS9KyBpGF+2QXxwbjIYEJohka2umNb11ehDks2GCapYhhE5iupEe0V/+sB3NQF3WxeEIqQgYubrKvQDgtuBMYPCHB9SFrtpvsQ/MUCGntUlnuL5Avlwmw+G7ihcUmuZ/Ag44lyy3ufKcBlmiEWzfrMlMo9A1akrW8Ka1UqvgOHDsju+aTNFyvgLXEQa4Jb8wpMG4vBRclBuAEBDASMxZy5ChVH7yisCaiHghbmq4KWjCPdMpjHYoGCWgfGIqERrolbczWUs2mkqwiq4VqGCkd0AZVl7J7ItlD9TERmyTZ8DkeDnbnSVfM/EQiaSrVvwvsghQFlQOhEu83dSvJYRxQTi8Wq3qpUl1avRMUghEGQjhHsm9eW0LoVUeFHiK0mRQ6AvOlyu9kDsFXoUdYrOsBXERfPDQBqjTNGt4BDHQf3tCEO7IDzj2KCzZpVhhGEhSCuDzq9VatswoQqTBnBhtM1YXKDTRbcLyJsNKyQ4bZw5rDuPOjHMtYo98Ikduxn7Cd0fWY38zcYLtdAbRwHKyktEs0LlAUC9T0SAfu7XvYe2ilapDjkru1bUyjartbgAA/fFJkTTAZXYpLDyDp/E7DoSElRqWNUsHCtCcrfoAKgUAWCUCKgoWlhOE+8cP/P0rrn6Zf4jucFfWX5ntc3AKTBMWlb17C7lTm0EC5wjPCi4KWGbJ8xSyjlWGCwfvyK0cjOMLKDQJpsR3AJlpzYAeauC6Bhu8AHsol+L9p+O2F+sJXloD6xhspX5h9KnMGCWrRmUVRJNFK8IybeSQPKiC6N+oSwgKoK/6BSNuU3Yy/hmNqZ256EYFHKyQlmQOTi3UuYvH0mLDbvIx84PvMLdDoUPb+JRutc3DNPt2C1TOSndqmocv8hXY7RqOMlAzSDCbVQeC6PAf9BGCxhGLg3KMVX9CT8WwJSbOhBzhWmUyFgiZcQ+S/HVz2QOuS2XQKj1aCEi0mcQ5IiiMZZUM77r9kqAYSUA2jEWFV5vPPrjGZQ4iU4LekssGqgmu5oCtIeJYOaXCgB6CKD/oTJ7WIRKrMRzRst81oGgujBQATMZnVZ7C0QNqouYOcjJ0sJyS1MTCiDGQKzKZImAAC6KiDakkYKKpZXkdt7iAKsccoRvwMDUwgIIi+mhtV8wYOAAr/ojYWZIZERv64KY//Lar0ZVDAooqkrRvMUu3wJTKeD/9N//EACsRAQABAwMCBQQDAQEAAAAAAAERACExQVFhcYEgkaGxwRBA0fAwUPHhcP/aAAgBAgEBPxD/AMCLZwoIWKkYw0iMP9Fl68sS7BlNAVoNLxCwx1QhzhNWRk2kaNpCesHShT26h5o+nfZddgREtiVnRKuKojD/AEDO2bDL80uwSrClvoSAsrR3xJcJWwDUfQb1DxkqkRK7dAquhFJL7+zCo73ye42clTFY8CSx10IDwxCalqcWehi9BPvrhSMZgPRx8glFRUxUTUDQTWUcfaf6H76Ym0l2GQG6Fuau2TZkuMhJsp9EyBZtrmF3S6O9MQuUmTuljdNMWqKUkbsQA1VAN0SwEqCRatWTvz5etKFi908KW9BzUQfJICMWLChrdlffALCwAoIUNkSRNS1AAICwGA2KIo0iCRsjcRyJs1HvATASDxCNGKGqaYgmTyRYswlEoGgiGaK6EEBIlBcpKA4ljL99k+uaEoNvslDIHIFEsg0jCgsKYwYTaSHIpf64P30in6foLspDguWtOkUqbqt1eVu80eeWtsyLzcHHJSJmgXFTCqR1PGgTH2GFKRUPiCbL40kBKaAmALwQg5i4MbeBcFlDKRQY7sIDDIAVyQb3UaOkkfrZ89lE2nVPF1YhXKZZWVpA6BhKixeASwWCWImhcU9Aoh21RRLU8LFos9zXUW2ARKzL8/cHmS0SiRQowsATv4VMUkdy1iuarVgIsjSn7ExDZUjZJhWaW/QiyFqUiMGiIkRC/wApz45MKpgAqXsGBWAUk3c2UFRRVjVRtLNIaeJyrCrriUuyWNUUPhCUmCCuQWmgmyQGQMT4drDxgaoCWaIwAACBWAWAgA8L2w0xyjEmvE4JtkE+qxwNFKgiBKt6XQINPAbl66hQbmgQ3ECgsCzwxlcApL0OiZCSrr3yCoJZyoAgYLzqiGbpCEhXMmUG4IR/Jmg6CjuaLCLgIGRAhkMZwWCcsyUvsNveyUYYckZh1jYgWDRBQJZvaBXVITKmzJSJn6ArBWWKQ2oPOyO9z0h28cwxoZbs5PnE9TeiEqcRf/nrUjhsden+0JimRUX+g57S0gl3AmSRmJv0SVpVxyqyCG4Q1XBiCkUIS51DOCMeL4Qus/yFmldVkJJEptglssBNC8KzPchhPIGDVESI2qXaSKbJ2ZNKfmiCGrm7i+7ROQp5RyBTYTZkzNgKJu3J8FJMAZuPJn3NagMyG5++jUAITcOhYYbwQBSRCGEwjuMT9SDwSLkOFuRO17eVOAuXEwjhPLsn1stMDj1cQ6dKCOLA7F33ainALYjVEJjE5c0jJN4l80vrSzROe8VjCJGwREsBOSQfO1AQFkRhEbIkjRFb9KAGW7iVd3BgGIOmwAegfzA/KgCghEbIlkbJS0gDPeYl/WaMrxFUWhVga0JIjKsUghAJL1PEWCXaFg4twzf+BhWQegifOR5ZUQggpNx0E1IUik55EDlO5kC7CwJ9SiCAQUBYba2h0kzoX+CQHMS3eV8vP6KTFxSwZKLYBKraigsFdEVe94xblulKYk9r8gO/gQBI0rGpF7guChoEtAU5VLFSyElCJlBEJhawLOzZ/wC9qcj+ZPYmESgIQtKFJCRhGBhlskOOQ/CVQKwIAwHggDYh2GfUxzFFrJUCcjpUV4ZV5UHqE3ECAavwGJmUaDK4YrJskKIYgPIMPbyowpYgAgNg0PXmkAIgDK0cm1dYBzmb5FlJTQhHUfM6NaYR5v4PhaWDl/BytjmkoqrCYGgERAAHBWplsLeZ+KAElo+B09KspLcx+T1qyEkdT+S7bvB8vHv61OOVcDHIbnqWdEDMCRMI+CJtVuQs4SJ6Ir4QtYv225rFMCC45BlGoIwWtWvQYSN0dWcm8GAWUdf5Bepy01M8AA9UFAQFUFmmQajVa24tJosg7l+XgoEAEq2ANWmVITzYl9g0M3UPpOnnJo9Sv8VPVo8PZpYWbjjy/WpHbqPxufxbueDbl/b04TlXBy/B5Vgya/og4O9DGX8+RPrLDrDehJrqezs8N/qFEohHWhZ3ibfVF3VX9QCBVUhQMRFsRrUohaSeZ0XFKwwxcT5kO7VvWdgmqMdwnupGCO6k8w9aEEdQjbRu+vpemKbQapCxAcimUFATUVXFl6uV5WncRbRsidEmeKkblLQnq+wZXgpJOXnyfgLG6wnhSGJh3DR+Hs1LrBUFbHJvyftv4HXbN2geuV0D9wUBsnzXd+DT6hWbtCdMPfGkN6Ee7L3T1KAwpqInmeBXbGDVbHzsaLAhCzuPh9qtA3omlqUPKoKZ3xd+NOizymZNyxPJEnJf64dFXRIqFEprlYAMsIbpnWnKk20DbaOADifF5wur0/PvUcA/c796Khbfo9fzQ5CjD+HFBCcuj+Pb2pFD4VQ8DLUgnlYDd5duxQE4Pmu78beJGzEpBg0HlQ89qHCu9DpNz6CwoVBlgm1WzkZIJCbJ3IlkgUnHA3ClUC4qG6YLUkHAtAxJBNTcoBAKPbfWdVZJpJMIZIXZELw2sYSUXAjiAVNSTCAQyuKEbWEmI+9tGV0nYbdHJqH0DEu/O7trwzopEYfCIB4G/Xj36Zk+oRmlWUT0pVS+BVvAZajBB/Zfg+ajAJrJl/cVkT2t7RRMyNm5+T1qG8Pv08BgF+exIesukeCF+ySCohlE3EtEzHC0CJI3hoSB2IW2gn1q1bCx+wU64gyaLrJz9ltCCeVrxMDADKKXFApy7lv+Bg7uV+r05GybjTiGUnTJ5iLy+AoHwN/+e/SkUv8ADnk2mPOiCJ+jOvN6LDB79fBGaSs0Hh+H9v6fRhtX2vWE8g6BHggkKE/dTI6NBgDP43YmpUiIBiRkj3ErhkR5kmb0niLCBaCL6A8UphpDFqvlyiJJu0JCQ8j8uuxbV8I6yB5Pwjy+kXJahr7todd/brSqv9ijjkclScu8Pw8+9I6KHufHi1+yPk2TRrF5mwhGEECwSDooBJJUEpEBCUkDgJlgeBcaRPbSeljTfxXL4lhwqvtD3rDy6r+YqESBxb7REBI5GlcEMxn1/wBrE+QdEnxBwFCOH99KkTJaYs2OecxbVnwr7AT12DlbHNZg1enBwFjp9xN/O8sk6r0TZ/kWlDzXYMrwVmEP0M+gWNV+4bAiRMjQ5z9By625MVDmNxE9KEqC4mS9CoGbXRJClpjwr3AMqwHVooI9eCCoA3lAAwtmgmOY9Mo28A5OYBakUHDE9AsHBb1aWWfummKZUBdMx56f5msh0GozBCZJkumAMM5KRJUbEkCBBmHAGjjhyfdbHzVETB2NkisIXkjF4qBu5P8AXYoYqKpkXm2zQZqG1RM9N31zbYHLZmWr1syiiCC5RuTcaDJchhGVTdzLXMZUs3ezbRnWLvX7xlSXY3WT5OSiYoJIYRwwiHYKUe1ZXTd5lLf9Jgw7TPFBZarWCAZAqJ1uSWoLC8Hnj2ASihgYLAAwaANBS1CJfBd82x6Ki0YarvabHYUecLs0Mndl4g1fviO8rnW/LXZvhWmQNqNCFYczO0TPbSh8yLyp7TLyah7PmxSt7aKnFWR0xYAOCy9IJ0WpyrjS/AXnGsNmKYIJWbP0g1eJp6JTKuVcvf74UZKYu2GscsxsTFTpocPzrWYDoxV+untEx9CqWESvb90pChOqy91/oYhF2z8fP0RA7foljMS9W/8ARE5nJ1/bd6SmfCP3zp7VrLZUiPKKGhAaWZe1o/cUlS/0dqJ/8H//xAArEQEAAQMDAgUFAQEBAQAAAAABEQAhMUFRYXGBECCRobEwQMHR8FDh8XD/2gAIAQMBAT8Q/wDgYVb/AAxqk0KJB8S7+D5on6X6aXcDyD8RSZnIfkyf4OeN9jVelEBvq6r5EEvRMELDadTjf/AIVdQdD9vx5sEISspCR7W+/DjD63rPmIzefUH8/fZe0B3tUoY4QcEXf5rbY6p+KNq/o69HwthHu9CgQmN1j2J+aGI5DJ+H5pVkEKOAE6/fCEhKVWXwFGSgCTYeYw+nvSJbLDY/bl8VBKx98eQTbqqPSzV+J89H/CfAEYyT0m9ABhTHcHoz4omfPD9uswhGEsvwEXqT4rLwg6Sc1xIYkHVFvmgiez+z+qJpBgBHenZfoDoH/aX73kg6JZ6J0oHLTqR5HDUGJJS6gjD02pEHywVY5bcdWiDiQ1VYvvaabgTBOM/WByF/TR0VCm8QadfepmEmD5OePznyk1YmYVJPDhpib5GhAmO+CoDdXVd11fLpI5NDs87PakpK26CWy6W0ill8ncIdjf8AVCZKiZWu1XV6U7y1OSEDTOc0SLDgd3EnYA60/VtrWmidp5+YqXmJBkCdcQIUA3bbD0s0AD+N/wC/vzE+t+xY/PnAlafm8VdywOQQBCSVDAoEWJJTwSyQYIIBNpyITPgMgo/8Ax6DmiQYeuQJIYUyOHwQteG8lpfin5AGYb5j1u8/W1tXjkWbcjU8s4wLcM6QtOutCTjRHIlka0Jxbrp7xQcSiIi5i8mN2kCO4fkaTzSgcmm8kS2viSCtoJNkQTwNgE2XSbTCQGFVCyQLWEAL6NMbaT3eKm1MLMelmiWL4dvG+uWOGQo/FSHA026qxBC7SgwGIIkEQztBGNRxAoWDbTHoQe1Yp5GVV1unUbN51BJhZHDRAyJJebtKjys+v1jSQlLEtB52e/zUuJMHEhM96SSQumg6/wA9AT4ppcroBY7odChLLcYUj5YWy3pGtk4x7iSenjAAi4mIW/8Aa/NJMZTL+vB/cjBu6B1aaMrXKJ9MVBcWscHyg54+QEkJceShZxazHcIj1u3Wo/M5aJaF5K8i9kCp2Kft2X3HH1wPQTc2/TTMECrAOP8AjBzkCAESrdXnyInD0WCTxAniagyjKIDI21ri9hBmnilpQiMQEEtctisGNOg8c7np4JWLKonrSnUurdXlpO8BloCEZLV3/javg/Ch+2T6ye3oeWYAAD89DLxUFnAuA2AbmAgSE5R8O5WE3iFcUnoeRK1YFDdOVqDB3sicNvfuBNMOCAIOyMJ9Ryy2IrrtNnc4bsrQgKwCjFQJJuqAQXAQKIQVCORNPJKXKP8Ask4dYQUQ26FwBgTnCA7idqaTj+ttWP8AZsHTV3qz9rH5FWVTlAel2iB2XBYv81oAqXp/JTsZFiZhLbtqxz5G4IgC6rgCrozCNMI+DDsjKeMk1yao0YiDezC5Gm2aelI8KxqE2m/NTiWSCI3EZNSUmYm9Q8SoJdwXt6mGFSD9JuyshysytpGVwspKHhENOkH3exKqt3zJZK+yCsZhpOIA0FUiSQQ1J8STSlVwZg/jc5LeMeZJE0aJmMACI6CDpKEssUXWGQBkJOUqq8tCCmoEeVpIsJuv8UlxPS/xU6fZRrddP5oak3j8BHsqWoa/oWe8NxqYfmwdAsHAFA4QKdFM6jEbMJUJZzTlbAA3tfY69KVCysY5Lg5GgZKgAg8iTQIgNczQh3r1EOQGACTKLiJ2QZGAjDV6qLl1vu9AHIn0LI43jkGJPgSSBJM0oZ5BF4N1bmxKggohA4YvnkmB64beINs4WXckS7hFsgUT2WLpHLYPVaVbNLQI+j5HauixMGq4IDdDVQFDaJKdAwyBosKKDrVoU4SXpU/9BKQtSS5AGLYMXCFHl6AXdxTuObMNvHCmh1GSmFBGXVrGFkQEItC5UMAMnedxfuWGS23miYi15MKNdQstUIq3RqXsBAcAKAFR7zKNo1WibilWOfBEsdIB6xm44abJe1CzEaGjKOVEvKzhQDKvwaq2CVQKBbREOLJLgJmKwDQSM0STwxwPXDbyoIjR3EigyFhDCbkxNgWGngBsz6hZ8F6BILgli9G3sngKTFiPKyBQoOTQjcoxsK4IkGVSp10maeswbGhR1uE/kIaiRWb9pyACJEKZYRkk0JGpkGWRgwZL31TYzzLSEhIqMJJLDlZF8H1Sg7S5DcbN0Rk0AAARLiNxHUS46+WKVvBub9F3MYVoEVMqsquVXK6viIZKhyYQERtE+VCqoBKv6Mq2C6hSohotdnMTnngcqQFwFkEk5Qhl4paBAJC3rPgpqxTaubu0E96El0WF2a662cpL+KJIDWp8zQ7EB3Rl+TxLVuEykzJJIrzz2sW1kLWZOkk3HCXKfpFKX3W0nSA0Co6UVHHDA9mTi83TNCRsSYDdspJITFLAXJukMGgBoRAGgGA8T7wjImiYe1NeEe5+gQ+D4tTAlIHHVPe00Uv0S4CJZ54Flcg1wEj0RAF6It+hla5JpK7b2BsIA2A3bq+RXmuMJsGyaglRUDzNYc13cpwskKmQQyPcJOQT2rIUl1U+RHrZE0f6yalC5COARCHhLCsIFATDyi887MTo9I7JI3UQLTglskkLQsGclwkCb0aMtSWzfLuqCuqEYHkTGb3JHp4JKYasJ4DK4CuhR/qkSwcNLu6Rl1VL9izhUDInyOEbJIiNDkAdTr3Xtl6FDk/+Z8pRjypobIn9jioQRi5XIgk37Jsqorf7nMuzhBZWEsK1fJEUAtKvmXHAt5l2TGAOez6hsm9CKg/sEHZpGuapeqX7RvZyhEeE9HRLNqN1pNMsBFPIeKzMJdVHmROqRMj/AHrhtUIowUzEXZ6G8oKsDzAYl46brwF3isVgHXdeVu8v3EAsB6UXgey9x9Qwh9sBuuA5ak6BfwY9yu6B9wYYUI4SlRv/AJrhtHUOanBewR96ZeayiE4kJSL2CjYYYnygCVYAlegVLyRmQICprcNy4gFSWGA13q4GUAEqgTQhBLWgVGUeBb5QEvu1mIBIkZQY5YKZZBo+c3XLlIDFYWuzipswwligmBJlYjJKU92Q/KX2VfyyiZJvF8UlH8HcnvUgQEiEQTN2T6HWj05skzQ1N9FTYqTEOAoKkgMwxKIRUVfBoQsQyCTEKtKVX+ZJ3ldernXW/wB4AmDd2OOk4eF1p49UKcmSCew4pJvwkRcIiBRbib60BTtr7HuMG9EnIWtVvCAfQJtUooGpI5E6qFSJgWTVUydK6FMUurnqBPUQp0NlKvwqqOppdhAdXD0mOUuh98r2hY0tuGm5bIKCAXbRrO3WoWx0J1mIZsTecVY56Ih3w6SUFlDCWC0Bi+oDzRF5SBXVM6m4RlApbxeEjZ9IxeFFLhKh+puxL+JdDlKPsAALAFgPvx0M2RNwYDJZIJSZm4jb4zWBhlMjAkuQss+lEL0Qp2qQ2yhIBbCCICCDIDeonNKh5pgEAFgNg6hoICDAAB0C3+Ci4SGhUDYVcYFUJXg/YSuiB7/HhcCh9EhjhPUnX/CTwokmWxDdLFhCaxq82Uawig5C60Tar3d0JCFZIKRZgWChUColLWCMsIRKDA/+V//Z;" parent="1" vertex="1">
          <mxGeometry x="985" y="270" width="400" height="400" as="geometry" />
        </mxCell>
        <mxCell id="JLZ1R_rEEBtdWBjRzS_E-1" value="Apptoccio Ibrido semi-supervisionato" style="html=1;shadow=0;dashed=0;align=center;verticalAlign=middle;shape=mxgraph.arrows2.arrow;dy=0.52;dx=112.61;notch=0;fontSize=24;fontStyle=1;fillColor=#FF0000;gradientColor=#66CC00;gradientDirection=east;strokeColor=none;fontColor=#FFFFFF;" vertex="1" parent="1">
          <mxGeometry x="480" y="310" width="520" height="280" as="geometry" />
        </mxCell>
      </root>
    </mxGraphModel>
  </diagram>
</mxfile>
